<?xml version="1.0" encoding="UTF-8"?>
<svg version="1.1" xmlns="http://www.w3.org/2000/svg" width="512" height="512">
<path d="M0 0 C1.16784027 -0.00571014 2.33568054 -0.01142029 3.53890991 -0.01730347 C4.81642624 -0.01842133 6.09394257 -0.01953918 7.41017151 -0.02069092 C8.772091 -0.0253213 10.1340092 -0.03034626 11.4959259 -0.03573608 C15.19218739 -0.04883821 18.88843072 -0.0553004 22.58471179 -0.05974674 C24.89439878 -0.06268013 27.20408083 -0.06678537 29.51376534 -0.07125092 C36.74165302 -0.08491816 43.96952941 -0.09458941 51.19742912 -0.09845281 C59.53891503 -0.10293616 67.88023729 -0.12050003 76.22167343 -0.1494534 C82.67188841 -0.17106498 89.12205732 -0.18115675 95.57230812 -0.18249393 C99.4239453 -0.18354205 103.27542847 -0.18945161 107.12702751 -0.20731354 C110.74926179 -0.22378596 114.37122613 -0.22595393 117.9934845 -0.21717453 C119.95463013 -0.21603655 121.91576678 -0.22975909 123.87686157 -0.243927 C125.63285172 -0.23557327 125.63285172 -0.23557327 127.42431641 -0.22705078 C128.43954597 -0.22851734 129.45477552 -0.2299839 130.50076962 -0.2314949 C133.75942939 0.20528626 135.65532027 1.17856131 138.27565002 3.14044189 C138.84327698 5.50054932 138.84327698 5.50054932 138.76393127 8.24591064 C138.74781799 9.2288208 138.73170471 10.21173096 138.71510315 11.22442627 C138.67320862 12.24858643 138.63131409 13.27274658 138.58815002 14.32794189 C138.55431213 15.88158447 138.55431213 15.88158447 138.51979065 17.46661377 C138.46081848 20.02600593 138.3785757 22.58250141 138.27565002 25.14044189 C139.5928302 25.12473145 140.91001038 25.109021 142.2671051 25.09283447 C147.14790242 25.03858803 152.02867302 25.00411099 156.90968323 24.97564697 C159.02333556 24.9605483 161.13695651 24.94006764 163.25050354 24.91412354 C166.28630818 24.87778792 169.32169909 24.86072645 172.35768127 24.84747314 C173.30464371 24.83198929 174.25160614 24.81650543 175.2272644 24.80055237 C176.54829414 24.80021248 176.54829414 24.80021248 177.89601135 24.79986572 C178.67100479 24.79320389 179.44599823 24.78654205 180.24447632 24.77967834 C182.84157119 25.24095704 183.71392081 26.04267713 185.27565002 28.14044189 C187.99088941 50.15517689 180.22306285 72.61196772 167.27565002 90.14044189 C164.44749575 93.66819223 161.46921062 96.94145007 158.27565002 100.14044189 C157.51768127 100.91001221 156.75971252 101.67958252 155.97877502 102.47247314 C150.77576108 107.46294567 145.33392277 111.11841662 139.0092926 114.49053955 C133.35395022 117.50938287 131.17551657 120.09890171 128.15065002 125.70294189 C117.72127288 143.77472274 100.97620961 154.51171058 81.27565002 160.14044189 C80.94565002 182.91044189 80.61565002 205.68044189 80.27565002 229.14044189 C92.37620602 229.06162182 92.37620602 229.06162182 104.47657776 228.96026611 C106.01246358 228.95441572 107.54835254 228.94932147 109.08424377 228.94512939 C109.85868835 228.93489746 110.63313293 228.92466553 111.43104553 228.91412354 C118.56806301 228.91188447 126.21792421 229.30155948 131.65065002 234.39044189 C132.2771344 234.95247314 132.90361877 235.51450439 133.54908752 236.09356689 C138.25399092 241.67132567 138.68018311 246.53699353 138.46315002 253.51544189 C138.44961487 254.34688721 138.43607971 255.17833252 138.4221344 256.03497314 C138.38704062 258.07041255 138.3332423 260.1055148 138.27565002 262.14044189 C139.18131714 262.13155945 140.08698425 262.122677 141.02009583 262.11352539 C149.55416128 262.03338516 158.0881004 261.97248037 166.6224556 261.93319321 C171.01010944 261.91231618 175.39745243 261.8839968 179.78492737 261.83868408 C184.01893418 261.79522988 188.25264196 261.77130566 192.48685455 261.76093292 C194.10242674 261.75354073 195.71798251 261.7391054 197.33342743 261.71752167 C199.59610385 261.68849207 201.85754397 261.68448551 204.12037659 261.68634033 C205.4083313 261.67745789 206.69628601 261.66857544 208.02326965 261.65942383 C211.27565002 262.14044189 211.27565002 262.14044189 213.70332336 263.97351074 C215.27565002 266.14044189 215.27565002 266.14044189 215.58815002 269.26544189 C214.58966241 274.01582237 211.06658724 276.9953764 207.82643127 280.40606689 C199.14122326 289.71639708 192.33025534 299.09881375 191.77565002 312.14044189 C192.30041996 324.84971366 198.83899148 333.95776029 206.98268127 343.25372314 C207.43627014 343.77716309 207.88985901 344.30060303 208.35719299 344.83990479 C209.64599438 346.3136494 210.95829051 347.76674985 212.27174377 349.21856689 C214.61373238 352.63339628 215.10325633 355.03254636 215.27565002 359.14044189 C213.51033436 361.7884154 212.34465424 362.11744049 209.27565002 363.14044189 C207.60081377 363.23043218 205.92258207 363.26240615 204.24533081 363.26069641 C203.20626587 363.26207108 202.16720093 363.26344574 201.09664917 363.26486206 C199.95729416 363.26126678 198.81793915 363.25767151 197.64405823 363.25396729 C195.84386734 363.25418633 195.84386734 363.25418633 194.00730896 363.25440979 C190.71624471 363.2538321 187.42524302 363.24881344 184.13418984 363.24183583 C180.69486948 363.23558869 177.25554831 363.23499742 173.81622314 363.23381042 C167.30331862 363.23070113 160.79043085 363.22249314 154.27753371 363.21246094 C146.86285542 363.20128735 139.44817634 363.1957862 132.03349173 363.1907655 C116.78086812 363.18031021 101.52826123 363.16271852 86.27565002 363.14044189 C86.2992157 363.98022583 86.2992157 363.98022583 86.32325745 364.8369751 C86.38564851 367.3755278 86.42465221 369.91391918 86.46315002 372.45294189 C86.48828674 373.33401611 86.51342346 374.21509033 86.5393219 375.12286377 C86.54898987 375.97042236 86.55865784 376.81798096 86.56861877 377.69122314 C86.59218445 378.86165161 86.59218445 378.86165161 86.6162262 380.0557251 C86.18588096 382.68993155 85.37306847 383.53719101 83.27565002 385.14044189 C80.58815002 385.76544189 80.58815002 385.76544189 77.27565002 385.14044189 C74.27947867 383.14956488 71.81979417 380.67162775 69.27565002 378.14044189 C68.80304749 377.67476807 68.33044495 377.20909424 67.84352112 376.72930908 C64.62716476 373.55929792 61.44259363 370.35977979 58.27565002 367.14044189 C54.84917931 369.95776226 51.6452824 372.7459148 48.60768127 375.98809814 C48.14015442 376.48591797 47.67262756 376.98373779 47.19093323 377.49664307 C45.82054076 378.96726779 44.46959705 380.4559415 43.11940002 381.94512939 C40.27565002 384.14044189 40.27565002 384.14044189 36.61940002 384.64825439 C33.0756033 384.11006097 32.35298251 383.88943102 30.27565002 381.14044189 C29.93507385 379.14752197 29.93507385 379.14752197 29.98268127 376.90997314 C29.99234924 376.10753174 30.00201721 375.30509033 30.01197815 374.47833252 C30.03711487 373.64495361 30.06225159 372.81157471 30.08815002 371.95294189 C30.10168518 371.10796143 30.11522034 370.26298096 30.12916565 369.39239502 C30.16449204 367.30813805 30.21829863 365.22420913 30.27565002 363.14044189 C29.02562698 363.14710373 29.02562698 363.14710373 27.75035095 363.15390015 C19.83743942 363.19423126 11.92456318 363.22455423 4.01157188 363.24406624 C-0.05506963 363.25443525 -4.12162513 363.2684661 -8.18821716 363.2913208 C-12.12398989 363.31329796 -16.05968068 363.32506203 -19.9955101 363.33019638 C-21.48555666 363.33384808 -22.97559953 363.3409765 -24.4656105 363.35190201 C-43.79871714 363.48782456 -60.06235391 361.54862169 -74.60716248 347.45684814 C-85.87571029 335.12797572 -88.52697428 321.66082492 -87.90354919 305.51690674 C-87.20000473 296.18679527 -83.40287521 288.40666561 -77.72434998 281.14044189 C-77.06499451 280.22005127 -77.06499451 280.22005127 -76.39231873 279.28106689 C-69.29678296 270.03846699 -57.1134429 263.97997098 -45.72434998 262.14044189 C-43.07271943 262.05883436 -40.44909525 262.02372995 -37.79856873 262.04278564 C-36.67718254 262.04490807 -36.67718254 262.04490807 -35.53314209 262.04707336 C-33.15933633 262.05264426 -30.78562695 262.06519129 -28.41184998 262.07794189 C-26.79661697 262.08296066 -25.18138247 262.08752291 -23.56614685 262.09161377 C-19.61884443 262.10260414 -15.67161351 262.11984858 -11.72434998 262.14044189 C-11.78235779 260.93387939 -11.8403656 259.72731689 -11.90013123 258.48419189 C-12.43001896 242.86147114 -12.43001896 242.86147114 -8.15403748 237.54669189 C-0.39851739 229.91831148 6.66854872 228.97473487 17.17408752 229.04278564 C18.28554138 229.04429626 18.28554138 229.04429626 19.41944885 229.0458374 C22.16319853 229.05103337 24.90692598 229.0649944 27.65065002 229.07794189 C33.79690002 229.09856689 39.94315002 229.11919189 46.27565002 229.14044189 C45.94565002 206.37044189 45.61565002 183.60044189 45.27565002 160.14044189 C41.31565002 158.82044189 37.35565002 157.50044189 33.27565002 156.14044189 C18.80909918 149.74027785 3.92483569 138.5970995 -2.81028748 123.74591064 C-3.0500531 123.09235596 -3.28981873 122.43880127 -3.53684998 121.76544189 C-5.52123427 117.22148945 -9.79498119 115.6088716 -13.95921326 113.40704346 C-33.00895322 103.14610521 -47.36025297 84.66885179 -54.06809998 64.22637939 C-56.74663865 55.13848032 -57.90539102 46.83343938 -57.91184998 37.39044189 C-57.92409607 36.43266846 -57.93634216 35.47489502 -57.94895935 34.48809814 C-57.95185974 33.11718018 -57.95185974 33.11718018 -57.95481873 31.71856689 C-57.95892761 30.88744385 -57.9630365 30.0563208 -57.9672699 29.20001221 C-57.72434998 27.14044189 -57.72434998 27.14044189 -55.72434998 25.14044189 C-53.81343079 24.89993286 -53.81343079 24.89993286 -51.45823669 24.91339111 C-50.57747467 24.91354218 -49.69671265 24.91369324 -48.78926086 24.91384888 C-47.36107529 24.92933273 -47.36107529 24.92933273 -45.90403748 24.94512939 C-44.44334335 24.94937424 -44.44334335 24.94937424 -42.95314026 24.95370483 C-39.83508649 24.96492277 -36.7173173 24.9900302 -33.59934998 25.01544189 C-31.48867703 25.02546961 -29.3779996 25.03459582 -27.26731873 25.04278564 C-22.08623163 25.06486731 -16.90531113 25.0983606 -11.72434998 25.14044189 C-11.73482361 24.48447021 -11.74529724 23.82849854 -11.75608826 23.15264893 C-11.797575 20.19028532 -11.8236526 17.22798274 -11.84934998 14.26544189 C-11.86610779 13.23290283 -11.8828656 12.20036377 -11.90013123 11.13653564 C-11.90657654 10.15040283 -11.91302185 9.16427002 -11.91966248 8.14825439 C-11.93013611 7.23704834 -11.94060974 6.32584229 -11.95140076 5.38702393 C-11.72434998 3.14044189 -11.72434998 3.14044189 -9.72434998 1.14044189 C-6.49253076 0.01352494 -3.40122733 0.00996943 0 0 Z M1.27565002 13.14044189 C1.19315002 26.73231689 1.11065002 40.32419189 1.02565002 54.32794189 C0.98923401 58.59498047 0.95281799 62.86201904 0.91529846 67.25836182 C0.90190798 71.13540772 0.90190798 71.13540772 0.89387512 75.01246643 C0.88779506 76.71860446 0.87385838 78.42472699 0.85334778 80.13075256 C0.62020924 100.57224087 5.75164558 117.0911983 20.27565002 132.14044189 C32.72386148 142.82333681 48.16263924 149.61788175 64.78346252 149.35919189 C79.05558868 148.10646609 90.96501986 143.90664458 102.27565002 135.14044189 C102.98850159 134.59387939 103.70135315 134.04731689 104.43580627 133.48419189 C116.69499241 123.4689801 124.20312844 108.13335589 125.80567932 92.5100708 C126.48919108 84.71345762 126.40031883 76.91596755 126.37330627 69.09747314 C126.37183219 67.65911905 126.37081436 66.22076441 126.37025452 64.78240967 C126.36505572 59.50591212 126.35109466 54.22942613 126.33815002 48.95294189 C126.31752502 37.13481689 126.29690002 25.31669189 126.27565002 13.14044189 C85.02565002 13.14044189 43.77565002 13.14044189 1.27565002 13.14044189 Z M-44.72434998 37.14044189 C-44.72434998 56.95432472 -37.50052956 74.75349573 -23.72434998 89.14044189 C-18.47587046 95.16792046 -18.47587046 95.16792046 -11.72434998 98.14044189 C-11.72434998 78.01044189 -11.72434998 57.88044189 -11.72434998 37.14044189 C-22.61434998 37.14044189 -33.50434998 37.14044189 -44.72434998 37.14044189 Z M138.27565002 37.14044189 C138.27565002 57.60044189 138.27565002 78.06044189 138.27565002 99.14044189 C155.57472954 87.60772222 166.91045181 70.74396019 171.08815002 50.26544189 C171.97224146 45.66425884 172.27565002 41.89160535 172.27565002 37.14044189 C161.05565002 37.14044189 149.83565002 37.14044189 138.27565002 37.14044189 Z M59.27565002 161.14044189 C59.27565002 183.58044189 59.27565002 206.02044189 59.27565002 229.14044189 C61.91565002 229.14044189 64.55565002 229.14044189 67.27565002 229.14044189 C67.27565002 206.70044189 67.27565002 184.26044189 67.27565002 161.14044189 C64.63565002 161.14044189 61.99565002 161.14044189 59.27565002 161.14044189 Z M1.27565002 247.14044189 C1.27565002 252.09044189 1.27565002 257.04044189 1.27565002 262.14044189 C42.52565002 262.14044189 83.77565002 262.14044189 126.27565002 262.14044189 C126.88468031 252.36819818 126.88468031 252.36819818 122.83815002 244.39044189 C119.98932982 242.11138573 117.26954149 242.01297202 113.77250671 242 C112.85005157 241.99428986 111.92759644 241.98857971 110.97718811 241.98269653 C109.96724792 241.98157867 108.95730774 241.98046082 107.91676331 241.97930908 C106.85146393 241.97434418 105.78616455 241.96937927 104.68858337 241.96426392 C101.15770324 241.94963574 97.62686801 241.94283952 94.09596252 241.93731689 C91.64600116 241.93156642 89.19603982 241.92580867 86.74607849 241.92004395 C81.60635671 241.90953239 76.46665058 241.90369058 71.32691956 241.90020752 C64.73703188 241.8947195 58.14735047 241.87068534 51.55752754 241.84223557 C46.49609266 241.8236248 41.43470764 241.81840443 36.37324142 241.81687164 C33.94353481 241.81384156 31.51382915 241.80580114 29.08415604 241.79268646 C25.68705222 241.77565742 22.29045483 241.77749867 18.89332581 241.78399658 C17.88743408 241.7747818 16.88154236 241.76556702 15.84516907 241.756073 C9.5057866 241.79411328 5.88538585 242.53070607 1.27565002 247.14044189 Z M-67.59934998 289.45294189 C-74.50224197 299.17900248 -75.90990636 308.45085591 -74.72434998 320.14044189 C-72.22775785 330.0503841 -66.05269212 339.09881162 -57.40013123 344.62481689 C-46.54596159 350.41825124 -35.48209403 350.42152296 -23.43528748 350.33575439 C-21.88016442 350.33201663 -20.32503899 350.32917327 -18.76991272 350.32717896 C-14.70932831 350.31960253 -10.64889071 350.30000674 -6.58836365 350.277771 C-1.69899529 350.25355196 3.1904226 350.24450301 8.07983398 350.23286438 C15.47854093 350.21357786 22.87692677 350.17521396 30.27565002 350.14044189 C30.27565002 339.91044189 30.27565002 329.68044189 30.27565002 319.14044189 C20.53787747 318.85143218 20.53787747 318.85143218 10.79981995 318.57232666 C9.58914856 318.53421875 8.37847717 318.49611084 7.13111877 318.45684814 C5.88999329 318.42019043 4.6488678 318.38353271 3.37013245 318.34576416 C0.27565002 318.14044189 0.27565002 318.14044189 -2.72434998 317.14044189 C-4.10560015 314.37794154 -3.91514304 312.1931309 -3.72434998 309.14044189 C-1.30747104 306.72356296 -0.05350166 306.89513152 3.2449733 306.85610616 C4.28679082 306.85900826 4.28679082 306.85900826 5.34965515 306.86196899 C6.08640343 306.85617659 6.8231517 306.85038419 7.58222568 306.84441626 C10.06357357 306.82734171 12.54473631 306.82453341 15.02613831 306.82159424 C16.79981445 306.81230119 18.57348621 306.80213346 20.34715271 306.79115295 C25.17331729 306.76376855 29.99945254 306.74867863 34.82567453 306.73572493 C39.86525761 306.72013119 44.90478048 306.69332908 49.94432068 306.66769409 C59.49237628 306.62083957 69.04044313 306.58412783 78.58855522 306.55102122 C89.45663026 306.51284688 100.32464494 306.46342451 111.19266915 306.41303706 C133.55361807 306.30961799 155.91460575 306.22039013 178.27565002 306.14044189 C178.47349594 305.53321793 178.67134186 304.92599396 178.87518311 304.30036926 C179.27100334 303.0969413 179.27100334 303.0969413 179.67481995 301.86920166 C179.93454086 301.07635269 180.19426178 300.28350372 180.46185303 299.46662903 C181.60144337 296.20918228 183.04711944 293.16354566 184.58815002 290.07794189 C185.14115784 288.95259033 185.69416565 287.82723877 186.26393127 286.66778564 C187.74932138 283.88761658 189.4939813 281.42813522 191.40138245 278.91998291 C192.20946602 277.85397606 192.20946602 277.85397606 193.03387451 276.76643372 C193.64855339 275.96156776 193.64855339 275.96156776 194.27565002 275.14044189 C164.12609367 275.07195415 133.97654 275.01888709 103.82692299 274.98724591 C100.26474724 274.98349394 96.70257164 274.97961096 93.14039612 274.97564697 C92.0766813 274.97446658 92.0766813 274.97446658 90.9914773 274.97326233 C79.52012447 274.96022047 68.04881689 274.93657336 56.57749088 274.90898351 C44.80045618 274.88089533 33.02344512 274.86425843 21.2463783 274.85817641 C14.63407382 274.8544351 8.02185342 274.8450877 1.40958023 274.82325172 C-4.8168945 274.8028568 -11.04322465 274.79661425 -17.26972961 274.80111885 C-19.55214346 274.800295 -21.83456226 274.79434742 -24.11694717 274.78282547 C-27.2402756 274.76783455 -30.36306269 274.77151256 -33.48640442 274.77967834 C-34.3833217 274.77093982 -35.28023898 274.7622013 -36.20433557 274.75319797 C-48.94252818 274.84282198 -59.40922292 279.58637092 -67.59934998 289.45294189 Z M43.27565002 319.14044189 C43.27565002 333.00044189 43.27565002 346.86044189 43.27565002 361.14044189 C48.1172525 357.02187576 48.1172525 357.02187576 52.77565002 352.70294189 C55.27565002 351.14044189 55.27565002 351.14044189 58.59596252 351.22637939 C63.01647947 352.32446959 64.60580015 353.87234457 67.65065002 357.20294189 C69.18505054 358.85555151 70.72471288 360.50334158 72.27565002 362.14044189 C72.60565002 362.14044189 72.93565002 362.14044189 73.27565002 362.14044189 C73.27565002 347.95044189 73.27565002 333.76044189 73.27565002 319.14044189 C63.37565002 319.14044189 53.47565002 319.14044189 43.27565002 319.14044189 Z M86.27565002 319.14044189 C86.27565002 329.37044189 86.27565002 339.60044189 86.27565002 350.14044189 C121.91565002 350.14044189 157.55565002 350.14044189 194.27565002 350.14044189 C192.21386669 346.70413633 190.2044761 343.64142135 187.83815002 340.45294189 C183.04996324 333.66039784 180.63938143 327.32283031 179.27565002 319.14044189 C148.58565002 319.14044189 117.89565002 319.14044189 86.27565002 319.14044189 Z " fill="#202020" transform="translate(192.72434997558594,63.85955810546875)"/>
<path d="M0 0 C3.125 0.4375 3.125 0.4375 5.1875 2.3125 C12.125 13.50201613 12.125 13.50201613 12.125 17.4375 C13.00542969 17.48648438 13.88585937 17.53546875 14.79296875 17.5859375 C15.95441406 17.66070312 17.11585938 17.73546875 18.3125 17.8125 C19.46105469 17.88210937 20.60960937 17.95171875 21.79296875 18.0234375 C26.09703855 18.5582926 29.03555854 19.34805854 32.125 22.4375 C32.59765625 25.7265625 32.59765625 25.7265625 32.125 29.4375 C30.28957959 31.52253759 28.67702163 33.08478505 26.5625 34.8125 C22.65614899 38.19422439 22.65614899 38.19422439 20.6171875 42.79296875 C20.94913062 45.08013783 21.51528509 47.20954803 22.125 49.4375 C22.26854999 51.22534991 22.35164101 53.01904851 22.375 54.8125 C22.40078125 55.62460938 22.4265625 56.43671875 22.453125 57.2734375 C22.125 59.4375 22.125 59.4375 20.984375 61.2265625 C18.22064881 63.02646821 16.36640865 62.8266295 13.125 62.4375 C10.2299913 61.03472191 7.62183835 59.37299671 4.90625 57.65234375 C1.4307613 56.13425809 -0.26319599 56.40006693 -3.875 57.4375 C-6.22861752 58.58676278 -6.22861752 58.58676278 -8.375 60 C-12.04151043 62.12953889 -14.55035165 63.26124254 -18.875 62.4375 C-20.86561478 60.8950094 -21.77163612 60.03922547 -22.203125 57.52734375 C-22.17734375 56.81707031 -22.1515625 56.10679687 -22.125 55.375 C-22.10566406 54.18003906 -22.10566406 54.18003906 -22.0859375 52.9609375 C-21.875 50.4375 -21.875 50.4375 -21.2890625 47.9765625 C-20.68264109 45.1905395 -20.39338925 43.26266308 -20.875 40.4375 C-23.80087642 36.60266565 -27.25880985 33.60318834 -30.875 30.4375 C-32.27435013 27.63879973 -32.12765405 25.53251208 -31.875 22.4375 C-29.00719333 18.51911069 -25.1387445 18.5029517 -20.6171875 17.77734375 C-17.67731826 17.41300098 -14.83450889 17.27752655 -11.875 17.4375 C-11.648125 16.633125 -11.42125 15.82875 -11.1875 15 C-5.99742424 0.91265152 -5.99742424 0.91265152 0 0 Z M0.125 22.4375 C-2.24515245 25.09234449 -2.24515245 25.09234449 -2.875 28.4375 C-5.185 28.7675 -7.495 29.0975 -9.875 29.4375 C-10.20039569 32.44201938 -10.20039569 32.44201938 -8.375 34.1875 C-6.29718672 37.30421992 -6.6638235 39.77710732 -6.875 43.4375 C-6.1015625 43.19 -6.1015625 43.19 -5.3125 42.9375 C-0.99790849 42.05245559 2.94626148 42.04458716 7.125 43.4375 C7.16238281 42.83421875 7.19976562 42.2309375 7.23828125 41.609375 C7.89125659 33.67124341 7.89125659 33.67124341 11.125 30.4375 C7.21436776 28.96702664 7.21436776 28.96702664 3.125 28.4375 C2.465 26.4575 1.805 24.4775 1.125 22.4375 C0.795 22.4375 0.465 22.4375 0.125 22.4375 Z " fill="#202020" transform="translate(255.875,113.5625)"/>
</svg>
