<?xml version="1.0" encoding="UTF-8"?>
<svg version="1.1" xmlns="http://www.w3.org/2000/svg" width="512" height="512">
<path d="M0 0 C1.10179256 -0.00445784 2.20358511 -0.00891569 3.33876532 -0.01350862 C4.5541095 -0.01332426 5.76945368 -0.01313989 7.02162647 -0.01294994 C8.30894777 -0.01662663 9.59626906 -0.02030332 10.92260009 -0.02409142 C14.50327601 -0.03411561 18.08393517 -0.03782889 21.66462314 -0.04048073 C25.52366243 -0.04438255 29.38268843 -0.05396098 33.24171925 -0.0626936 C42.5650194 -0.08246154 51.88832064 -0.09252466 61.21163651 -0.10142139 C65.60134227 -0.10580377 69.99104681 -0.11117071 74.38075161 -0.11641026 C88.97178586 -0.13342291 103.56281935 -0.14791729 118.153862 -0.155159 C121.94082293 -0.15706891 125.72778385 -0.15898924 129.51474476 -0.16094494 C130.92660368 -0.16167055 130.92660368 -0.16167055 132.366985 -0.16241082 C147.61596322 -0.17071191 162.86486301 -0.19604999 178.11380699 -0.22852562 C193.76687395 -0.26159032 209.41990104 -0.27960723 225.07300311 -0.28280324 C233.86273741 -0.28496889 242.65235734 -0.29372554 251.44205761 -0.31926441 C258.92750866 -0.34096338 266.41281757 -0.34902581 273.8982965 -0.33929763 C277.71704705 -0.33475056 281.53550428 -0.3366625 285.35421467 -0.35605907 C289.49624419 -0.37691605 293.63762224 -0.36671316 297.77968311 -0.35352612 C299.58596897 -0.36997998 299.58596897 -0.36997998 301.42874545 -0.38676625 C309.3091886 -0.32611023 314.66273135 0.73867225 320.85483265 5.92328358 C334.30308555 21.84438903 334.88626222 40.14706424 333.7181139 60.13422108 C332.66659811 71.14836215 327.97706582 81.79776848 320.7181139 90.13422108 C315.79364639 93.75219721 312.4201154 95.26024387 306.34611988 95.25447559 C304.67393139 95.25653759 304.67393139 95.25653759 302.96796131 95.25864124 C301.74444965 95.25504597 300.520938 95.25145069 299.26035023 95.24774647 C297.32848614 95.24796551 297.32848614 95.24796551 295.35759449 95.24818897 C291.82481304 95.24847621 288.29206546 95.24259139 284.75929189 95.23561502 C281.06772644 95.2293692 277.37616025 95.2287767 273.68459034 95.22758961 C266.69357081 95.22447992 259.70256688 95.2162714 252.71155423 95.20624012 C244.7527507 95.19506774 236.79394643 95.18956569 228.83513701 95.18454468 C212.46278683 95.1740885 196.09045236 95.15649606 179.7181139 95.13422108 C179.72699635 95.73921436 179.73587879 96.34420765 179.7450304 96.96753407 C179.83348983 103.26144435 179.89384231 109.55517821 179.93784046 115.84955311 C179.95796204 118.19890992 179.98526241 120.54821662 180.01987171 122.89740467 C180.0683643 126.27334422 180.09107747 129.64862194 180.1087389 133.02484608 C180.12938404 134.07601612 180.15002918 135.12718616 180.17129993 136.21020985 C180.17353962 143.48038135 180.17353962 143.48038135 177.86996937 146.78754139 C174.7770864 148.72313731 173.312257 148.87600983 169.7181139 148.13422108 C167.12004366 146.245802 165.01121643 143.99362678 162.8431139 141.63422108 C161.95366077 140.70416248 161.95366077 140.70416248 161.0462389 139.75531483 C159.58956179 138.22815334 158.15190685 136.68288765 156.7181139 135.13422108 C152.84490297 136.71052785 150.47076227 139.21169776 147.5931139 142.19672108 C141.95318691 148.02910848 141.95318691 148.02910848 137.7806139 148.38422108 C134.7181139 148.13422108 134.7181139 148.13422108 133.04799366 146.92674732 C131.29283376 144.56099196 131.35539498 143.13402455 131.37753773 140.20380116 C131.37776432 139.20299015 131.37799091 138.20217915 131.37822437 137.17104053 C131.39370823 136.09283543 131.40919209 135.01463032 131.42514515 133.90375233 C131.42938999 132.79819492 131.43363483 131.69263752 131.43800831 130.55357838 C131.45481952 127.01771296 131.49247705 123.48241463 131.5306139 119.94672108 C131.54565754 117.55154701 131.5593465 115.15636402 131.57162952 112.7611742 C131.60473105 106.88532922 131.65495497 101.00981566 131.7181139 95.13422108 C130.66235283 95.14113452 130.66235283 95.14113452 129.58526325 95.14818764 C112.44147595 95.25871755 95.29777941 95.34140216 78.15371418 95.39328194 C69.86287592 95.41903896 61.57227583 95.4541413 53.28159046 95.51141834 C46.0535152 95.56133033 38.82561248 95.59353028 31.59736967 95.60466355 C27.77169302 95.61116924 23.94650984 95.62640624 20.12099171 95.66287136 C16.51593659 95.69695474 12.9115755 95.70724963 9.30637455 95.69975948 C7.36120442 95.70177857 5.4161089 95.72860909 3.47113514 95.75632191 C-5.18999849 95.70553427 -10.13141999 94.01911806 -16.41860485 88.13422108 C-28.21014505 72.92699543 -29.78119663 53.80074391 -27.88735485 35.27484608 C-26.02409671 23.87891885 -21.79081664 11.13257676 -12.4693861 3.69672108 C-8.29681506 0.86823486 -5.0165536 0.00940059 0 0 Z M-4.7193861 14.50922108 C-13.11146615 23.105986 -15.35298674 35.84407468 -15.7193861 47.44672108 C-15.44666225 59.42177748 -12.9641537 71.65854439 -4.80141735 80.79047108 C-3.2559608 82.36519252 -3.2559608 82.36519252 -0.5318861 82.82172108 C3.80652377 81.90398053 5.37865832 80.0208893 8.1087389 76.62640858 C15.98682041 64.42685516 16.58385062 47.72502386 14.03452015 33.76703358 C11.956119 25.19470686 9.22791132 18.14075269 1.7181139 13.13422108 C-2.16766323 12.80667362 -2.16766323 12.80667362 -4.7193861 14.50922108 Z M19.7181139 13.13422108 C20.06409626 14.01329121 20.41007862 14.89236134 20.7665453 15.79806995 C21.21897602 16.95845783 21.67140675 18.11884571 22.13754749 19.31439686 C22.58665485 20.46159199 23.03576221 21.60878712 23.49847889 22.79074574 C26.4392009 30.85236371 27.10686093 38.72737986 27.0931139 47.25922108 C27.09222767 48.25824451 27.09134144 49.25726795 27.09042835 50.28656483 C26.90919383 61.75309818 24.27023277 71.64215171 19.7181139 82.13422108 C34.88645157 82.29778745 50.05474853 82.42120368 65.22377014 82.49690628 C72.26718798 82.53299196 79.31005768 82.58218235 86.35312366 82.66229725 C93.14827964 82.73955529 99.94286542 82.78019461 106.73843288 82.79836178 C109.33289341 82.81131065 111.92732223 82.83659679 114.52154064 82.87433147 C118.15180029 82.925043 121.77969657 82.93214876 125.41025257 82.92889881 C126.4863126 82.95406574 127.56237263 82.97923267 128.67104053 83.00516224 C133.98148424 83.072541 133.98148424 83.072541 138.47790432 80.63901424 C141.20380784 76.94732911 142.71536723 72.98287568 143.9681139 68.57172108 C144.28264515 67.49793201 144.5971764 66.42414295 144.9212389 65.31781483 C148.86284029 49.57073082 147.64162258 32.55047171 140.34064198 17.96274281 C138.5359554 15.02797675 137.55610975 13.44878613 134.30118656 12.22696018 C131.25792327 11.8997548 128.35612317 11.89640555 125.29672718 11.99896717 C123.58366131 11.99677677 123.58366131 11.99677677 121.83598804 11.99454212 C118.06818799 12.00149906 114.30535988 12.0792204 110.5384264 12.15765858 C107.92386038 12.17631362 105.30925937 12.19054643 102.69464588 12.20053577 C96.52098883 12.2315696 90.34911092 12.31355815 84.17623603 12.41403067 C77.14625306 12.52596005 70.11618327 12.58082467 63.08553052 12.63098502 C48.62880879 12.73540092 34.17348623 12.9111944 19.7181139 13.13422108 Z M152.7181139 13.13422108 C152.91775745 13.7469286 153.11740101 14.35963612 153.32309437 14.99091053 C160.80247389 38.3091279 160.14378344 58.96421425 152.7181139 82.13422108 C163.79196971 83.47452967 163.79196971 83.47452967 174.17514515 80.69281483 C175.94907762 78.22615938 176.8119061 76.03863604 177.7181139 73.13422108 C178.11901234 71.9817992 178.51991077 70.82937733 178.93295765 69.64203358 C184.03961028 53.41464353 183.56852131 34.84275954 176.1556139 19.44672108 C174.81544316 16.89580418 173.76410702 15.1802142 171.7181139 13.13422108 C169.68343956 12.85736043 169.68343956 12.85736043 167.3665514 12.93890858 C166.51577015 12.94535389 165.6649889 12.9517992 164.7884264 12.95843983 C163.89897327 12.97519764 163.00952015 12.99195545 162.0931139 13.00922108 C160.74733265 13.02275623 160.74733265 13.02275623 159.3743639 13.03656483 C157.15534804 13.06017138 154.93686312 13.09309798 152.7181139 13.13422108 Z M187.7181139 13.13422108 C187.92366398 13.74756306 188.12921406 14.36090504 188.34099293 14.99283314 C188.61086521 15.7998769 188.8807375 16.60692066 189.15878773 17.4384203 C189.42621281 18.23738728 189.69363789 19.03635426 189.96916676 19.85953236 C196.17979174 38.72233025 195.42172183 59.11869697 189.15878773 77.83002186 C188.7539793 79.0405875 188.7539793 79.0405875 188.34099293 80.27560902 C188.13544285 80.888951 187.92989277 81.50229298 187.7181139 82.13422108 C203.40813137 82.25104757 219.09803134 82.33920563 234.78837585 82.39328194 C242.07377828 82.4190585 249.35891038 82.45419799 256.64413929 82.51141834 C262.99432265 82.56127078 269.34431024 82.5935161 275.69468385 82.60466355 C279.05695477 82.61117942 282.41866563 82.62648048 285.78075695 82.66287136 C289.53519974 82.69908263 293.28847621 82.70416941 297.04306507 82.70184803 C298.15652805 82.71982441 299.26999104 82.73780079 300.41719532 82.75632191 C306.59457843 82.75973595 306.59457843 82.75973595 311.85332203 79.7484026 C313.58898255 77.31524545 315.09916131 75.0084126 316.4056139 72.32172108 C316.80135609 71.53152576 317.19709827 70.74133045 317.60483265 69.92718983 C320.48957152 62.69003792 321.07650894 56.10123861 321.0306139 48.38422108 C321.02569935 47.41210682 321.0207848 46.43999256 321.01572132 45.4384203 C320.82317656 33.62308372 318.70629503 24.16615046 310.94909763 15.05686283 C308.26496767 12.74370372 307.13505689 12.63871509 303.6434679 12.65320301 C302.61985661 12.64770435 301.59624531 12.6422057 300.54161549 12.63654041 C299.42455723 12.65092152 298.30749897 12.66530262 297.15659046 12.68011951 C295.97582432 12.67953541 294.79505817 12.6789513 293.57851124 12.67834949 C290.34510286 12.68065773 287.11238815 12.70070857 283.87911797 12.72864532 C280.49855601 12.75366139 277.11798021 12.75600112 273.73733997 12.76074696 C267.33767658 12.77317621 260.93828672 12.80599685 254.53874373 12.84614491 C247.2522503 12.89086442 239.96574376 12.91285006 232.67914724 12.93292665 C217.69198376 12.97472975 202.70507619 13.04508054 187.7181139 13.13422108 Z M144.7181139 95.13422108 C144.7181139 105.03422108 144.7181139 114.93422108 144.7181139 125.13422108 C147.0281139 123.15422108 149.3381139 121.17422108 151.7181139 119.13422108 C155.1556139 118.38422108 155.1556139 118.38422108 158.7181139 119.13422108 C161.3581139 121.11422108 163.9981139 123.09422108 166.7181139 125.13422108 C166.7181139 115.23422108 166.7181139 105.33422108 166.7181139 95.13422108 C159.4581139 95.13422108 152.1981139 95.13422108 144.7181139 95.13422108 Z " fill="#202020" transform="translate(103.28188610076904,300.86577892303467)"/>
<path d="M0 0 C1.15967285 0.37737305 2.3193457 0.75474609 3.51416016 1.14355469 C12.66758396 4.24401166 21.77867995 7.46451401 30.88671875 10.6953125 C33.14109585 11.49305056 35.39549071 12.29073844 37.64990234 13.08837891 C58.51120159 20.47687071 79.34005181 27.95519249 100.15066528 35.4851532 C105.62483975 37.46456188 111.10328561 39.43119757 116.58795166 41.38134766 C119.72173905 42.4962565 122.8533284 43.61724978 125.98455811 44.73931885 C127.40036329 45.24487465 128.81721107 45.74752171 130.23516846 46.24700928 C132.14126385 46.91873932 134.04341892 47.60162007 135.9453125 48.28515625 C137.51817017 48.84384399 137.51817017 48.84384399 139.12280273 49.41381836 C141.64798636 50.54731545 143.05150058 51.36685304 144.69921875 53.5703125 C145.26171875 57.0078125 145.26171875 57.0078125 144.69921875 60.5703125 C138.69921875 64.5703125 138.69921875 64.5703125 124.69921875 69.5703125 C124.36921875 101.5803125 124.03921875 133.5903125 123.69921875 166.5703125 C125.34921875 166.9003125 126.99921875 167.2303125 128.69921875 167.5703125 C134.14404031 171.10047153 138.00557181 175.21913648 139.69921875 181.5703125 C140.58445072 188.94351043 139.85752327 195.30236961 135.69921875 201.5703125 C131.30465249 206.52883036 126.82232486 209.16434513 120.16015625 209.8203125 C113.79478378 210.10087988 108.86846547 209.45007536 103.69921875 205.5703125 C99.42285951 201.4653886 96.03153644 197.41075423 95.328125 191.3984375 C95.18638884 183.76135989 95.38150232 178.31844462 100.69921875 172.5703125 C103.82893579 169.38456472 106.25738016 167.68077215 110.69921875 166.5703125 C110.69921875 136.2103125 110.69921875 105.8503125 110.69921875 74.5703125 C98.32421875 79.0253125 98.32421875 79.0253125 85.69921875 83.5703125 C85.6734375 87.62957031 85.64765625 91.68882812 85.62109375 95.87109375 C85.58935094 99.13646653 85.55369704 102.40174529 85.51542664 105.66704559 C85.47627366 109.09811776 85.443787 112.52893794 85.42822266 115.96020508 C85.40998423 119.90999379 85.35994589 123.85909183 85.30859375 127.80859375 C85.30736511 129.02049881 85.30613647 130.23240387 85.30487061 131.48103333 C85.14521826 140.87601935 83.65895508 149.32160679 77.57421875 156.7578125 C62.2872875 170.52449644 36.40993445 174.78125664 16.69921875 177.5703125 C15.77753906 177.70179688 14.85585938 177.83328125 13.90625 177.96875 C-15.8237612 181.37963501 -45.8238835 175.9379671 -73.30078125 164.5703125 C-74.28046875 164.17070312 -75.26015625 163.77109375 -76.26953125 163.359375 C-83.91151453 159.92968973 -89.38168762 154.73657747 -92.65129089 146.91497803 C-94.11898594 141.61658686 -93.78563337 136.00117175 -93.8125 130.54296875 C-93.82936724 129.18532203 -93.84752021 127.82769073 -93.86689758 126.47007751 C-93.91418248 122.91756003 -93.94413007 119.36510509 -93.97033691 115.81237793 C-94.00025187 112.17882947 -94.04674427 108.54549609 -94.09179688 104.91210938 C-94.17758454 97.79830062 -94.24503814 90.68442533 -94.30078125 83.5703125 C-94.99347107 83.32863342 -95.68616089 83.08695435 -96.39984131 82.83795166 C-102.93663363 80.55497095 -109.46945252 78.26094068 -115.99801254 75.95453262 C-119.35432265 74.76925262 -122.71201043 73.58824997 -126.07324219 72.41699219 C-129.94009485 71.06933463 -133.80017456 69.7031518 -137.66015625 68.3359375 C-138.86444275 67.91910706 -140.06872925 67.50227661 -141.30950928 67.07281494 C-142.43036926 66.67270203 -143.55122925 66.27258911 -144.70605469 65.86035156 C-145.69200623 65.51393616 -146.67795776 65.16752075 -147.69378662 64.81060791 C-150.59268561 63.43143702 -152.29451156 62.06993563 -154.30078125 59.5703125 C-154.55078125 56.0703125 -154.55078125 56.0703125 -153.30078125 52.5703125 C-147.20154821 49.02588919 -140.665972 46.76728213 -134.02734375 44.4375 C-132.3831546 43.85332054 -132.3831546 43.85332054 -130.70574951 43.25733948 C-128.34488823 42.41915157 -125.98320632 41.58327217 -123.62078857 40.7494812 C-119.87528045 39.42748803 -116.1318402 38.09974665 -112.38916016 36.76977539 C-111.11142333 36.31580087 -109.83368284 35.86183668 -108.55593872 35.40788269 C-107.91965672 35.18182028 -107.28337471 34.95575787 -106.62781143 34.72284508 C-104.68270996 34.03206788 -102.73737165 33.34196167 -100.79196167 32.65205383 C-88.07328273 28.14087067 -75.37214509 23.58138343 -62.67578125 19.0078125 C-61.64203369 18.63574677 -60.60828613 18.26368103 -59.54321289 17.88034058 C-45.59829909 12.86074966 -31.66668238 7.80659166 -17.77099609 2.65209961 C-16.14991943 2.0528064 -16.14991943 2.0528064 -14.49609375 1.44140625 C-13.57844238 1.10036865 -12.66079102 0.75933105 -11.71533203 0.40795898 C-10.91853027 0.13153564 -10.12172852 -0.1448877 -9.30078125 -0.4296875 C-8.64295654 -0.66276611 -7.98513184 -0.89584473 -7.30737305 -1.13598633 C-4.52891556 -1.54266407 -2.67076937 -0.86936338 0 0 Z M-11.10302734 14.19995117 C-12.08587204 14.55887955 -13.06871674 14.91780792 -14.0813446 15.28761292 C-15.15149307 15.68383347 -16.22164154 16.08005402 -17.32421875 16.48828125 C-18.44081375 16.89711044 -19.55740875 17.30593964 -20.70783997 17.72715759 C-23.73690727 18.83663235 -26.76449115 19.9500528 -29.79162216 21.06479645 C-34.83140122 22.91848694 -39.8758356 24.75950551 -44.91982841 26.6016922 C-46.18419386 27.06348715 -47.44850258 27.52543746 -48.7127552 27.9875412 C-59.61042892 31.97016511 -70.5344601 35.87015908 -81.48828125 39.6953125 C-82.95396346 40.20826289 -84.41962137 40.72128271 -85.88525391 41.234375 C-90.72696678 42.92823801 -95.56959492 44.61947374 -100.41387939 46.30596924 C-104.50339058 47.7296972 -108.59074136 49.15927035 -112.67471313 50.59881592 C-114.49636315 51.23869734 -116.32077718 51.87069298 -118.14526367 52.50244141 C-119.21236572 52.87933105 -120.27946777 53.2562207 -121.37890625 53.64453125 C-122.3112207 53.97026123 -123.24353516 54.29599121 -124.20410156 54.6315918 C-126.46969886 55.38014983 -126.46969886 55.38014983 -127.30078125 57.5703125 C-112.08191901 63.0796281 -96.86044128 68.58167862 -81.62339783 74.0405426 C-79.37850615 74.84485684 -77.1338484 75.64982422 -74.88941956 76.45542908 C-69.16608812 78.50848662 -63.43884985 80.54914855 -57.70288086 82.56665039 C-47.85155472 86.04455547 -38.08188911 89.54388672 -28.5234375 93.76953125 C-15.97058295 99.24215536 -5.58371556 103.52769377 8.01171875 98.6328125 C11.43389568 97.22740155 14.79089057 95.72888943 18.14404297 94.16601562 C21.7860682 92.53133104 25.47087449 91.1255126 29.234375 89.8046875 C29.89875076 89.57149811 30.56312653 89.33830872 31.24763489 89.09805298 C32.64064652 88.61053442 34.03392806 88.12378648 35.42745972 87.63775635 C39.15698562 86.32620596 42.86835651 84.9650168 46.58203125 83.609375 C59.78412438 78.80317089 73.00388297 74.04581248 86.22125244 69.28182983 C92.39241946 67.05748029 98.56313286 64.83187292 104.73389053 62.60638809 C109.38895485 60.92757121 114.04409416 59.24896224 118.69921875 57.5703125 C116.54986934 55.42096309 115.27205826 54.90268169 112.44799805 53.90063477 C111.55617828 53.5810228 110.66435852 53.26141083 109.74551392 52.93211365 C108.7647287 52.58713333 107.78394348 52.24215302 106.7734375 51.88671875 C105.74302338 51.51913956 104.71260925 51.15156036 103.65097046 50.77284241 C100.23138994 49.55426805 96.80905959 48.34361054 93.38671875 47.1328125 C91.00882192 46.28688926 88.63113906 45.44036431 86.25366211 44.59326172 C82.54359 43.27172729 78.83338565 41.95057774 75.12214661 40.63232422 C62.80594993 36.25753042 50.50313264 31.84566306 38.2015686 27.42990112 C34.83144833 26.22033898 31.46107963 25.01147247 28.09057617 23.80297852 C27.03495987 23.42446243 25.97934357 23.04594635 24.89173889 22.65596008 C22.86553631 21.9298438 20.8391261 21.2043066 18.81248474 20.47941589 C14.60443313 18.97392017 10.39843389 17.46416143 6.20263672 15.92480469 C5.54508896 15.68506927 4.8875412 15.44533386 4.21006775 15.19833374 C2.54170535 14.58925768 0.87512562 13.97530423 -0.79125977 13.36083984 C-4.80204926 12.09739628 -7.2746065 12.79088741 -11.10302734 14.19995117 Z M-80.30078125 88.5703125 C-80.40232042 96.00834475 -80.47230558 103.4461978 -80.52050781 110.88476562 C-80.5406053 113.41445597 -80.56788793 115.94409996 -80.60253906 118.47363281 C-80.65113681 122.11274667 -80.67376937 125.7512455 -80.69140625 129.390625 C-80.71205139 130.51896759 -80.73269653 131.64731018 -80.75396729 132.80984497 C-80.7557467 139.05673338 -80.51594985 142.82917907 -76.30078125 147.5703125 C-59.81057392 163.26731998 -23.67000458 166.12326838 -2.2019043 165.85327148 C17.41878311 165.31185497 35.75900096 161.38525535 54.13671875 154.5078125 C55.01884033 154.17958496 55.90096191 153.85135742 56.80981445 153.51318359 C62.60283075 151.25636911 67.16763919 149.32223906 70.31152344 143.67333984 C72.42250266 138.5133304 72.07093664 133.22034658 71.9921875 127.73046875 C71.98794266 126.60837509 71.98369781 125.48628143 71.97932434 124.33018494 C71.96259972 120.76414483 71.92495797 117.19868035 71.88671875 113.6328125 C71.87166392 111.20769048 71.85797692 108.78255956 71.84570312 106.35742188 C71.81271653 100.4281907 71.76257883 94.49929274 71.69921875 88.5703125 C64.65753027 89.96795143 58.10952848 92.05911285 51.375 94.52734375 C49.77920357 95.10460457 49.77920357 95.10460457 48.15116882 95.69352722 C44.76944458 96.91810345 41.39054379 98.15026234 38.01171875 99.3828125 C35.76255699 100.19908369 33.51320954 101.01484345 31.26367188 101.83007812 C29.62276077 102.42524734 29.62276077 102.42524734 27.94869995 103.03244019 C25.79002456 103.8151047 23.63111261 104.59711709 21.47195435 105.37844849 C17.05233616 106.97970523 12.63628284 108.58523288 8.24365234 110.25927734 C7.02629395 110.71641113 5.80893555 111.17354492 4.5546875 111.64453125 C3.07005005 112.21627075 3.07005005 112.21627075 1.55541992 112.79956055 C-6.12834071 114.87303967 -12.08064096 112.55116365 -19.25390625 109.87890625 C-20.30874207 109.49597916 -21.36357788 109.11305206 -22.45037842 108.71852112 C-25.82110047 107.49206551 -29.18590659 106.25020919 -32.55078125 105.0078125 C-34.76655533 104.19885082 -36.98269822 103.39089857 -39.19921875 102.58398438 C-47.49140913 99.55985788 -55.77792815 96.52133143 -64.04101562 93.41845703 C-64.92086121 93.08959 -65.80070679 92.76072296 -66.70721436 92.42189026 C-68.33712701 91.81188419 -69.9655314 91.19782658 -71.59210205 90.57896423 C-74.63070539 89.44311842 -77.02830588 88.5703125 -80.30078125 88.5703125 Z M110.76171875 180.5703125 C108.48045402 183.88851575 107.88648777 185.68111379 108.1484375 189.6328125 C109.19580321 193.31716279 111.53191948 194.69339441 114.69921875 196.5703125 C118.70038392 197.30522039 120.11700849 196.95845268 123.51171875 194.6953125 C126.09188691 192.18886343 126.61639839 191.31569577 127.01171875 187.7578125 C126.62757517 183.839548 125.40665558 182.35737983 122.69921875 179.5703125 C118.35359023 177.39749824 114.6865285 177.8981016 110.76171875 180.5703125 Z " fill="#202020" transform="translate(250.30078125,65.4296875)"/>
</svg>
