<?xml version="1.0" encoding="UTF-8"?>
<svg version="1.1" xmlns="http://www.w3.org/2000/svg" width="512" height="512">
<path d="M0 0 C1.10095505 -0.00788544 1.10095505 -0.00788544 2.22415161 -0.01593018 C4.6405389 -0.02909033 7.05626273 -0.0204066 9.47265625 -0.01025391 C11.15747198 -0.0122758 12.84228686 -0.01518819 14.52709961 -0.01895142 C18.05428417 -0.02336936 21.58124046 -0.01696087 25.10839844 -0.00292969 C29.62446768 0.01416199 34.14000201 0.00431795 38.65605164 -0.01364708 C42.13395196 -0.0244993 45.61172595 -0.021032 49.08963013 -0.0132637 C50.75456811 -0.01126567 52.41951765 -0.01370703 54.08444214 -0.02070236 C56.4133737 -0.02834067 58.74144485 -0.01668019 61.0703125 0 C61.75513702 -0.00607269 62.43996155 -0.01214539 63.14553833 -0.0184021 C67.47463721 0.03889811 70.21902322 0.55941389 73.53515625 3.38818359 C75.20330391 5.84387836 76.46970972 8.44084421 77.7421875 11.11865234 C78.11244553 11.86907303 78.48270355 12.61949371 78.86418152 13.39265442 C80.03869377 15.78072627 81.19331819 18.17780535 82.34765625 20.57568359 C83.14258522 22.20066669 83.93879532 23.82502373 84.73632812 25.44873047 C86.68418748 29.42144837 88.61427225 33.40235721 90.53515625 37.38818359 C91.1134638 37.38872836 91.69177135 37.38927313 92.28760338 37.3898344 C106.39466195 37.40483736 120.50141528 37.44742552 134.60829735 37.52027416 C141.43046986 37.55484713 148.25244193 37.58026951 155.07470703 37.58374023 C161.66254113 37.58711789 168.24993253 37.61653821 174.83763504 37.66161537 C177.34690032 37.67457268 179.8562259 37.67890437 182.36552048 37.67433739 C185.88924827 37.66941924 189.4115112 37.69558129 192.93505859 37.72875977 C194.48010574 37.7158213 194.48010574 37.7158213 196.05636597 37.70262146 C203.12459393 37.81367982 208.66321266 39.34382119 214.53515625 43.38818359 C220.465671 49.62736925 222.8385736 55.4536608 222.80931091 64.06610107 C222.81454759 64.83173095 222.81978427 65.59736083 222.82517964 66.38619161 C222.84016296 68.94778109 222.84088442 71.50917051 222.84155273 74.07080078 C222.8491754 75.90913225 222.85760308 77.74746053 222.86677551 79.58578491 C222.8887182 84.57767562 222.89751924 89.56950507 222.90260196 94.56143856 C222.90624613 97.68174655 222.91248655 100.80203851 222.91960335 103.92234039 C222.94409811 114.81265467 222.95714957 125.70292131 222.96069336 136.59326172 C222.96432751 146.73675959 222.99421423 156.87995467 223.03609794 167.02336001 C223.0708167 175.73776495 223.08624208 184.45206963 223.08693939 193.16654325 C223.08773173 198.36869079 223.09645069 203.57052995 223.12493706 208.7726059 C223.15114437 213.66798234 223.15330795 218.56279532 223.13728142 223.45820999 C223.13546899 225.25083522 223.142139 227.04349304 223.15810013 228.83604813 C223.2434631 239.04893652 223.24857067 247.51753397 215.7308569 255.24213791 C206.95895174 263.43386243 196.32061408 262.53558516 185.00480652 262.52189636 C183.61995851 262.523766 182.23511102 262.52606731 180.85026437 262.52876168 C177.05445109 262.53486716 173.25865989 262.53474757 169.46284282 262.53356731 C165.36525502 262.53336299 161.26767424 262.53888506 157.17008972 262.54362488 C149.14586795 262.55192503 141.12165352 262.55467943 133.09742781 262.55523726 C126.57403297 262.5557127 120.05064055 262.55776887 113.52724648 262.56093788 C95.02584937 262.56974259 76.52445807 262.57435752 58.02305885 262.57360741 C57.0260134 262.57356745 56.02896794 262.5735275 55.00170898 262.57348633 C54.00344404 262.57344545 53.00517909 262.57340457 51.97666369 262.57336245 C35.79813864 262.57295599 19.61963687 262.58252594 3.44111856 262.59662469 C-13.17711536 262.6109922 -29.79533793 262.61789468 -46.41357821 262.61703092 C-55.74095212 262.61669909 -65.06830163 262.61944015 -74.39566994 262.63020897 C-82.33694819 262.63931886 -90.27819098 262.64148518 -98.21947221 262.63469955 C-102.26929242 262.63143687 -106.31904461 262.63136855 -110.36885834 262.6400528 C-114.08047546 262.64792982 -117.79197075 262.64647414 -121.50358494 262.63776866 C-123.47322654 262.6355137 -125.44287195 262.64305287 -127.41249877 262.65100831 C-138.39452132 262.60842529 -147.21669736 262.1017279 -155.46484375 254.38818359 C-160.55704473 248.89396675 -161.76404771 244.08229959 -161.73899841 236.71699524 C-161.74423509 235.95207093 -161.74947177 235.18714662 -161.75486714 234.39904279 C-161.76985049 231.83978724 -161.77057192 229.28073192 -161.77124023 226.72143555 C-161.77886296 224.8847266 -161.78729066 223.04802084 -161.79646301 221.21131897 C-161.81840662 216.22349321 -161.82720701 211.23572877 -161.83228946 206.24786019 C-161.83593389 203.12955452 -161.84217448 200.01126488 -161.84929085 196.89296532 C-161.8737871 186.00798208 -161.88683714 175.1230465 -161.89038086 164.23803711 C-161.89401388 154.10251147 -161.92389216 143.96728907 -161.96578544 133.83185607 C-162.00051801 125.12253101 -162.01592983 116.41330627 -162.01662689 107.70391244 C-162.01741884 102.50564524 -162.02611951 97.3076868 -162.05462456 92.10949135 C-162.08085517 87.21657412 -162.08298249 82.3242205 -162.06696892 77.43126488 C-162.06515827 75.64067223 -162.07181033 73.85004681 -162.08778763 72.05952454 C-162.24046762 53.83002951 -162.24046762 53.83002951 -156.46484375 46.38818359 C-151.24133902 41.49054344 -145.85691029 38.15814214 -138.53569031 38.10971069 C-137.56960342 38.09854721 -136.60351654 38.08738373 -135.6081543 38.07588196 C-134.56014648 38.07372177 -133.51213867 38.07156158 -132.43237305 38.06933594 C-131.31973587 38.05929031 -130.20709869 38.04924469 -129.06074524 38.03889465 C-125.3868562 38.00802921 -121.71304015 37.9910179 -118.0390625 37.97412109 C-115.49029409 37.95541218 -112.9415319 37.93583898 -110.39277649 37.91543579 C-104.37225296 37.86932726 -98.35173638 37.83192953 -92.33113271 37.79876292 C-85.47498275 37.76050648 -78.61892717 37.71110559 -71.76285684 37.66077876 C-57.6635892 37.55753256 -43.56426073 37.46824846 -29.46484375 37.38818359 C-28.97604736 36.37393311 -28.48725098 35.35968262 -27.98364258 34.31469727 C-26.16221767 30.54491603 -24.32212304 26.78450753 -22.47631836 23.02661133 C-21.68084675 21.40051899 -20.89042471 19.77194613 -20.10522461 18.14086914 C-18.97405138 15.79338061 -17.82486968 13.45548503 -16.671875 11.11865234 C-16.32582718 10.3904277 -15.97977936 9.66220306 -15.62324524 8.91191101 C-12.00985221 1.67950554 -8.06244886 -0.0714939 0 0 Z M-2.46484375 14.38818359 C-4.09396507 17.44850818 -5.71740075 20.51181397 -7.33984375 23.57568359 C-7.80003906 24.44 -8.26023438 25.30431641 -8.734375 26.19482422 C-9.17910156 27.0359375 -9.62382812 27.87705078 -10.08203125 28.74365234 C-10.49050293 29.51346436 -10.89897461 30.28327637 -11.31982422 31.07641602 C-12.49740432 33.45392262 -13.47948664 35.92479083 -14.46484375 38.38818359 C15.23515625 38.38818359 44.93515625 38.38818359 75.53515625 38.38818359 C69.92159088 26.18137005 69.92159088 26.18137005 63.53515625 14.38818359 C60.58059977 13.66137709 60.58059977 13.66137709 57.13598633 13.82055664 C56.49181259 13.81982651 55.84763885 13.81909637 55.1839447 13.81834412 C53.05666606 13.82182518 50.93158298 13.86070276 48.8046875 13.89990234 C47.32925106 13.90922882 45.85379913 13.91634572 44.37834167 13.92134094 C40.49648219 13.94042435 36.61555941 13.98953488 32.73406982 14.04486084 C28.77271192 14.09602547 24.81120252 14.11884891 20.84960938 14.14404297 C13.07769813 14.19765391 5.30655848 14.28298089 -2.46484375 14.38818359 Z M-142.46484375 52.38818359 C-141.06761265 56.08631716 -139.3991968 59.48414357 -137.48046875 62.93896484 C-136.88169922 64.01855469 -136.28292969 65.09814453 -135.66601562 66.21044922 C-135.02212891 67.36222656 -134.37824219 68.51400391 -133.71484375 69.70068359 C-133.38492432 70.29244385 -133.05500488 70.8842041 -132.71508789 71.49389648 C-127.87636574 80.17050708 -122.96206408 88.80168994 -117.96484375 97.38818359 C-117.41473633 98.3347583 -116.86462891 99.28133301 -116.29785156 100.2565918 C-113.51290786 105.01230857 -110.67101964 109.73087582 -107.76171875 114.41162109 C-107.20838867 115.30284668 -106.65505859 116.19407227 -106.08496094 117.11230469 C-103.22385363 121.13147924 -100.1361635 122.83107701 -95.46484375 124.38818359 C-94.0686848 124.47644175 -92.66867432 124.51017593 -91.26972961 124.50843811 C-90.41577606 124.50981277 -89.56182251 124.51118744 -88.68199158 124.51260376 C-87.74835281 124.50900848 -86.81471405 124.50541321 -85.8527832 124.50170898 C-84.8672345 124.50185501 -83.88168579 124.50200104 -82.86627197 124.50215149 C-79.60353405 124.50145394 -76.34085297 124.49366887 -73.078125 124.48583984 C-70.81796805 124.4839751 -68.5578107 124.48255147 -66.2976532 124.48155212 C-60.34478645 124.47773135 -54.39194404 124.46790479 -48.43908691 124.45684814 C-42.36629567 124.44662459 -36.29350049 124.44205248 -30.22070312 124.43701172 C-18.30207263 124.42628216 -6.38346021 124.40921098 5.53515625 124.38818359 C5.60863281 122.79876953 5.60863281 122.79876953 5.68359375 121.17724609 C5.75862334 119.78919862 5.8341711 118.40117909 5.91015625 117.01318359 C5.94109375 116.31451172 5.97203125 115.61583984 6.00390625 114.89599609 C6.30859375 109.61474609 6.30859375 109.61474609 8.53515625 107.38818359 C10.43261719 107.13421631 10.43261719 107.13421631 12.76953125 107.12939453 C13.64383789 107.12309021 14.51814453 107.11678589 15.41894531 107.11029053 C16.83771973 107.11636322 16.83771973 107.11636322 18.28515625 107.12255859 C19.25420898 107.12064514 20.22326172 107.11873169 21.22167969 107.11676025 C23.2727891 107.1153978 25.32390711 107.11909841 27.375 107.12744141 C30.52233164 107.13814 33.66909245 107.12754806 36.81640625 107.11474609 C38.80599085 107.11606768 40.79557509 107.11863005 42.78515625 107.12255859 C43.73100586 107.11851013 44.67685547 107.11446167 45.65136719 107.11029053 C46.52567383 107.11659485 47.39998047 107.12289917 48.30078125 107.12939453 C49.45755371 107.13178131 49.45755371 107.13178131 50.63769531 107.13421631 C52.53515625 107.38818359 52.53515625 107.38818359 54.53515625 109.38818359 C54.84114688 111.95735017 55.04602712 114.43576744 55.16015625 117.01318359 C55.19882812 117.71958984 55.2375 118.42599609 55.27734375 119.15380859 C55.37163349 120.89816884 55.45448516 122.6431405 55.53515625 124.38818359 C68.56569373 124.48095833 81.59615234 124.55198684 94.62695312 124.59543228 C100.67801601 124.61628636 106.72885253 124.64456478 112.77978516 124.68994141 C118.62179788 124.73347601 124.46359317 124.75733709 130.30575562 124.76769257 C132.53204774 124.7750702 134.75832828 124.78947699 136.98452759 124.81110382 C140.10843406 124.84023833 143.23144778 124.8441353 146.35546875 124.84228516 C147.72896233 124.86385681 147.72896233 124.86385681 149.13020325 124.88586426 C155.08949703 124.8477984 159.54660747 123.73664892 164.53515625 120.38818359 C166.66923156 118.30451564 166.66923156 118.30451564 168.125 115.86474609 C168.69460449 114.98334961 169.26420898 114.10195312 169.85107422 113.19384766 C172.70564417 108.43816226 175.43849812 103.63070334 178.09765625 98.76318359 C184.10433371 87.89761183 190.29143408 77.15071232 196.57421875 66.44287109 C197.0837207 65.57243164 197.59322266 64.70199219 198.11816406 63.80517578 C199.0140107 62.27711209 199.91388704 60.75139746 200.81933594 59.22900391 C202.86339593 56.02601075 202.86339593 56.02601075 203.53515625 52.38818359 C200.38072405 51.33670619 198.17641294 51.26286445 194.86448669 51.26234245 C193.67600915 51.25973471 192.4875316 51.25712696 191.26303959 51.25444019 C189.29483328 51.25778627 189.29483328 51.25778627 187.28686523 51.26119995 C185.88398161 51.26004839 184.48109829 51.25846062 183.0782156 51.25647271 C179.21424225 51.25228425 175.35029348 51.25436791 171.48632002 51.25745893 C167.32267557 51.25971475 163.15903545 51.25623249 158.99539185 51.253479 C150.83527247 51.24902429 142.67516228 51.24999645 134.51504254 51.25289164 C127.88518018 51.25514684 121.2553204 51.25545769 114.62545776 51.25436783 C113.68310758 51.2542146 112.7407574 51.25406136 111.76985115 51.25390349 C109.85569294 51.25358377 107.94153474 51.25325956 106.02737653 51.25293089 C88.06366472 51.25007698 70.09995801 51.25336175 52.13624704 51.25873126 C36.71094599 51.26319922 21.28565247 51.26242326 5.86035156 51.2578125 C-12.03756172 51.25246518 -29.93547054 51.25035166 -47.83338451 51.25342476 C-49.7406381 51.25374332 -51.64789168 51.25405769 -53.55514526 51.25436783 C-54.49363566 51.2545221 -55.43212605 51.25467638 -56.39905554 51.25483533 C-63.02361665 51.25570001 -69.64817493 51.25423865 -76.2727356 51.25188828 C-84.34203009 51.24908834 -92.41131485 51.24983266 -100.48060822 51.25516902 C-104.60039827 51.2578034 -108.72017207 51.25881552 -112.83996201 51.25551987 C-116.60747172 51.25255153 -120.37495004 51.25415877 -124.14245689 51.25949742 C-126.15921365 51.26115288 -128.17597257 51.25786881 -130.19272709 51.25444019 C-131.38120463 51.25704794 -132.56968218 51.25965568 -133.79417419 51.26234245 C-134.82424811 51.26250481 -135.85432203 51.26266716 -136.91561031 51.26283443 C-139.58769785 51.27954915 -139.58769785 51.27954915 -142.46484375 52.38818359 Z M-148.46484375 71.38818359 C-148.5349013 93.3366702 -148.58781598 115.2851384 -148.62028027 137.2337141 C-148.63575414 147.42464623 -148.65685362 157.61550892 -148.69116211 167.80639648 C-148.72104851 176.68798869 -148.74041497 185.56953061 -148.74710923 194.4511717 C-148.75102277 199.1546519 -148.76023098 203.85798822 -148.78203392 208.56142235 C-148.80238705 212.98793561 -148.80867992 217.41424563 -148.80416679 221.84080124 C-148.80499252 223.46578259 -148.8109652 225.09077069 -148.82246017 226.71571159 C-148.83738626 228.93439673 -148.8337974 231.15231456 -148.8256073 233.37101746 C-148.82837268 234.61267261 -148.83113806 235.85432775 -148.83398724 237.13360882 C-148.42260778 240.76055942 -147.7291967 242.54321124 -145.46484375 245.38818359 C-141.71216586 248.09651581 -139.12060716 248.76354172 -134.52243042 248.76570702 C-133.32423738 248.77353026 -132.12604435 248.7813535 -130.89154243 248.78941381 C-129.57881292 248.78272164 -128.26608341 248.77602948 -126.91357422 248.76913452 C-125.502137 248.77259131 -124.09070247 248.77735602 -122.67927361 248.78331625 C-118.80081177 248.79585309 -114.92257107 248.78964374 -111.04410839 248.7803576 C-106.86136048 248.77357841 -102.67865096 248.78404272 -98.49591064 248.79229736 C-90.30194936 248.80564898 -82.10807043 248.8027506 -73.91410589 248.79405944 C-67.25569831 248.78728892 -60.59731384 248.78636344 -53.93890381 248.78963089 C-52.51832509 248.79032044 -52.51832509 248.79032044 -51.06904781 248.79102392 C-49.14523013 248.79198308 -47.22141245 248.79295572 -45.29759479 248.79394169 C-27.25081841 248.80249977 -9.20408772 248.7926549 8.84268117 248.77654059 C24.33329471 248.76313703 39.8238408 248.76546501 55.31445312 248.77929688 C73.29591165 248.79534531 91.2773301 248.80167576 109.25879478 248.79246008 C111.17560195 248.79150442 113.09240913 248.79056131 115.00921631 248.78963089 C115.95236352 248.78916806 116.89551073 248.78870524 117.86723816 248.78822839 C124.5189441 248.78563629 131.17062466 248.79001423 137.82232666 248.79706955 C145.92667816 248.80547657 154.03094246 248.80322125 162.13528395 248.78722732 C166.2715812 248.77933382 170.407733 248.7762713 174.54402924 248.78617477 C178.32892505 248.79509995 182.11354028 248.79022501 185.89841056 248.77424212 C187.91955895 248.76929207 189.94072675 248.7791103 191.96185493 248.78941381 C193.16004797 248.78159057 194.358241 248.77376733 195.59274292 248.76570702 C196.62704878 248.76521996 197.66135464 248.7647329 198.7270031 248.76423109 C203.01746865 248.18968307 205.65102832 246.49901727 208.32510853 243.13925648 C209.83618673 239.70378348 209.90427759 237.12366653 209.8959198 233.37101746 C209.89848307 232.67662498 209.90104635 231.98223251 209.9036873 231.26679784 C209.90861763 228.94658847 209.89214536 226.62703391 209.87573242 224.30688477 C209.87488598 222.64114396 209.87536162 220.97540203 209.87705994 219.30966187 C209.87792066 214.79140885 209.86028233 210.27339477 209.83933806 205.75519729 C209.82058423 201.03198568 209.81882184 196.3087686 209.81526184 191.58552551 C209.80593758 182.64310746 209.78131862 173.70079943 209.75121337 164.75842983 C209.71768125 154.57714462 209.70118634 144.39585416 209.68612707 134.21452749 C209.65476942 113.27235145 209.60200147 92.33027445 209.53515625 71.38818359 C206.88130005 74.65454499 204.59974123 77.80969838 202.57421875 81.50146484 C202.02717285 82.49098145 201.48012695 83.48049805 200.91650391 84.5 C200.04711182 86.08433838 200.04711182 86.08433838 199.16015625 87.70068359 C197.91140519 89.94486859 196.66136941 92.18833912 195.41015625 94.43115234 C193.48659347 97.88416084 191.56338765 101.33734228 189.64453125 104.79296875 C187.83215242 108.04220989 185.99882729 111.27876433 184.16015625 114.51318359 C183.61439941 115.5010083 183.06864258 116.48883301 182.50634766 117.5065918 C177.24819876 126.68417787 170.76653372 133.11836193 160.53515625 136.38818359 C155.2350624 137.50574039 150.06494251 137.55954256 144.67431641 137.59350586 C143.69808319 137.60340546 142.72184998 137.61330505 141.71603394 137.62350464 C138.50211987 137.65499101 135.28819105 137.67982608 132.07421875 137.70458984 C129.84076563 137.72517048 127.60731631 137.74616724 125.37387085 137.76756287 C119.50493451 137.82266889 113.63596369 137.87212865 107.76696777 137.92041016 C101.77430159 137.97070904 95.78168527 138.02635128 89.7890625 138.08154297 C78.03780305 138.18898422 66.28650025 138.29046021 54.53515625 138.38818359 C54.26879364 138.93967072 54.00243103 139.49115784 53.72799683 140.05935669 C53.37415924 140.78162445 53.02032166 141.50389221 52.65576172 142.24804688 C52.30689911 142.964534 51.9580365 143.68102112 51.59860229 144.41921997 C49.02301287 149.1879075 44.50504758 152.35846767 39.78515625 154.82568359 C31.0165775 156.34332222 23.23724977 156.28259214 15.69921875 151.13427734 C12.28081083 148.48753534 10.33375288 146.15614977 8.43041992 142.26391602 C8.07429123 141.53935715 7.71816254 140.81479828 7.35124207 140.06828308 C7.08193375 139.51385025 6.81262543 138.95941742 6.53515625 138.38818359 C5.30233414 138.38009674 4.06951202 138.37200989 2.79933167 138.36367798 C-8.83842634 138.28607736 -20.47606945 138.19830308 -32.11367702 138.10065651 C-38.09618768 138.05078421 -44.07868146 138.00445339 -50.0612793 137.96630859 C-55.83852499 137.92934127 -61.61562624 137.88295033 -67.39274788 137.83012009 C-69.59303304 137.8116369 -71.79334909 137.7965067 -73.99368095 137.78483963 C-77.0837459 137.76787302 -80.17348441 137.73881309 -83.26342773 137.70703125 C-84.1661441 137.70487106 -85.06886047 137.70271088 -85.99893188 137.70048523 C-96.00738038 137.56962227 -105.60967455 135.83629106 -113.17504883 128.796875 C-118.34405803 123.03727751 -121.89285928 116.69030676 -125.52734375 109.88818359 C-126.82832988 107.4935168 -128.1370375 105.10309295 -129.4453125 102.71240234 C-129.77488953 102.10800827 -130.10446655 101.5036142 -130.44403076 100.88090515 C-133.97126268 94.42613944 -137.63755275 88.05654797 -141.33984375 81.70068359 C-141.94062744 80.66169922 -142.54141113 79.62271484 -143.16040039 78.55224609 C-143.71203857 77.60736328 -144.26367676 76.66248047 -144.83203125 75.68896484 C-145.31784668 74.85534424 -145.80366211 74.02172363 -146.30419922 73.1628418 C-146.68721191 72.57720459 -147.07022461 71.99156738 -147.46484375 71.38818359 C-147.79484375 71.38818359 -148.12484375 71.38818359 -148.46484375 71.38818359 Z M18.53515625 119.38818359 C18.45265625 121.73943359 18.37015625 124.09068359 18.28515625 126.51318359 C18.24874023 127.24166504 18.21232422 127.97014648 18.17480469 128.72070312 C18.08957503 133.78911831 19.37899322 136.50367525 22.53515625 140.38818359 C25.27533701 142.55148419 27.02167776 143.31170807 30.47265625 143.82568359 C35.23649327 143.14513545 38.27466531 141.02149579 41.19921875 137.23193359 C42.89452474 133.62321207 42.86669159 130.46548764 42.72265625 126.57568359 C42.66078125 124.20380859 42.59890625 121.83193359 42.53515625 119.38818359 C34.61515625 119.38818359 26.69515625 119.38818359 18.53515625 119.38818359 Z " fill="#000000" transform="translate(225.46484375,124.61181640625)"/>
</svg>
