<?xml version="1.0" encoding="UTF-8"?>
<svg version="1.1" xmlns="http://www.w3.org/2000/svg" width="512" height="512">
<path d="M0 0 C3.83369047 3.82727962 7.30670422 7.31983548 10.1015625 11.96484375 C14.2861766 18.80636901 17.4888561 23.48951939 25.55053711 25.50756836 C28.13234809 26.02890275 30.71897436 26.51516786 33.30859375 26.99609375 C52.55959207 30.66794629 71.21409221 42.37931526 85.7109375 55.14453125 C86.56300781 55.87542969 87.41507813 56.60632813 88.29296875 57.359375 C115.89800942 81.48728306 132.74046101 115.60983862 135.7109375 152.14453125 C137.74956592 194.76682038 125.02980015 231.27942966 96.5234375 263.08203125 C89.26786245 271.01988493 80.94730113 277.64161195 72.4609375 284.20703125 C64.71540815 290.36567166 58.62656393 297.58182714 53.7109375 306.14453125 C54.81953125 306.098125 55.928125 306.05171875 57.0703125 306.00390625 C58.53382718 305.96638023 59.99737106 305.92998096 61.4609375 305.89453125 C62.19054687 305.86101562 62.92015625 305.8275 63.671875 305.79296875 C67.24027661 305.72808872 69.28106659 305.82938256 72.19921875 307.96875 C74.23224399 310.89483543 74.23064643 312.65505701 73.7109375 316.14453125 C72.5300293 317.80981445 72.5300293 317.80981445 70.7109375 319.14453125 C68.16723633 319.48510742 68.16723633 319.48510742 65.16796875 319.4375 C64.09482422 319.42783203 63.02167969 319.41816406 61.91601562 319.40820312 C60.79646484 319.38306641 59.67691406 319.35792969 58.5234375 319.33203125 C57.39228516 319.31849609 56.26113281 319.30496094 55.09570312 319.29101562 C52.30030433 319.25563083 49.50585858 319.20626073 46.7109375 319.14453125 C46.22570391 321.74770262 45.74625788 324.35159392 45.2734375 326.95703125 C45.13292969 327.72934082 44.99242187 328.50165039 44.84765625 329.29736328 C43.92040452 334.54486454 43.3152763 339.71107855 43.1171875 345.04296875 C42.61097005 347.66167055 41.80555458 348.53404737 39.7109375 350.14453125 C36.88681985 351.0859038 35.18175718 351.26178507 32.26171875 351.2421875 C31.41416016 351.23896484 30.56660156 351.23574219 29.69335938 351.23242188 C28.81228516 351.22404297 27.93121094 351.21566406 27.0234375 351.20703125 C26.13076172 351.20251953 25.23808594 351.19800781 24.31835938 351.19335938 C22.11585677 351.18158129 19.91338865 351.16364606 17.7109375 351.14453125 C17.7109375 356.75453125 17.7109375 362.36453125 17.7109375 368.14453125 C19.36828918 368.13342819 21.02564087 368.12232513 22.73321533 368.11088562 C38.33103711 368.00964916 53.92875714 367.93433247 69.52682877 367.88547039 C77.54650307 367.85968084 85.56593225 367.82451632 93.58544922 367.76733398 C100.57470129 367.71752157 107.56377584 367.68524569 114.55320048 367.67408878 C118.25467701 367.6675662 121.95564568 367.65222182 125.65695953 367.61588097 C129.78748672 367.57565432 133.91712921 367.5745804 138.04785156 367.5769043 C139.27711868 367.55892792 140.5063858 367.54095154 141.77290344 367.52243042 C150.03716439 367.57294071 150.03716439 367.57294071 153.50628662 370.51594543 C154.7109375 373.14453125 154.7109375 373.14453125 154.6484375 375.76953125 C153.62310395 378.36704292 152.90424915 379.44279662 150.7109375 381.14453125 C148.31559277 381.52057874 148.31559277 381.52057874 145.41508484 381.52205467 C144.31020879 381.52987791 143.20533274 381.53770116 142.06697559 381.54576147 C140.84822082 381.5390693 139.62946604 381.53237714 138.3737793 381.52548218 C137.08293017 381.53016215 135.79208105 381.53484212 134.46211529 381.53966391 C130.87170881 381.55222621 127.28154053 381.54597997 123.69113302 381.53670526 C119.82195488 381.52993639 115.95281859 381.54038521 112.08364868 381.54864502 C104.50102702 381.56200775 96.91849427 381.55909335 89.33586907 381.5504071 C83.17510766 381.54364092 77.01437123 381.5427092 70.85360718 381.54597855 C69.97786566 381.54643825 69.10212415 381.54689794 68.19984502 381.54737157 C66.4209748 381.54833072 64.6421046 381.54930336 62.8632344 381.55028935 C46.16994838 381.55885068 29.47671172 381.54899747 12.78343379 381.53288825 C-1.55032668 381.51948439 -15.88401428 381.52181228 -30.21777344 381.53564453 C-46.84999257 381.55168724 -63.4821684 381.55802664 -80.11439419 381.54880774 C-81.88684018 381.54785206 -83.65928617 381.54690895 -85.43173218 381.54597855 C-86.30388392 381.54551572 -87.17603567 381.54505289 -88.07461625 381.54457604 C-94.23030688 381.54198222 -100.38597011 381.54636558 -106.54165649 381.55341721 C-114.04005669 381.56181788 -121.53836263 381.55958235 -129.03675199 381.54357497 C-132.864951 381.53567286 -136.69299268 381.53263346 -140.52119064 381.54252243 C-144.66489975 381.5530648 -148.80820918 381.54050514 -152.9519043 381.52548218 C-154.78003646 381.53552043 -154.78003646 381.53552043 -156.64510059 381.54576147 C-158.30241467 381.5340266 -158.30241467 381.5340266 -159.99320984 381.52205467 C-161.42896126 381.52132409 -161.42896126 381.52132409 -162.89371777 381.52057874 C-165.2890625 381.14453125 -165.2890625 381.14453125 -167.09270954 379.80452979 C-168.98273091 377.18203224 -168.73683736 375.27895525 -168.2890625 372.14453125 C-166.23851788 369.51286637 -165.0491279 368.29102453 -161.73537827 367.65233994 C-160.76565205 367.65602711 -159.79592583 367.65971428 -158.79681396 367.66351318 C-157.68064697 367.65801453 -156.56447998 367.65251587 -155.41448975 367.64685059 C-154.19457336 367.66123169 -152.97465698 367.67561279 -151.71777344 367.69042969 C-150.42971802 367.68984558 -149.1416626 367.68926147 -147.8145752 367.68865967 C-144.28577551 367.68751212 -140.75751982 367.71102722 -137.22884655 367.7389555 C-133.53998257 367.76396278 -129.85110608 367.76631061 -126.16217041 367.77105713 C-119.17815461 367.78348894 -112.1943893 367.81631314 -105.21048379 367.85645509 C-97.25894532 367.90116656 -89.30739489 367.92315823 -81.355762 367.94323683 C-65.00004474 367.98504576 -48.64459546 368.05620741 -32.2890625 368.14453125 C-32.2890625 362.53453125 -32.2890625 356.92453125 -32.2890625 351.14453125 C-33.60261719 351.17933594 -34.91617188 351.21414063 -36.26953125 351.25 C-38.00519551 351.27814591 -39.74087365 351.30544521 -41.4765625 351.33203125 C-42.77303711 351.36973633 -42.77303711 351.36973633 -44.09570312 351.40820312 C-48.94211132 351.46390897 -52.43472935 351.45817639 -56.2890625 348.14453125 C-57.12665853 345.63174315 -57.50795536 343.75272546 -57.75390625 341.16015625 C-57.83189453 340.38929688 -57.90988281 339.6184375 -57.99023438 338.82421875 C-58.14624447 337.22028029 -58.29993784 335.61611459 -58.45117188 334.01171875 C-58.94565291 329.17143281 -59.80741299 324.78166027 -61.2890625 320.14453125 C-61.97009033 320.12994873 -62.65111816 320.11536621 -63.3527832 320.1003418 C-66.43628465 320.02590429 -69.51869817 319.92923042 -72.6015625 319.83203125 C-73.67341797 319.80947266 -74.74527344 319.78691406 -75.84960938 319.76367188 C-76.87763672 319.72822266 -77.90566406 319.69277344 -78.96484375 319.65625 C-80.3866394 319.61697388 -80.3866394 319.61697388 -81.8371582 319.5769043 C-84.67543875 319.07639699 -85.55362123 318.39592389 -87.2890625 316.14453125 C-88.1640625 314.26953125 -88.1640625 314.26953125 -88.2890625 312.14453125 C-86.02752404 307.51376202 -86.02752404 307.51376202 -83.2890625 306.14453125 C-80.74291241 305.91280298 -78.21510025 305.72558596 -75.6640625 305.58203125 C-74.95765625 305.53884766 -74.25125 305.49566406 -73.5234375 305.45117188 C-71.77887713 305.34508374 -70.03399553 305.24430236 -68.2890625 305.14453125 C-75.60014992 294.22090651 -84.03803519 285.17032424 -94.6015625 277.33203125 C-120.76219538 257.9201063 -138.11157921 229.43703396 -146.2890625 198.14453125 C-146.58941406 197.02433594 -146.88976562 195.90414062 -147.19921875 194.75 C-155.247758 158.40055063 -147.87549583 118.54846547 -128.08935547 87.24658203 C-122.32399446 78.4438828 -115.58157629 70.70222736 -108.2890625 63.14453125 C-107.62390625 62.4278125 -106.95875 61.71109375 -106.2734375 60.97265625 C-88.89185633 42.71469283 -65.28806585 31.36720396 -41.15234375 25.1875 C-34.43877772 23.38806196 -31.27197405 21.418336 -27.1015625 15.70703125 C-26.14119638 14.44159414 -25.17759383 13.17860736 -24.2109375 11.91796875 C-23.72689453 11.28600586 -23.24285156 10.65404297 -22.74414062 10.00292969 C-20.53988743 7.18769893 -18.2249112 4.50731484 -15.8515625 1.83203125 C-15.06910156 0.94902344 -14.28664062 0.06601563 -13.48046875 -0.84375 C-8.66650689 -5.26298415 -4.84241721 -3.92516753 0 0 Z M-8.2890625 13.14453125 C-16.56593915 22.01140929 -23.26134173 32.13176463 -29.2265625 42.64453125 C-29.62875 43.35182373 -30.0309375 44.05911621 -30.4453125 44.7878418 C-32.55665604 48.25488287 -32.55665604 48.25488287 -33.2890625 52.14453125 C-15.7990625 52.14453125 1.6909375 52.14453125 19.7109375 52.14453125 C13.80305766 39.82408489 13.80305766 39.82408489 6.7109375 28.70703125 C6.29650391 28.14483887 5.88207031 27.58264648 5.45507812 27.00341797 C1.84711473 22.17576404 -1.86095963 17.24703832 -6.2890625 13.14453125 C-6.9490625 13.14453125 -7.6090625 13.14453125 -8.2890625 13.14453125 Z M-43.2890625 39.14453125 C-79.3603151 50.80035828 -106.13870856 73.10942323 -123.9140625 106.83203125 C-127.8856279 115.00184956 -130.79003651 123.41965377 -133.2890625 132.14453125 C-133.63195312 133.3253125 -133.97484375 134.50609375 -134.328125 135.72265625 C-141.90025944 167.85115192 -135.33828133 203.88149042 -118.24560547 231.85205078 C-113.3137941 239.58809498 -107.6437733 246.53773275 -101.2890625 253.14453125 C-100.45761719 254.02753906 -99.62617188 254.91054688 -98.76953125 255.8203125 C-93.89336099 260.86782695 -88.91994326 265.33281825 -83.3515625 269.58203125 C-70.2446659 279.6512013 -59.60864785 291.15506319 -52.2890625 306.14453125 C-40.71080541 306.46953163 -29.13363979 306.7179657 -17.55174351 306.86990166 C-12.17290761 306.94284424 -6.79720063 307.04167783 -1.42016602 307.20068359 C3.77375297 307.35330541 8.96467294 307.43660372 14.1606617 307.47281265 C16.1381663 307.49859695 18.11551415 307.5489586 20.09173393 307.62475204 C30.29612866 308.39722118 30.29612866 308.39722118 39.41291428 304.76521111 C42.7046504 300.96864716 44.66616988 296.6963887 46.7109375 292.14453125 C53.14739062 282.62834691 61.79618615 275.23047399 70.7109375 268.14453125 C98.96296633 245.56560058 117.81104213 216.13416134 122.33203125 179.6953125 C125.75203003 144.41858669 116.44265015 110.44163776 94.4609375 82.58203125 C76.73637326 61.69346335 55.25549196 46.68334343 28.7109375 39.14453125 C30.18471103 43.59524891 31.66879003 48.04119565 33.2109375 52.46875 C38.44011237 67.59790218 41.68553832 82.28611808 42.02734375 98.3359375 C42.04812485 99.16665268 42.06890594 99.99736786 42.09031677 100.85325623 C42.15498232 103.4711084 42.21430542 106.08904885 42.2734375 108.70703125 C42.31670195 110.49675342 42.36031856 112.28646711 42.40429688 114.07617188 C42.51057674 118.4322044 42.61207008 122.78832444 42.7109375 127.14453125 C43.37625488 127.39050049 44.04157227 127.63646973 44.72705078 127.88989258 C53.33561886 131.1806656 60.23024177 135.20286827 64.2109375 143.89453125 C65.96970272 148.42172321 66.83505189 152.45786061 66.88793945 157.32446289 C66.90719231 158.87110374 66.90719231 158.87110374 66.92683411 160.44898987 C66.93422104 161.55637009 66.94160797 162.66375031 66.94921875 163.8046875 C66.9572905 164.94610703 66.96536224 166.08752655 66.97367859 167.26353455 C66.98749915 169.67510465 66.99823036 172.08669416 67.00610352 174.49829102 C67.02338827 178.19649713 67.06730173 181.89382566 67.11132812 185.59179688 C67.12144902 187.93358717 67.129967 190.27538506 67.13671875 192.6171875 C67.15422684 193.72659195 67.17173492 194.8359964 67.18977356 195.97901917 C67.18538521 197.52093178 67.18538521 197.52093178 67.1809082 199.09399414 C67.18677444 199.9990419 67.19264069 200.90408966 67.19868469 201.83656311 C66.7109375 204.14453125 66.7109375 204.14453125 65.00828552 205.9331665 C62.29982 207.3613087 60.53740551 207.5398411 57.48339844 207.5769043 C56.44262146 207.59669846 55.40184448 207.61649261 54.32952881 207.6368866 C52.65434174 207.64647148 52.65434174 207.64647148 50.9453125 207.65625 C49.79677795 207.6742012 48.64824341 207.6921524 47.46490479 207.71064758 C43.79695302 207.76482466 40.12913195 207.79867094 36.4609375 207.83203125 C33.97394012 207.86519769 31.48696 207.89968671 29 207.93554688 C22.90376302 208.02055551 16.80750928 208.08887421 10.7109375 208.14453125 C11.06027344 208.83160156 11.40960938 209.51867187 11.76953125 210.2265625 C12.22457031 211.12761719 12.67960938 212.02867187 13.1484375 212.95703125 C13.82712891 214.29701172 13.82712891 214.29701172 14.51953125 215.6640625 C17.66057716 222.20361711 17.76440098 229.70253873 16.09765625 236.73046875 C15.1239756 239.31265268 13.98989341 241.69798918 12.7109375 244.14453125 C12.12828125 245.25957031 11.545625 246.37460937 10.9453125 247.5234375 C0.46060673 266.93292297 0.46060673 266.93292297 -5.83984375 268.96875 C-8.2890625 269.14453125 -8.2890625 269.14453125 -11.2890625 268.14453125 C-12.96674052 266.13608545 -14.48114621 264.15743755 -15.9765625 262.01953125 C-16.41355469 261.40005615 -16.85054688 260.78058105 -17.30078125 260.14233398 C-20.40659121 255.64218238 -23.19840483 251.02094643 -25.7890625 246.20703125 C-26.27765747 245.30476807 -26.27765747 245.30476807 -26.77612305 244.38427734 C-31.77062676 234.78262586 -32.33276092 226.79262035 -29.3359375 216.63671875 C-28.0276236 213.52215059 -26.18520902 210.93227822 -24.2890625 208.14453125 C-24.93164001 208.1364444 -25.57421753 208.12835754 -26.23626709 208.12002563 C-32.9197582 208.03401804 -39.60295142 207.93451585 -46.28613281 207.82714844 C-48.78087362 207.78884771 -51.27566986 207.75399679 -53.77050781 207.72265625 C-57.35501935 207.67703001 -60.9391489 207.61903065 -64.5234375 207.55859375 C-65.64022888 207.54704254 -66.75702026 207.53549133 -67.90765381 207.52359009 C-68.94843079 207.5037204 -69.98920776 207.48385071 -71.06152344 207.46337891 C-71.97641541 207.45005524 -72.89130737 207.43673157 -73.83392334 207.42300415 C-76.40736438 207.13111292 -78.06893389 206.44490386 -80.2890625 205.14453125 C-80.39095735 197.49490815 -80.46073536 189.8454618 -80.50878906 182.1953125 C-80.5288338 179.59596211 -80.55607697 176.99665642 -80.59082031 174.39746094 C-80.63965115 170.64897595 -80.66210376 166.90109014 -80.6796875 163.15234375 C-80.70033264 162.00089874 -80.72097778 160.84945374 -80.74224854 159.66311646 C-80.74462414 151.01077878 -79.25251572 143.79850641 -73.99609375 136.76171875 C-70.87152867 133.74085497 -67.8977694 132.04639123 -63.9765625 130.26953125 C-63.33138672 129.96273437 -62.68621094 129.6559375 -62.02148438 129.33984375 C-60.45017549 128.59492695 -58.87044539 127.86781598 -57.2890625 127.14453125 C-57.24942383 125.94666992 -57.20978516 124.74880859 -57.16894531 123.51464844 C-57.01398476 118.96626286 -56.83705959 114.41892806 -56.65429688 109.87158203 C-56.57886828 107.92290349 -56.508989 105.9740003 -56.4453125 104.02490234 C-55.76429875 83.41359544 -53.21403537 62.35622414 -43.54296875 43.79296875 C-42.92228516 42.48199219 -42.92228516 42.48199219 -42.2890625 41.14453125 C-42.7840625 40.15453125 -42.7840625 40.15453125 -43.2890625 39.14453125 Z M-38.2890625 65.14453125 C-43.81047265 81.70876171 -44.44787149 97.83804292 -44.38671875 115.1640625 C-44.38524364 116.58052531 -44.38422645 117.99698868 -44.38366699 119.41345215 C-44.37848004 124.59465364 -44.3645192 129.77584336 -44.3515625 134.95703125 C-44.3309375 146.56890625 -44.3103125 158.18078125 -44.2890625 170.14453125 C-19.8690625 170.14453125 4.5509375 170.14453125 29.7109375 170.14453125 C29.79842774 156.16310374 29.79842774 156.16310374 29.85742188 142.18164062 C29.87524367 136.46565222 29.89615311 130.74981016 29.93725586 125.03393555 C29.97023986 120.41733654 29.9878713 115.80089483 29.99556923 111.18418694 C30.00104364 109.43703681 30.01172979 107.68989371 30.02812767 105.94281197 C30.1559017 91.74368321 28.62394773 78.84006706 24.7109375 65.14453125 C3.9209375 65.14453125 -16.8690625 65.14453125 -38.2890625 65.14453125 Z M-63.75390625 144.46484375 C-68.6670229 149.84051845 -68.69898411 155.26628007 -68.58203125 162.13671875 C-68.57778641 163.082659 -68.57354156 164.02859924 -68.56916809 165.00320435 C-68.55244556 168.00894258 -68.51480513 171.01399745 -68.4765625 174.01953125 C-68.46150736 176.06379236 -68.44782041 178.10806404 -68.43554688 180.15234375 C-68.40256305 185.15000079 -68.35082503 190.14715036 -68.2890625 195.14453125 C-64.6590625 195.14453125 -61.0290625 195.14453125 -57.2890625 195.14453125 C-57.2890625 177.32453125 -57.2890625 159.50453125 -57.2890625 141.14453125 C-60.15865526 141.14453125 -61.57483273 142.75948187 -63.75390625 144.46484375 Z M42.7109375 141.14453125 C42.7109375 158.96453125 42.7109375 176.78453125 42.7109375 195.14453125 C46.6709375 195.14453125 50.6309375 195.14453125 54.7109375 195.14453125 C54.81029629 189.45203666 54.88263673 183.76005407 54.93066406 178.06689453 C54.95069891 176.13288573 54.97793479 174.1989369 55.01269531 172.26513672 C55.06157321 169.47478382 55.08398769 166.68523624 55.1015625 163.89453125 C55.12220764 163.03899658 55.14285278 162.18346191 55.16412354 161.30200195 C55.16651749 154.80257392 53.76901474 149.36399984 49.19244385 144.54589844 C46.34658617 141.92445711 46.34658617 141.92445711 42.7109375 141.14453125 Z M-44.2890625 183.14453125 C-44.2890625 187.10453125 -44.2890625 191.06453125 -44.2890625 195.14453125 C-19.8690625 195.14453125 4.5509375 195.14453125 29.7109375 195.14453125 C29.7109375 191.18453125 29.7109375 187.22453125 29.7109375 183.14453125 C5.2909375 183.14453125 -19.1290625 183.14453125 -44.2890625 183.14453125 Z M-17.2890625 220.14453125 C-19.49615754 223.63909839 -19.60958861 226.69229569 -18.9609375 230.76953125 C-16.73962095 238.62162696 -12.24017539 245.73720868 -7.2890625 252.14453125 C-4.3351814 248.61030707 -1.90475009 245.00639393 0.3984375 241.01953125 C1.00042969 239.98570312 1.60242188 238.951875 2.22265625 237.88671875 C4.8915947 232.96914713 5.38782462 228.64423914 4.7109375 223.14453125 C2.51422105 218.75109835 0.25195761 216.09068273 -4.2890625 214.14453125 C-10.29502581 212.96945147 -13.44603248 215.90708499 -17.2890625 220.14453125 Z M-47.2890625 319.14453125 C-46.2990625 325.41453125 -45.3090625 331.68453125 -44.2890625 338.14453125 C-19.8690625 338.14453125 4.5509375 338.14453125 29.7109375 338.14453125 C31.80174762 328.69944126 31.80174762 328.69944126 32.7109375 319.14453125 C6.3109375 319.14453125 -20.0890625 319.14453125 -47.2890625 319.14453125 Z M-19.2890625 351.14453125 C-19.2890625 356.75453125 -19.2890625 362.36453125 -19.2890625 368.14453125 C-11.3690625 368.14453125 -3.4490625 368.14453125 4.7109375 368.14453125 C4.7109375 362.53453125 4.7109375 356.92453125 4.7109375 351.14453125 C-3.2090625 351.14453125 -11.1290625 351.14453125 -19.2890625 351.14453125 Z " fill="#000000" transform="translate(263.2890625,67.85546875)"/>
<path d="M0 0 C5.17970976 4.73338556 8.52478883 9.97126528 9.3515625 16.98046875 C9.72734027 25.41569075 8.29706097 32.21908766 2.54296875 38.62109375 C-4.26304442 44.67287855 -10.55500807 45.55540587 -19.3671875 45.33984375 C-26.26841759 44.69424481 -30.06703912 42.23481035 -34.8125 37.3125 C-39.34147721 31.7391696 -41.69116836 25.36839645 -41.34375 18.1015625 C-40.02722127 10.05278458 -36.39239678 3.99971774 -30 -1 C-20.73524691 -6.67229781 -8.90374299 -6.33793318 0 0 Z M-25 12 C-27.47964513 15.3061935 -28.25684242 17.93615129 -28.125 22 C-27.37192833 26.16592836 -25.44238554 28.41895129 -22.09765625 30.92578125 C-18.37905739 32.83009165 -15.03109442 33.00228663 -11 32 C-7.9402267 30.25612085 -5.60034311 28.20068621 -4 25 C-3.47500632 21.25004517 -3.19427148 17.58805413 -4.94140625 14.14453125 C-7.49116572 10.90737581 -10.03552101 9.04328394 -14 8 C-18.32534207 8 -21.43499683 9.61344902 -25 12 Z " fill="#000000" transform="translate(272,162)"/>
</svg>
