<?xml version="1.0" encoding="UTF-8"?>
<svg version="1.1" xmlns="http://www.w3.org/2000/svg" width="512" height="512">
<path d="M0 0 C0.70029304 -0.00311998 1.40058608 -0.00623996 2.12210011 -0.00945449 C4.46261022 -0.01741513 6.80285966 -0.01111836 9.14337158 -0.00482178 C10.8240677 -0.0075326 12.50476264 -0.01109404 14.18545532 -0.01544189 C18.74763113 -0.02456011 23.30971649 -0.02102322 27.87189388 -0.01468372 C32.6509672 -0.00961748 37.43003282 -0.01431723 42.20910645 -0.01745605 C50.23896676 -0.02109528 58.26879029 -0.0162992 66.29864502 -0.0067749 C75.56953601 0.00409474 84.84033892 0.00059474 94.11122775 -0.01042771 C102.07828992 -0.01951952 110.04532565 -0.02077617 118.01239133 -0.01555037 C122.76729604 -0.01243917 127.52215944 -0.01199764 132.27706146 -0.01862335 C136.75206725 -0.0244232 141.22696022 -0.02035179 145.70195389 -0.00883484 C147.3397592 -0.00620169 148.97757408 -0.00693022 150.61537552 -0.01136017 C172.49284934 -0.06505406 172.49284934 -0.06505406 180.26934814 7.38677979 C185.41754797 13.17699041 186.06120716 19.41106267 186.02716064 26.86724854 C186.02393799 28.1144165 186.02071533 29.36158447 186.01739502 30.64654541 C186.00901611 31.94011963 186.00063721 33.23369385 185.99200439 34.56646729 C185.98749268 35.87937744 185.98298096 37.1922876 185.97833252 38.54498291 C185.96656389 41.78135739 185.95012199 45.01763906 185.92950439 48.25396729 C186.7002832 48.24349365 187.47106201 48.23302002 188.26519775 48.222229 C191.79909937 48.18033866 195.3329485 48.15453668 198.86700439 48.12896729 C200.07936768 48.11220947 201.29173096 48.09545166 202.54083252 48.07818604 C220.34616675 47.98168016 220.34616675 47.98168016 226.80450439 53.75396729 C227.88344971 54.66662354 227.88344971 54.66662354 228.98419189 55.59771729 C234.27583612 62.82325558 234.36406013 71.62239964 234.31045532 80.25361633 C234.31513529 81.42370646 234.31981527 82.5937966 234.32463706 83.799344 C234.33447764 87.02034265 234.3310109 90.24099751 234.3216784 93.46198714 C234.31485772 96.94601485 234.32538396 100.42999802 234.33361816 103.91401672 C234.34692524 110.72833317 234.34409143 117.54255022 234.33538024 124.35687048 C234.32859271 129.89670424 234.32769159 135.43651024 234.33095169 140.97634697 C234.33141139 141.76614688 234.33187109 142.55594679 234.33234472 143.36968003 C234.33330394 144.97435511 234.33427658 146.57903019 234.33526249 148.18370526 C234.34380738 163.2138034 234.33399614 178.24384655 234.31786139 193.27393567 C234.30445642 206.15996656 234.30678952 219.04591637 234.32061768 231.9319458 C234.33668494 246.91146044 234.34298623 261.89092696 234.33378088 276.87044901 C234.33282528 278.46876712 234.33188216 280.06708524 234.33095169 281.66540337 C234.33048886 282.45172262 234.33002604 283.23804187 234.32954919 284.04818897 C234.32696293 289.57947626 234.33132237 295.11073292 234.33839035 300.64201546 C234.34681819 307.38543157 234.34449819 314.12874297 234.32854812 320.87214715 C234.32068301 324.3102676 234.31754358 327.74821368 234.32749557 331.1863327 C234.33570054 334.91816269 234.3254012 338.64950303 234.31045532 342.38130188 C234.31714749 343.46107632 234.32383965 344.54085076 234.33073461 345.65334564 C234.25792448 355.03473387 232.68718334 362.49628834 225.92950439 369.25396729 C220.17114556 373.3269528 215.0412975 373.40265273 208.15026855 373.40113831 C207.25411386 373.40481499 206.35795917 373.40849168 205.43464828 373.41227978 C202.42544089 373.42331142 199.41626804 373.42715957 196.40704346 373.43096924 C194.25197235 373.43723422 192.09690233 373.44388105 189.9418335 373.45088196 C182.85960644 373.47191838 175.77737918 373.48228308 168.69512939 373.49224854 C166.25724018 373.49629607 163.81935108 373.50041299 161.3814621 373.50459862 C149.9296026 373.52364834 138.47774954 373.53788057 127.02587724 373.54621059 C113.80448327 373.55598649 100.58325657 373.58231628 87.36192155 373.62271148 C77.14353996 373.65286112 66.92520636 373.66767833 56.70678115 373.6709916 C50.60317423 373.67334314 44.49974605 373.68231762 38.39618683 373.70745277 C32.65387394 373.73071854 26.91185768 373.73497258 21.16950989 373.72469139 C19.06363184 373.72419558 16.95773925 373.73052926 14.85190582 373.74424744 C11.97314031 373.76194945 9.09544131 373.75486828 6.2166748 373.74171448 C5.38669739 373.75268372 4.55671998 373.76365297 3.70159173 373.77495462 C-2.88316644 373.70249696 -8.07523418 371.8386813 -13.09393311 367.50787354 C-13.53994873 366.94970947 -13.98596436 366.39154541 -14.44549561 365.81646729 C-14.90697998 365.26088135 -15.36846436 364.70529541 -15.84393311 364.13287354 C-18.93552858 359.39702187 -19.31049187 355.37349788 -19.26580811 349.76568604 C-19.26297821 349.06248734 -19.26014832 348.35928864 -19.25723267 347.63478088 C-19.24609711 345.40349837 -19.22100558 343.17262712 -19.19549561 340.94146729 C-19.18545721 339.4225929 -19.17633286 337.90371218 -19.16815186 336.38482666 C-19.14617974 332.67440807 -19.11169607 328.96422786 -19.07049561 325.25396729 C-19.99797607 325.27491455 -20.92545654 325.29586182 -21.88104248 325.31744385 C-25.35510389 325.38602227 -28.82843572 325.43596055 -32.30291748 325.47369385 C-33.8004295 325.49368647 -35.29786469 325.52089027 -36.79510498 325.5557251 C-53.64291986 325.9376089 -53.64291986 325.9376089 -61.09393311 319.50787354 C-61.53994873 318.94970947 -61.98596436 318.39154541 -62.44549561 317.81646729 C-62.90697998 317.26088135 -63.36846436 316.70529541 -63.84393311 316.13287354 C-67.44122037 310.62237934 -67.36512291 305.56295077 -67.35810852 299.17759705 C-67.36475633 298.15399781 -67.37140414 297.13039857 -67.3782534 296.07578117 C-67.39795934 292.64125338 -67.40332668 289.20685589 -67.40863037 285.77227783 C-67.41952435 283.31164203 -67.43119593 280.85100957 -67.44358826 278.39038086 C-67.47729138 271.00489994 -67.49392015 263.61945858 -67.50771156 256.2339215 C-67.51467827 252.75374596 -67.5238338 249.27357634 -67.53281975 245.79340553 C-67.56201565 234.2218793 -67.58681076 222.65035883 -67.59744358 211.07879925 C-67.59813428 210.33861692 -67.59882497 209.5984346 -67.59953659 208.83582251 C-67.60022861 208.09389474 -67.60092062 207.35196697 -67.60163361 206.58755654 C-67.60304559 205.08418889 -67.6044664 203.58082125 -67.605896 202.07745361 C-67.60660117 201.3317353 -67.60730634 200.58601698 -67.60803287 199.81770114 C-67.62028367 187.73410437 -67.66308267 175.65082129 -67.7188362 163.5673547 C-67.77564101 151.15509249 -67.80609535 138.74298884 -67.81045574 126.33059531 C-67.81353572 119.36392893 -67.82800101 112.39769863 -67.87173653 105.43115807 C-67.91275803 98.87864286 -67.91790924 92.326787 -67.89883614 85.77412415 C-67.89756858 83.36990732 -67.90827111 80.96564976 -67.93185043 78.56154823 C-67.96222392 75.27716642 -67.94934622 71.99566246 -67.92573547 68.71128845 C-67.94476112 67.76137376 -67.96378677 66.81145907 -67.98338896 65.83275908 C-67.875508 59.52393374 -66.27337529 56.38473677 -61.82855374 51.90691727 C-61.24839455 51.36144378 -60.66823537 50.81597028 -60.07049561 50.25396729 C-59.20246307 49.33958893 -58.33443054 48.42521057 -57.44009399 47.48312378 C-56.61800446 46.65420624 -55.79591492 45.8252887 -54.94891357 44.97125244 C-54.48775146 44.50512543 -54.02658936 44.03899841 -53.55145264 43.55874634 C-52.05787665 42.05081892 -50.56066108 40.54658354 -49.06268311 39.04302979 C-48.54578037 38.52329967 -48.02887764 38.00356956 -47.49631119 37.46809006 C-44.76997196 34.72688224 -42.04086711 31.98846567 -39.30926514 29.25250244 C-36.49713485 26.43485176 -33.6944319 23.60801121 -30.89373589 20.77900124 C-28.72658884 18.59322826 -26.55276058 16.41419435 -24.37704849 14.23694992 C-23.34036837 13.19725144 -22.30617988 12.15506213 -21.27459335 11.1103096 C-19.83449381 9.65312252 -18.38518982 8.2057305 -16.93328857 6.76031494 C-16.11279022 5.93617096 -15.29229187 5.11202698 -14.44692993 4.26290894 C-9.88941486 0.41016967 -5.8655552 0.00353244 0 0 Z M-0.07049561 13.25396729 C-0.08080307 13.86118118 -0.09111053 14.46839508 -0.10173035 15.0940094 C-0.20976793 21.40419341 -0.32436827 27.71423383 -0.44281006 34.02423096 C-0.48616769 36.38032024 -0.52784215 38.73644111 -0.56781006 41.09259033 C-0.62549236 44.47590667 -0.68919292 47.85906385 -0.75408936 51.24224854 C-0.7791581 52.82674553 -0.7791581 52.82674553 -0.80473328 54.44325256 C-0.8246785 55.42404282 -0.84462372 56.40483307 -0.86517334 57.41534424 C-0.88071762 58.27916214 -0.8962619 59.14298004 -0.91227722 60.03297424 C-1.07049561 62.25396729 -1.07049561 62.25396729 -2.07049561 65.25396729 C-4.51215731 66.47479814 -6.15740367 66.41127471 -8.88739014 66.45928955 C-10.38871994 66.48920738 -10.38871994 66.48920738 -11.92037964 66.51972961 C-13.54542923 66.54479836 -13.54542923 66.54479836 -15.20330811 66.57037354 C-16.31028046 66.59115463 -17.41725281 66.61193573 -18.55776978 66.63334656 C-22.10361359 66.6988772 -25.64953315 66.75774342 -29.19549561 66.81646729 C-31.59524311 66.85964915 -33.99498288 66.90326333 -36.39471436 66.94732666 C-42.28656073 67.05456216 -48.17848291 67.156322 -54.07049561 67.25396729 C-54.18453133 97.74339863 -54.27302981 128.23279095 -54.32582225 158.72238551 C-54.33207587 162.32104788 -54.33854747 165.91970984 -54.34515381 169.51837158 C-54.34646536 170.23480758 -54.34777691 170.95124357 -54.34912821 171.68938974 C-54.37089138 183.29349261 -54.41031786 194.89747177 -54.45625959 206.50150122 C-54.50299899 218.40619829 -54.53078565 230.31083051 -54.54093808 242.21561557 C-54.54718617 248.90327995 -54.56284632 255.59071898 -54.59914589 262.27829552 C-54.63301901 268.56966265 -54.64356592 274.86063278 -54.63603401 281.15208244 C-54.63741243 283.4640239 -54.64739608 285.77597829 -54.66652298 288.08784103 C-54.6913244 291.23950766 -54.68544706 294.38966658 -54.67176819 297.54136658 C-54.6863324 298.46062996 -54.7008966 299.37989334 -54.71590215 300.32701319 C-54.66387517 304.74812825 -54.51145679 306.66709244 -51.78291607 310.29850483 C-47.02735906 313.72692359 -42.40654819 313.4006126 -36.70213318 313.39440918 C-35.850192 313.3973803 -34.99825081 313.40035142 -34.12049323 313.40341258 C-31.26096263 313.41209586 -28.4014739 313.41360751 -25.54193115 313.4151001 C-23.49361074 313.4197285 -21.4452912 313.42475319 -19.39697266 313.43014526 C-13.8287356 313.4432684 -8.26051061 313.44971397 -2.6922605 313.45415592 C0.78598903 313.45708656 4.26423526 313.46119133 7.74248314 313.4656601 C18.62356498 313.4793343 29.50463929 313.48900155 40.38572913 313.49286199 C52.94942908 313.49734381 65.51302028 313.51489789 78.07668716 313.54386258 C87.78635326 313.56547121 97.49598875 313.57556582 107.20567864 313.5769031 C113.00573066 313.57795164 118.80568045 313.58387002 124.60570717 313.60172272 C130.06153335 313.61818933 135.5171803 313.62036569 140.97302246 313.61158371 C142.97449918 313.6108126 144.97598548 313.6151657 146.97743797 313.62504196 C149.71190263 313.63774312 152.44573073 313.63189458 155.18019104 313.62145996 C155.97028086 313.62951637 156.76037069 313.63757277 157.57440263 313.64587331 C162.73095431 313.59992218 166.39932083 312.79566445 170.92950439 310.25396729 C172.89707892 307.24664697 173.18100663 304.84483058 173.1867733 301.29355717 C173.19644664 299.78663432 173.19644664 299.78663432 173.2063154 298.24926859 C173.20321819 297.14762839 173.20012099 296.0459882 173.19692993 294.91096497 C173.2037266 293.15316087 173.2037266 293.15316087 173.21066058 291.35984558 C173.22114237 288.10624198 173.22262845 284.85277713 173.22027183 281.59916198 C173.21986403 278.09056693 173.23089918 274.58200497 173.24038696 271.07342529 C173.25700523 264.1994966 173.26249686 257.3256022 173.26361172 250.4516551 C173.26456169 244.86540341 173.26866944 239.27916306 173.27501297 233.69291496 C173.29262674 217.85999947 173.30185149 202.0271111 173.30035202 186.19418574 C173.30023215 184.91364699 173.30023215 184.91364699 173.30010986 183.60723877 C173.29998722 182.32513945 173.29998722 182.32513945 173.2998621 181.01713913 C173.2990489 167.15972512 173.31819466 153.30241972 173.3463866 139.44503713 C173.3750957 125.22141251 173.38892802 110.9978409 173.38719904 96.77418655 C173.38653451 88.78660651 173.39205446 80.79914036 173.41355515 72.81158638 C173.43174091 66.01190409 173.43613576 59.21238735 173.4225363 52.4126913 C173.41599367 48.94264656 173.41593556 45.47291965 173.4332428 42.00290489 C173.44859372 38.24296726 173.43945332 34.48387171 173.42398071 30.72395325 C173.43426784 29.62454377 173.44455497 28.5251343 173.45515382 27.39240938 C173.41702886 21.44644282 173.41702886 21.44644282 171.02359962 16.09959316 C167.41309309 12.91748177 165.1052206 13.13014741 160.34902954 13.13371277 C159.66536745 13.13285834 158.98170535 13.13200392 158.27732623 13.1311236 C155.97564972 13.12947028 153.67404533 13.13498777 151.37237549 13.14044189 C149.72678123 13.14072382 148.08118684 13.14056592 146.43559265 13.13999939 C141.95857019 13.13971164 137.48157434 13.14560476 133.00455809 13.15257335 C128.32936455 13.15881061 123.65417045 13.15941098 118.97897339 13.16059875 C110.12150067 13.16371097 101.26404024 13.17192288 92.40657294 13.18194824 C82.32449515 13.19311279 72.24241678 13.19862069 62.16033435 13.20364368 C41.41671749 13.21410558 20.67311172 13.2317029 -0.07049561 13.25396729 Z M-18.75776672 27.80229187 C-19.40881882 28.45536819 -20.05987091 29.10844452 -20.73065186 29.78131104 C-21.39511826 30.44482071 -22.05958466 31.10833038 -22.7441864 31.79194641 C-24.15179494 33.19887286 -25.55813506 34.60706929 -26.96331787 36.01641846 C-29.123585 38.18203338 -31.28912003 40.34227656 -33.45526123 42.50201416 C-34.81821221 43.86562591 -36.18085296 45.22954782 -37.54315186 46.59381104 C-38.19622818 47.24486313 -38.8493045 47.89591522 -39.52217102 48.56669617 C-42.59531349 51.03033751 -42.59531349 51.03033751 -44.07049561 54.25396729 C-33.84049561 54.25396729 -23.61049561 54.25396729 -13.07049561 54.25396729 C-13.07049561 44.02396729 -13.07049561 33.79396729 -13.07049561 23.25396729 C-15.43687605 23.25396729 -17.15137472 26.20433152 -18.75776672 27.80229187 Z M185.92950439 61.25396729 C185.92592186 63.1355197 185.92592186 63.1355197 185.92226696 65.05508327 C185.86487897 94.8464567 185.79212845 124.63774954 185.70051811 154.42903554 C185.68925026 158.09764852 185.67811175 161.76626188 185.66705322 165.43487549 C185.66484954 166.16521531 185.66264586 166.89555514 185.66037539 167.64802647 C185.62502493 179.46597895 185.6001481 191.28393137 185.57915737 203.10191708 C185.55737737 215.23268591 185.52430609 227.36338626 185.48080283 239.49409682 C185.45432395 246.9764455 185.4366009 254.45870889 185.43015835 261.94110209 C185.42426953 267.68335216 185.40265368 273.42546088 185.37522888 279.1676445 C185.3664428 281.51979667 185.36272725 283.87197416 185.36449623 286.22414207 C185.3661509 289.43982792 185.34943238 292.65492428 185.32823181 295.87052917 C185.33550318 297.26112931 185.33550318 297.26112931 185.34292144 298.67982239 C185.25541737 306.742685 183.81896184 314.36450984 177.92950439 320.25396729 C172.54892106 324.02037562 168.29910597 324.37962115 161.80480957 324.41218567 C161.08677021 324.41712365 160.36873085 324.42206162 159.62893271 324.42714924 C157.22294069 324.44250722 154.81697531 324.45088024 152.41094971 324.45928955 C150.68624131 324.46886941 148.96153526 324.47887956 147.23683167 324.48928833 C142.55334858 324.51633175 137.86985543 324.53734438 133.18633747 324.55729032 C128.29225643 324.57915331 123.39820641 324.60654048 118.50415039 324.63334656 C109.23594193 324.68326918 99.96771625 324.72820962 90.6994741 324.77136892 C80.14817104 324.82074496 69.59689911 324.87566174 59.04562616 324.93104851 C37.34028124 325.04486196 15.6349066 325.15170241 -6.07049561 325.25396729 C-6.19452682 329.4347733 -6.28503162 333.6145923 -6.34515381 337.79669189 C-6.37022708 339.21778019 -6.40429559 340.63874042 -6.44769287 342.05938721 C-6.50867418 344.1076419 -6.53677323 346.15418612 -6.55877686 348.20318604 C-6.58496094 349.43383789 -6.61114502 350.66448975 -6.63812256 351.93243408 C-5.90878702 356.20022331 -4.4431426 357.62252146 -1.07049561 360.25396729 C2.98898327 361.56294495 7.07463377 361.39900185 11.29786682 361.39440918 C12.149808 361.3973803 13.00174919 361.40035142 13.87950677 361.40341258 C16.73903737 361.41209586 19.5985261 361.41360751 22.45806885 361.4151001 C24.50638926 361.4197285 26.5547088 361.42475319 28.60302734 361.43014526 C34.1712644 361.4432684 39.73948939 361.44971397 45.3077395 361.45415592 C48.78598903 361.45708656 52.26423526 361.46119133 55.74248314 361.4656601 C66.62356498 361.4793343 77.50463929 361.48900155 88.38572913 361.49286199 C100.94942908 361.49734381 113.51302028 361.51489789 126.07668716 361.54386258 C135.78635326 361.56547121 145.49598875 361.57556582 155.20567864 361.5769031 C161.00573066 361.57795164 166.80568045 361.58387002 172.60570717 361.60172272 C178.06153335 361.61818933 183.5171803 361.62036569 188.97302246 361.61158371 C190.97449918 361.6108126 192.97598548 361.6151657 194.97743797 361.62504196 C197.71190263 361.63774312 200.44573073 361.63189458 203.18019104 361.62145996 C203.97028086 361.62951637 204.76037069 361.63757277 205.57440263 361.64587331 C210.73095431 361.59992218 214.39932083 360.79566445 218.92950439 358.25396729 C220.89707892 355.24664697 221.18100663 352.84483058 221.1867733 349.29355717 C221.19644664 347.78663432 221.19644664 347.78663432 221.2063154 346.24926859 C221.20321819 345.14762839 221.20012099 344.0459882 221.19692993 342.91096497 C221.2037266 341.15316087 221.2037266 341.15316087 221.21066058 339.35984558 C221.22114237 336.10624198 221.22262845 332.85277713 221.22027183 329.59916198 C221.21986403 326.09056693 221.23089918 322.58200497 221.24038696 319.07342529 C221.25700523 312.1994966 221.26249686 305.3256022 221.26361172 298.4516551 C221.26456169 292.86540341 221.26866944 287.27916306 221.27501297 281.69291496 C221.29262674 265.85999947 221.30185149 250.0271111 221.30035202 234.19418574 C221.30023215 232.91364699 221.30023215 232.91364699 221.30010986 231.60723877 C221.29998722 230.32513945 221.29998722 230.32513945 221.2998621 229.01713913 C221.2990489 215.15972512 221.31819466 201.30241972 221.3463866 187.44503713 C221.3750957 173.22141251 221.38892802 158.9978409 221.38719904 144.77418655 C221.38653451 136.78660651 221.39205446 128.79914036 221.41355515 120.81158638 C221.43174091 114.01190409 221.43613576 107.21238735 221.4225363 100.4126913 C221.41599367 96.94264656 221.41593556 93.47291965 221.4332428 90.00290489 C221.44859372 86.24296726 221.43945332 82.48387171 221.42398071 78.72395325 C221.43426784 77.62454377 221.44455497 76.5251343 221.45515382 75.39240938 C221.41702886 69.44644282 221.41702886 69.44644282 219.02359962 64.09959316 C215.42400405 60.92709812 213.12828347 61.13571172 208.39044189 61.15631104 C206.43751221 61.16114502 206.43751221 61.16114502 204.44512939 61.16607666 C203.06492041 61.17443263 201.68471207 61.18289758 200.30450439 61.19146729 C198.91648514 61.19648227 197.52846417 61.20104518 196.14044189 61.20513916 C192.73675307 61.21695752 189.33315001 61.23343295 185.92950439 61.25396729 Z " fill="#000000" transform="translate(173.07049560546875,69.74603271484375)"/>
<path d="M0 0 C1.20490082 -0.00960754 2.40980164 -0.01921509 3.6512146 -0.02911377 C4.95434601 -0.03336365 6.25747742 -0.03761353 7.60009766 -0.04199219 C8.95146689 -0.0477465 10.30283611 -0.0535042 11.65420532 -0.05926514 C14.48708475 -0.06976482 17.31993589 -0.07561426 20.15283203 -0.07910156 C23.77662018 -0.08458492 27.40003234 -0.1086134 31.02370262 -0.13707352 C33.81530845 -0.15572908 36.6068242 -0.16090703 39.39848709 -0.16243744 C41.38210654 -0.16692323 43.36567771 -0.18555474 45.34921265 -0.20440674 C46.56041779 -0.20140564 47.77162292 -0.19840454 49.01953125 -0.1953125 C50.08303802 -0.19895813 51.1465448 -0.20260376 52.24227905 -0.20635986 C55.59286713 0.21868919 57.46527181 1.11866915 60.13916016 3.16113281 C61.2083351 6.36865765 61.26758485 8.66547388 61.27287292 12.03770447 C61.2792704 13.87791924 61.2792704 13.87791924 61.28579712 15.75531006 C61.2854476 17.11706546 61.28498606 18.47882084 61.28442383 19.84057617 C61.28741558 21.27293485 61.29081815 22.70529273 61.29460144 24.13764954 C61.30344351 28.03018261 61.30577963 31.92269371 61.30641723 35.81523585 C61.30736626 39.06333574 61.31104446 42.3114305 61.31458932 45.55952841 C61.32273449 53.22157301 61.32517348 60.88360586 61.32446289 68.5456543 C61.32386191 76.45331209 61.33441767 84.3609017 61.35020655 92.26854223 C61.36327473 99.05502422 61.3686471 105.84148391 61.36800748 112.62797838 C61.3677523 116.6824445 61.37061449 120.73685003 61.38118553 124.79130363 C61.3908545 128.60389776 61.390954 132.41637322 61.3836689 136.22897148 C61.38262159 137.62860792 61.3849946 139.0282517 61.39102936 140.42787552 C61.39873117 142.33776128 61.3929133 144.24768734 61.38639832 146.15757751 C61.38694308 147.22664809 61.38748785 148.29571867 61.38804913 149.39718533 C61.13632664 152.19259943 60.67262813 153.82920363 59.13916016 156.16113281 C56.3442438 157.55859099 54.02788791 157.30384484 50.90112305 157.32226562 C49.58958755 157.33187317 48.27805206 157.34148071 46.92677307 157.35137939 C45.48845594 157.35622661 44.05013681 157.36050562 42.61181641 157.36425781 C41.14212542 157.37000863 39.67243446 157.37576637 38.20274353 157.38153076 C35.12010345 157.39204033 32.03748946 157.39788348 28.95483398 157.40136719 C25.00238018 157.40685628 21.05027012 157.43089297 17.09792423 157.45933914 C14.06191495 157.47794945 11.0259888 157.48317022 7.98992729 157.48470306 C6.53264928 157.48773306 5.07537285 157.49577328 3.61815071 157.50888824 C1.58103351 157.52591558 -0.45622515 157.5222285 -2.4934082 157.51757812 C-3.65319687 157.52122375 -4.81298553 157.52486938 -6.00791931 157.52862549 C-8.86083984 157.16113281 -8.86083984 157.16113281 -10.51533794 156.01536179 C-12.44376649 153.35780472 -12.23843125 151.39167664 -12.24179077 148.12597656 C-12.25025024 146.86406494 -12.25870972 145.60215332 -12.26742554 144.30200195 C-12.26159244 142.90087762 -12.25544792 141.49975456 -12.24902344 140.09863281 C-12.25308786 138.62524018 -12.25842902 137.15185059 -12.26495361 135.6784668 C-12.27864852 131.67436269 -12.27331969 127.67049007 -12.26381636 123.66638184 C-12.25623098 119.47972989 -12.26326224 115.29309802 -12.26797485 111.10644531 C-12.27343569 104.07515904 -12.26623223 97.04396725 -12.25195312 90.01269531 C-12.23562595 81.87889027 -12.24091423 73.74531081 -12.25743234 65.61151123 C-12.2710379 58.63309801 -12.27297144 51.65475277 -12.26511633 44.67633057 C-12.26043468 40.50618796 -12.25982842 36.33615145 -12.2697258 32.16601562 C-12.27837972 28.24583353 -12.27240267 24.3259428 -12.25504303 20.40579224 C-12.25106972 18.96542851 -12.25222665 17.52504034 -12.25883102 16.08468628 C-12.26700243 14.121896 -12.25494854 12.15905225 -12.24179077 10.19628906 C-12.24065969 9.09679932 -12.23952862 7.99730957 -12.23836327 6.86450195 C-11.86083984 4.16113281 -11.86083984 4.16113281 -10.52453041 2.34643555 C-7.14954907 -0.05808287 -4.00108789 0.02572656 0 0 Z M1.13916016 13.16113281 C1.13916016 56.72113281 1.13916016 100.28113281 1.13916016 145.16113281 C16.64916016 145.16113281 32.15916016 145.16113281 48.13916016 145.16113281 C48.13916016 101.60113281 48.13916016 58.04113281 48.13916016 13.16113281 C32.62916016 13.16113281 17.11916016 13.16113281 1.13916016 13.16113281 Z " fill="#000000" transform="translate(141.86083984375,165.8388671875)"/>
<path d="M0 0 C0.96465179 -0.00960754 1.92930359 -0.01921509 2.92318726 -0.02911377 C3.96383331 -0.03336365 5.00447937 -0.03761353 6.07666016 -0.04199219 C7.14816315 -0.04769226 8.21966614 -0.05339233 9.32363892 -0.05926514 C11.59156303 -0.06871456 13.85950088 -0.07524889 16.12744141 -0.07910156 C19.59513303 -0.08880955 23.06223259 -0.11983502 26.52978516 -0.15136719 C28.73290664 -0.15789709 30.93603235 -0.16314761 33.13916016 -0.16699219 C34.17575775 -0.17933899 35.21235535 -0.19168579 36.28036499 -0.20440674 C45.49998945 -0.17591008 45.49998945 -0.17591008 49.24072266 3.16113281 C50.21540547 6.08518124 50.37263592 7.98268488 50.38598633 11.02807617 C50.39236618 12.01597641 50.39874603 13.00387665 50.40531921 14.02171326 C50.40643204 15.08737015 50.40754486 16.15302704 50.40869141 17.25097656 C50.41368401 18.89508263 50.41368401 18.89508263 50.41877747 20.57240295 C50.42384247 22.89160746 50.42618592 25.21081926 50.42602539 27.5300293 C50.42821181 31.08101381 50.44637207 34.63168767 50.46533203 38.18261719 C50.46826602 40.43456925 50.47025078 42.68652279 50.47119141 44.93847656 C50.47837692 46.00210922 50.48556244 47.06574188 50.4929657 48.16160583 C50.48988907 49.15265823 50.48681244 50.14371063 50.48364258 51.16479492 C50.4850676 52.03510849 50.48649261 52.90542206 50.48796082 53.80210876 C50.2181116 56.37687629 49.62252692 57.98196937 48.24072266 60.16113281 C45.71170243 61.42564292 43.93516744 61.30182871 41.10424805 61.32226562 C40.03296158 61.33187317 38.96167511 61.34148071 37.85792542 61.35137939 C36.69647507 61.35562927 35.53502472 61.35987915 34.33837891 61.36425781 C33.1497374 61.36995789 31.96109589 61.37565796 30.73643494 61.38153076 C28.21874891 61.39098957 25.70105046 61.39751823 23.18334961 61.40136719 C19.3226985 61.4110838 15.46257709 61.44210424 11.60205078 61.47363281 C9.15999666 61.48016149 6.71793872 61.48541249 4.27587891 61.48925781 C3.11645279 61.50160461 1.95702667 61.51395142 0.76246643 61.52667236 C-0.3119722 61.52367126 -1.38641083 61.52067017 -2.4934082 61.51757812 C-3.44001816 61.52122375 -4.38662811 61.52486938 -5.36192322 61.52862549 C-7.75927734 61.16113281 -7.75927734 61.16113281 -9.56413269 59.96697998 C-11.18467569 57.51836176 -11.14005439 55.83925135 -11.14746094 52.91113281 C-11.15691742 51.83992188 -11.1663739 50.76871094 -11.17611694 49.66503906 C-11.17004425 48.50875 -11.16397156 47.35246094 -11.15771484 46.16113281 C-11.16058502 44.97390625 -11.1634552 43.78667969 -11.16641235 42.56347656 C-11.16845511 40.05175297 -11.16291057 37.54001354 -11.15039062 35.02832031 C-11.13434094 31.17639709 -11.15023322 27.32552326 -11.16943359 23.47363281 C-11.1674512 21.03613049 -11.16360761 18.59862882 -11.15771484 16.16113281 C-11.16378754 15.00484375 -11.16986023 13.84855469 -11.17611694 12.65722656 C-11.16666046 11.58601563 -11.15720398 10.51480469 -11.14746094 9.41113281 C-11.14507416 8.46753906 -11.14268738 7.52394531 -11.14022827 6.55175781 C-10.68759714 3.71130982 -10.04407903 2.85680186 -7.75927734 1.16113281 C-4.87136826 0.19849645 -3.0039921 0.02416681 0 0 Z M2.24072266 13.16113281 C2.24072266 24.71113281 2.24072266 36.26113281 2.24072266 48.16113281 C13.79072266 48.16113281 25.34072266 48.16113281 37.24072266 48.16113281 C37.24072266 36.61113281 37.24072266 25.06113281 37.24072266 13.16113281 C25.69072266 13.16113281 14.14072266 13.16113281 2.24072266 13.16113281 Z " fill="#000000" transform="translate(284.75927734375,93.8388671875)"/>
<path d="M0 0 C0.8130735 -0.0060911 1.62614699 -0.01218221 2.46385908 -0.01845789 C5.19776701 -0.0351531 7.9312125 -0.03030288 10.66516113 -0.0255127 C12.62130724 -0.03284918 14.577449 -0.04143417 16.53358459 -0.05117798 C21.85372479 -0.07344523 27.17371036 -0.07632212 32.49389076 -0.07443047 C36.93008353 -0.07431102 41.36624322 -0.0828643 45.80242682 -0.09120798 C56.26434364 -0.11046023 66.72618066 -0.11331898 77.18811035 -0.10656738 C87.99402224 -0.09992239 98.79959314 -0.12280532 109.60543585 -0.15988111 C118.87257789 -0.19052802 128.13960996 -0.20194367 137.4068017 -0.1980443 C142.94634926 -0.19597189 148.48563147 -0.20153198 154.02513123 -0.22593689 C159.23236701 -0.24811927 164.43904629 -0.24639738 169.6462841 -0.22600937 C171.56074895 -0.22258437 173.47525066 -0.22775205 175.3896656 -0.24199295 C177.99684488 -0.26005371 180.60210947 -0.24753653 183.20922852 -0.22705078 C183.97274234 -0.23956863 184.73625617 -0.25208648 185.52290678 -0.26498365 C187.63599396 -0.2292099 187.63599396 -0.2292099 191.10461426 0.39440918 C193.14104462 2.73012543 193.14104462 2.73012543 194.10461426 5.39440918 C193.41711426 8.64440918 193.41711426 8.64440918 192.10461426 11.39440918 C189.01488623 12.93927319 185.75841545 12.53870429 182.3674469 12.53485107 C181.55931138 12.5378222 180.75117586 12.54079332 179.91855139 12.54385448 C177.19548714 12.55256486 174.47246674 12.55405168 171.74938965 12.55554199 C169.80324712 12.56016845 167.85710551 12.56519287 165.91096497 12.57058716 C160.6135306 12.58372825 155.31610891 12.59015924 150.01866078 12.59459782 C146.7123181 12.59752528 143.40597891 12.60162942 140.09963799 12.60610199 C129.76424012 12.61978031 119.42885022 12.6294458 109.09344393 12.63330388 C97.144907 12.63778813 85.19648427 12.65535164 73.24798208 12.68430448 C64.02334038 12.70588472 54.79873089 12.71600617 45.5740642 12.717345 C40.05915375 12.71839549 34.5443506 12.72435518 29.02946663 12.74216461 C23.84453252 12.75858257 18.6597871 12.76083149 13.47483635 12.7520256 C11.56843436 12.7512519 9.66202249 12.75564154 7.75564575 12.76548386 C5.15979084 12.77810334 2.5646144 12.77238162 -0.03123474 12.76190186 C-1.17169224 12.77398646 -1.17169224 12.77398646 -2.33518928 12.7863152 C-7.38850307 12.73836294 -7.38850307 12.73836294 -9.86345768 11.05894089 C-11.49110595 8.43349416 -11.27123856 6.40123173 -10.89538574 3.39440918 C-8.37134802 -0.68053541 -4.29714942 -0.02998622 0 0 Z " fill="#000000" transform="translate(140.8953857421875,358.6055908203125)"/>
<path d="M0 0 C0.8130735 -0.0060911 1.62614699 -0.01218221 2.46385908 -0.01845789 C5.19776701 -0.0351531 7.9312125 -0.03030288 10.66516113 -0.0255127 C12.62130724 -0.03284918 14.577449 -0.04143417 16.53358459 -0.05117798 C21.85372479 -0.07344523 27.17371036 -0.07632212 32.49389076 -0.07443047 C36.93008353 -0.07431102 41.36624322 -0.0828643 45.80242682 -0.09120798 C56.26434364 -0.11046023 66.72618066 -0.11331898 77.18811035 -0.10656738 C87.99402224 -0.09992239 98.79959314 -0.12280532 109.60543585 -0.15988111 C118.87257789 -0.19052802 128.13960996 -0.20194367 137.4068017 -0.1980443 C142.94634926 -0.19597189 148.48563147 -0.20153198 154.02513123 -0.22593689 C159.23236701 -0.24811927 164.43904629 -0.24639738 169.6462841 -0.22600937 C171.56074895 -0.22258437 173.47525066 -0.22775205 175.3896656 -0.24199295 C177.99684488 -0.26005371 180.60210947 -0.24753653 183.20922852 -0.22705078 C183.97274234 -0.23956863 184.73625617 -0.25208648 185.52290678 -0.26498365 C187.63599396 -0.2292099 187.63599396 -0.2292099 191.10461426 0.39440918 C193.14104462 2.73012543 193.14104462 2.73012543 194.10461426 5.39440918 C193.41711426 8.64440918 193.41711426 8.64440918 192.10461426 11.39440918 C189.01488623 12.93927319 185.75841545 12.53870429 182.3674469 12.53485107 C181.55931138 12.5378222 180.75117586 12.54079332 179.91855139 12.54385448 C177.19548714 12.55256486 174.47246674 12.55405168 171.74938965 12.55554199 C169.80324712 12.56016845 167.85710551 12.56519287 165.91096497 12.57058716 C160.6135306 12.58372825 155.31610891 12.59015924 150.01866078 12.59459782 C146.7123181 12.59752528 143.40597891 12.60162942 140.09963799 12.60610199 C129.76424012 12.61978031 119.42885022 12.6294458 109.09344393 12.63330388 C97.144907 12.63778813 85.19648427 12.65535164 73.24798208 12.68430448 C64.02334038 12.70588472 54.79873089 12.71600617 45.5740642 12.717345 C40.05915375 12.71839549 34.5443506 12.72435518 29.02946663 12.74216461 C23.84453252 12.75858257 18.6597871 12.76083149 13.47483635 12.7520256 C11.56843436 12.7512519 9.66202249 12.75564154 7.75564575 12.76548386 C5.15979084 12.77810334 2.5646144 12.77238162 -0.03123474 12.76190186 C-1.17169224 12.77398646 -1.17169224 12.77398646 -2.33518928 12.7863152 C-7.38850307 12.73836294 -7.38850307 12.73836294 -9.86345768 11.05894089 C-11.49110595 8.43349416 -11.27123856 6.40123173 -10.89538574 3.39440918 C-8.37134802 -0.68053541 -4.29714942 -0.02998622 0 0 Z " fill="#000000" transform="translate(140.8953857421875,334.6055908203125)"/>
<path d="M0 0 C0.91404099 -0.00571014 1.82808197 -0.01142029 2.76982117 -0.01730347 C4.27070534 -0.01898026 4.27070534 -0.01898026 5.8019104 -0.02069092 C7.38522911 -0.02813828 7.38522911 -0.02813828 9.00053406 -0.03573608 C12.49894864 -0.05036378 15.99731789 -0.0571604 19.49575806 -0.06268311 C21.92329917 -0.06843363 24.35084027 -0.07419137 26.77838135 -0.07995605 C31.8710247 -0.09046748 36.96365225 -0.09630937 42.05630493 -0.09979248 C48.58565929 -0.10528044 55.11480545 -0.12931454 61.64409447 -0.15776443 C66.65920627 -0.17637571 71.67426774 -0.18159559 76.68941116 -0.18312836 C79.09678919 -0.18615833 81.50416626 -0.19419838 83.91151047 -0.20731354 C87.27748273 -0.22434364 90.64294393 -0.22250108 94.00894165 -0.21600342 C95.00548264 -0.2252182 96.00202362 -0.23443298 97.02876282 -0.243927 C105.64937238 -0.19172465 105.64937238 -0.19172465 109.53482056 3.14044189 C110.6518506 6.04472001 110.78017766 7.46099146 109.72232056 10.39044189 C108.53482056 12.14044189 108.53482056 12.14044189 106.53482056 13.14044189 C105.02123677 13.23901349 103.50339852 13.27547988 101.98661804 13.28088379 C100.55017693 13.28944901 100.55017693 13.28944901 99.0847168 13.29818726 C98.03063629 13.29930511 96.97655579 13.30042297 95.89053345 13.30157471 C94.22946312 13.30902206 94.22946312 13.30902206 92.53483582 13.31661987 C88.85904324 13.33126636 85.1832938 13.33804708 81.50747681 13.34356689 C78.96161395 13.34931557 76.41575112 13.35507334 73.86988831 13.36083984 C69.21093066 13.37001105 64.55198604 13.37630898 59.89302164 13.3793366 C53.03153359 13.38381983 46.17024451 13.40138006 39.30881697 13.43033719 C33.36931989 13.45453534 27.42987254 13.46227974 21.49032402 13.46401215 C18.96127679 13.46704722 16.43223057 13.47510429 13.90321541 13.48819733 C10.37148926 13.50517859 6.84025216 13.50339699 3.3085022 13.49688721 C2.25644592 13.50610199 1.20438965 13.51531677 0.12045288 13.52481079 C-0.83999435 13.51924164 -1.80044159 13.51367249 -2.78999329 13.50793457 C-3.62530547 13.50940113 -4.46061766 13.51086769 -5.32124233 13.51237869 C-7.9866718 13.0499718 -8.87011849 12.29683143 -10.46517944 10.14044189 C-10.86779204 6.9195411 -11.09259435 5.006872 -9.15267944 2.32794189 C-6.17172547 0.23023355 -3.52576761 0.01319999 0 0 Z " fill="#000000" transform="translate(224.46517944335938,285.85955810546875)"/>
<path d="M0 0 C0.91404099 -0.00571014 1.82808197 -0.01142029 2.76982117 -0.01730347 C4.27070534 -0.01898026 4.27070534 -0.01898026 5.8019104 -0.02069092 C7.38522911 -0.02813828 7.38522911 -0.02813828 9.00053406 -0.03573608 C12.49894864 -0.05036378 15.99731789 -0.0571604 19.49575806 -0.06268311 C21.92329917 -0.06843363 24.35084027 -0.07419137 26.77838135 -0.07995605 C31.8710247 -0.09046748 36.96365225 -0.09630937 42.05630493 -0.09979248 C48.58565929 -0.10528044 55.11480545 -0.12931454 61.64409447 -0.15776443 C66.65920627 -0.17637571 71.67426774 -0.18159559 76.68941116 -0.18312836 C79.09678919 -0.18615833 81.50416626 -0.19419838 83.91151047 -0.20731354 C87.27748273 -0.22434364 90.64294393 -0.22250108 94.00894165 -0.21600342 C95.00548264 -0.2252182 96.00202362 -0.23443298 97.02876282 -0.243927 C105.64937238 -0.19172465 105.64937238 -0.19172465 109.53482056 3.14044189 C110.6518506 6.04472001 110.78017766 7.46099146 109.72232056 10.39044189 C108.53482056 12.14044189 108.53482056 12.14044189 106.53482056 13.14044189 C105.02123677 13.23901349 103.50339852 13.27547988 101.98661804 13.28088379 C100.55017693 13.28944901 100.55017693 13.28944901 99.0847168 13.29818726 C98.03063629 13.29930511 96.97655579 13.30042297 95.89053345 13.30157471 C94.22946312 13.30902206 94.22946312 13.30902206 92.53483582 13.31661987 C88.85904324 13.33126636 85.1832938 13.33804708 81.50747681 13.34356689 C78.96161395 13.34931557 76.41575112 13.35507334 73.86988831 13.36083984 C69.21093066 13.37001105 64.55198604 13.37630898 59.89302164 13.3793366 C53.03153359 13.38381983 46.17024451 13.40138006 39.30881697 13.43033719 C33.36931989 13.45453534 27.42987254 13.46227974 21.49032402 13.46401215 C18.96127679 13.46704722 16.43223057 13.47510429 13.90321541 13.48819733 C10.37148926 13.50517859 6.84025216 13.50339699 3.3085022 13.49688721 C2.25644592 13.50610199 1.20438965 13.51531677 0.12045288 13.52481079 C-0.83999435 13.51924164 -1.80044159 13.51367249 -2.78999329 13.50793457 C-3.62530547 13.50940113 -4.46061766 13.51086769 -5.32124233 13.51237869 C-7.9866718 13.0499718 -8.87011849 12.29683143 -10.46517944 10.14044189 C-10.86779204 6.9195411 -11.09259435 5.006872 -9.15267944 2.32794189 C-6.17172547 0.23023355 -3.52576761 0.01319999 0 0 Z " fill="#000000" transform="translate(224.46517944335938,261.85955810546875)"/>
<path d="M0 0 C0.91404099 -0.00571014 1.82808197 -0.01142029 2.76982117 -0.01730347 C4.27070534 -0.01898026 4.27070534 -0.01898026 5.8019104 -0.02069092 C7.38522911 -0.02813828 7.38522911 -0.02813828 9.00053406 -0.03573608 C12.49894864 -0.05036378 15.99731789 -0.0571604 19.49575806 -0.06268311 C21.92329917 -0.06843363 24.35084027 -0.07419137 26.77838135 -0.07995605 C31.8710247 -0.09046748 36.96365225 -0.09630937 42.05630493 -0.09979248 C48.58565929 -0.10528044 55.11480545 -0.12931454 61.64409447 -0.15776443 C66.65920627 -0.17637571 71.67426774 -0.18159559 76.68941116 -0.18312836 C79.09678919 -0.18615833 81.50416626 -0.19419838 83.91151047 -0.20731354 C87.27748273 -0.22434364 90.64294393 -0.22250108 94.00894165 -0.21600342 C95.00548264 -0.2252182 96.00202362 -0.23443298 97.02876282 -0.243927 C105.64937238 -0.19172465 105.64937238 -0.19172465 109.53482056 3.14044189 C110.6518506 6.04472001 110.78017766 7.46099146 109.72232056 10.39044189 C108.53482056 12.14044189 108.53482056 12.14044189 106.53482056 13.14044189 C105.02123677 13.23901349 103.50339852 13.27547988 101.98661804 13.28088379 C100.55017693 13.28944901 100.55017693 13.28944901 99.0847168 13.29818726 C98.03063629 13.29930511 96.97655579 13.30042297 95.89053345 13.30157471 C94.22946312 13.30902206 94.22946312 13.30902206 92.53483582 13.31661987 C88.85904324 13.33126636 85.1832938 13.33804708 81.50747681 13.34356689 C78.96161395 13.34931557 76.41575112 13.35507334 73.86988831 13.36083984 C69.21093066 13.37001105 64.55198604 13.37630898 59.89302164 13.3793366 C53.03153359 13.38381983 46.17024451 13.40138006 39.30881697 13.43033719 C33.36931989 13.45453534 27.42987254 13.46227974 21.49032402 13.46401215 C18.96127679 13.46704722 16.43223057 13.47510429 13.90321541 13.48819733 C10.37148926 13.50517859 6.84025216 13.50339699 3.3085022 13.49688721 C2.25644592 13.50610199 1.20438965 13.51531677 0.12045288 13.52481079 C-0.83999435 13.51924164 -1.80044159 13.51367249 -2.78999329 13.50793457 C-3.62530547 13.50940113 -4.46061766 13.51086769 -5.32124233 13.51237869 C-7.9866718 13.0499718 -8.87011849 12.29683143 -10.46517944 10.14044189 C-10.86779204 6.9195411 -11.09259435 5.006872 -9.15267944 2.32794189 C-6.17172547 0.23023355 -3.52576761 0.01319999 0 0 Z " fill="#000000" transform="translate(224.46517944335938,237.85955810546875)"/>
<path d="M0 0 C0.91404099 -0.00571014 1.82808197 -0.01142029 2.76982117 -0.01730347 C4.27070534 -0.01898026 4.27070534 -0.01898026 5.8019104 -0.02069092 C7.38522911 -0.02813828 7.38522911 -0.02813828 9.00053406 -0.03573608 C12.49894864 -0.05036378 15.99731789 -0.0571604 19.49575806 -0.06268311 C21.92329917 -0.06843363 24.35084027 -0.07419137 26.77838135 -0.07995605 C31.8710247 -0.09046748 36.96365225 -0.09630937 42.05630493 -0.09979248 C48.58565929 -0.10528044 55.11480545 -0.12931454 61.64409447 -0.15776443 C66.65920627 -0.17637571 71.67426774 -0.18159559 76.68941116 -0.18312836 C79.09678919 -0.18615833 81.50416626 -0.19419838 83.91151047 -0.20731354 C87.27748273 -0.22434364 90.64294393 -0.22250108 94.00894165 -0.21600342 C95.00548264 -0.2252182 96.00202362 -0.23443298 97.02876282 -0.243927 C105.64937238 -0.19172465 105.64937238 -0.19172465 109.53482056 3.14044189 C110.6518506 6.04472001 110.78017766 7.46099146 109.72232056 10.39044189 C108.53482056 12.14044189 108.53482056 12.14044189 106.53482056 13.14044189 C105.02123677 13.23901349 103.50339852 13.27547988 101.98661804 13.28088379 C100.55017693 13.28944901 100.55017693 13.28944901 99.0847168 13.29818726 C98.03063629 13.29930511 96.97655579 13.30042297 95.89053345 13.30157471 C94.22946312 13.30902206 94.22946312 13.30902206 92.53483582 13.31661987 C88.85904324 13.33126636 85.1832938 13.33804708 81.50747681 13.34356689 C78.96161395 13.34931557 76.41575112 13.35507334 73.86988831 13.36083984 C69.21093066 13.37001105 64.55198604 13.37630898 59.89302164 13.3793366 C53.03153359 13.38381983 46.17024451 13.40138006 39.30881697 13.43033719 C33.36931989 13.45453534 27.42987254 13.46227974 21.49032402 13.46401215 C18.96127679 13.46704722 16.43223057 13.47510429 13.90321541 13.48819733 C10.37148926 13.50517859 6.84025216 13.50339699 3.3085022 13.49688721 C2.25644592 13.50610199 1.20438965 13.51531677 0.12045288 13.52481079 C-0.83999435 13.51924164 -1.80044159 13.51367249 -2.78999329 13.50793457 C-3.62530547 13.50940113 -4.46061766 13.51086769 -5.32124233 13.51237869 C-7.9866718 13.0499718 -8.87011849 12.29683143 -10.46517944 10.14044189 C-10.86779204 6.9195411 -11.09259435 5.006872 -9.15267944 2.32794189 C-6.17172547 0.23023355 -3.52576761 0.01319999 0 0 Z " fill="#000000" transform="translate(224.46517944335938,213.85955810546875)"/>
<path d="M0 0 C0.91404099 -0.00571014 1.82808197 -0.01142029 2.76982117 -0.01730347 C4.27070534 -0.01898026 4.27070534 -0.01898026 5.8019104 -0.02069092 C7.38522911 -0.02813828 7.38522911 -0.02813828 9.00053406 -0.03573608 C12.49894864 -0.05036378 15.99731789 -0.0571604 19.49575806 -0.06268311 C21.92329917 -0.06843363 24.35084027 -0.07419137 26.77838135 -0.07995605 C31.8710247 -0.09046748 36.96365225 -0.09630937 42.05630493 -0.09979248 C48.58565929 -0.10528044 55.11480545 -0.12931454 61.64409447 -0.15776443 C66.65920627 -0.17637571 71.67426774 -0.18159559 76.68941116 -0.18312836 C79.09678919 -0.18615833 81.50416626 -0.19419838 83.91151047 -0.20731354 C87.27748273 -0.22434364 90.64294393 -0.22250108 94.00894165 -0.21600342 C95.00548264 -0.2252182 96.00202362 -0.23443298 97.02876282 -0.243927 C105.64937238 -0.19172465 105.64937238 -0.19172465 109.53482056 3.14044189 C110.6518506 6.04472001 110.78017766 7.46099146 109.72232056 10.39044189 C108.53482056 12.14044189 108.53482056 12.14044189 106.53482056 13.14044189 C105.02123677 13.23901349 103.50339852 13.27547988 101.98661804 13.28088379 C100.55017693 13.28944901 100.55017693 13.28944901 99.0847168 13.29818726 C98.03063629 13.29930511 96.97655579 13.30042297 95.89053345 13.30157471 C94.22946312 13.30902206 94.22946312 13.30902206 92.53483582 13.31661987 C88.85904324 13.33126636 85.1832938 13.33804708 81.50747681 13.34356689 C78.96161395 13.34931557 76.41575112 13.35507334 73.86988831 13.36083984 C69.21093066 13.37001105 64.55198604 13.37630898 59.89302164 13.3793366 C53.03153359 13.38381983 46.17024451 13.40138006 39.30881697 13.43033719 C33.36931989 13.45453534 27.42987254 13.46227974 21.49032402 13.46401215 C18.96127679 13.46704722 16.43223057 13.47510429 13.90321541 13.48819733 C10.37148926 13.50517859 6.84025216 13.50339699 3.3085022 13.49688721 C2.25644592 13.50610199 1.20438965 13.51531677 0.12045288 13.52481079 C-0.83999435 13.51924164 -1.80044159 13.51367249 -2.78999329 13.50793457 C-3.62530547 13.50940113 -4.46061766 13.51086769 -5.32124233 13.51237869 C-7.9866718 13.0499718 -8.87011849 12.29683143 -10.46517944 10.14044189 C-10.86779204 6.9195411 -11.09259435 5.006872 -9.15267944 2.32794189 C-6.17172547 0.23023355 -3.52576761 0.01319999 0 0 Z " fill="#000000" transform="translate(224.46517944335938,189.85955810546875)"/>
<path d="M0 0 C0.91404099 -0.00571014 1.82808197 -0.01142029 2.76982117 -0.01730347 C4.27070534 -0.01898026 4.27070534 -0.01898026 5.8019104 -0.02069092 C7.38522911 -0.02813828 7.38522911 -0.02813828 9.00053406 -0.03573608 C12.49894864 -0.05036378 15.99731789 -0.0571604 19.49575806 -0.06268311 C21.92329917 -0.06843363 24.35084027 -0.07419137 26.77838135 -0.07995605 C31.8710247 -0.09046748 36.96365225 -0.09630937 42.05630493 -0.09979248 C48.58565929 -0.10528044 55.11480545 -0.12931454 61.64409447 -0.15776443 C66.65920627 -0.17637571 71.67426774 -0.18159559 76.68941116 -0.18312836 C79.09678919 -0.18615833 81.50416626 -0.19419838 83.91151047 -0.20731354 C87.27748273 -0.22434364 90.64294393 -0.22250108 94.00894165 -0.21600342 C95.00548264 -0.2252182 96.00202362 -0.23443298 97.02876282 -0.243927 C105.64937238 -0.19172465 105.64937238 -0.19172465 109.53482056 3.14044189 C110.6518506 6.04472001 110.78017766 7.46099146 109.72232056 10.39044189 C108.53482056 12.14044189 108.53482056 12.14044189 106.53482056 13.14044189 C105.02123677 13.23901349 103.50339852 13.27547988 101.98661804 13.28088379 C100.55017693 13.28944901 100.55017693 13.28944901 99.0847168 13.29818726 C98.03063629 13.29930511 96.97655579 13.30042297 95.89053345 13.30157471 C94.22946312 13.30902206 94.22946312 13.30902206 92.53483582 13.31661987 C88.85904324 13.33126636 85.1832938 13.33804708 81.50747681 13.34356689 C78.96161395 13.34931557 76.41575112 13.35507334 73.86988831 13.36083984 C69.21093066 13.37001105 64.55198604 13.37630898 59.89302164 13.3793366 C53.03153359 13.38381983 46.17024451 13.40138006 39.30881697 13.43033719 C33.36931989 13.45453534 27.42987254 13.46227974 21.49032402 13.46401215 C18.96127679 13.46704722 16.43223057 13.47510429 13.90321541 13.48819733 C10.37148926 13.50517859 6.84025216 13.50339699 3.3085022 13.49688721 C2.25644592 13.50610199 1.20438965 13.51531677 0.12045288 13.52481079 C-0.83999435 13.51924164 -1.80044159 13.51367249 -2.78999329 13.50793457 C-3.62530547 13.50940113 -4.46061766 13.51086769 -5.32124233 13.51237869 C-7.9866718 13.0499718 -8.87011849 12.29683143 -10.46517944 10.14044189 C-10.86779204 6.9195411 -11.09259435 5.006872 -9.15267944 2.32794189 C-6.17172547 0.23023355 -3.52576761 0.01319999 0 0 Z " fill="#000000" transform="translate(224.46517944335938,165.85955810546875)"/>
<path d="M0 0 C0.96741623 -0.01134979 1.93483246 -0.02269958 2.93156433 -0.03439331 C4.52131828 -0.02999741 4.52131828 -0.02999741 6.14318848 -0.0255127 C7.26046829 -0.03398224 8.37774811 -0.04245178 9.52888489 -0.05117798 C13.23181456 -0.074628 16.93433072 -0.07556828 20.6373291 -0.07434082 C23.20418465 -0.08143698 25.77103861 -0.08913517 28.33789062 -0.09741211 C33.72144621 -0.11087498 39.10483925 -0.1125978 44.48840332 -0.10656738 C50.71376358 -0.09992251 56.93853193 -0.12280701 63.16377211 -0.15988111 C69.15085945 -0.1942447 75.13763164 -0.20091782 81.12483215 -0.1967926 C83.67342392 -0.19849048 86.22202301 -0.20819656 88.77055359 -0.22593689 C92.32884186 -0.24798123 95.88568794 -0.23849753 99.44396973 -0.2208252 C100.50380569 -0.23408844 101.56364166 -0.24735168 102.65559387 -0.26101685 C105.2977829 -0.23040358 107.71167271 -0.16540412 110.2935791 0.39440918 C112.51464844 2.72973633 112.51464844 2.72973633 113.2935791 5.39440918 C112.6060791 8.64440918 112.6060791 8.64440918 111.2935791 11.39440918 C108.90042138 12.59098804 107.41754997 12.5253308 104.74537659 12.53485107 C103.30893547 12.54341629 103.30893547 12.54341629 101.84347534 12.55215454 C100.78939484 12.5532724 99.73531433 12.55439026 98.64929199 12.55554199 C96.98822166 12.56298935 96.98822166 12.56298935 95.29359436 12.57058716 C91.61780179 12.58523365 87.94205235 12.59201436 84.26623535 12.59753418 C81.7203725 12.60328286 79.17450966 12.60904062 76.62864685 12.61480713 C71.9696892 12.62397834 67.31074458 12.63027627 62.65178019 12.63330388 C55.79029214 12.63778712 48.92900305 12.65534734 42.06757551 12.68430448 C36.12807843 12.70850263 30.18863109 12.71624703 24.24908257 12.71797943 C21.72003533 12.72101451 19.19098911 12.72907158 16.66197395 12.74216461 C13.13024781 12.75914588 9.5990107 12.75736428 6.06726074 12.75085449 C5.01520447 12.76006927 3.96314819 12.76928406 2.87921143 12.77877808 C1.91876419 12.77320892 0.95831696 12.76763977 -0.03123474 12.76190186 C-0.86654693 12.76336842 -1.70185911 12.76483498 -2.56248379 12.76634598 C-5.22791326 12.30393908 -6.11135995 11.55079872 -7.7064209 9.39440918 C-8.34794721 4.26219869 -8.34794721 4.26219869 -6.4771347 1.73155975 C-4.18559106 0.00110569 -2.85654504 0.01265913 0 0 Z " fill="#000000" transform="translate(221.7064208984375,310.6055908203125)"/>
<path d="M0 0 C0.64589584 -0.0049649 1.29179169 -0.00992981 1.95726013 -0.01504517 C4.0921231 -0.02963944 6.22691177 -0.03646404 8.36181641 -0.04199219 C9.84770713 -0.04774572 11.33359783 -0.05350343 12.81948853 -0.05926514 C15.93483831 -0.06976722 19.05016235 -0.07561512 22.16552734 -0.07910156 C26.15250539 -0.08458585 30.13914186 -0.10861551 34.1260128 -0.13707352 C37.19555651 -0.15572002 40.26501824 -0.16090655 43.3346138 -0.16243744 C44.80419406 -0.16545977 46.27377303 -0.17347419 47.74329758 -0.18662262 C49.80178394 -0.20372662 51.85943966 -0.20179294 53.91796875 -0.1953125 C55.08806488 -0.19895813 56.25816101 -0.20260376 57.4637146 -0.20635986 C60.93761819 0.20220695 62.81941398 1.0536435 65.58837891 3.16113281 C66.70540895 6.06541093 66.83373601 7.48168238 65.77587891 10.41113281 C64.58837891 12.16113281 64.58837891 12.16113281 62.58837891 13.16113281 C60.3273565 13.26863869 58.06310438 13.31005347 55.79956055 13.32226562 C55.10183029 13.32723053 54.40410004 13.33219543 53.68522644 13.33731079 C51.37298605 13.35193739 49.06081424 13.35873468 46.74853516 13.36425781 C45.14432269 13.37000821 43.54011024 13.37576595 41.93589783 13.38153076 C38.57078734 13.39204172 35.20570077 13.39788397 31.84057617 13.40136719 C27.5249301 13.40685667 23.20959879 13.43089374 18.89405155 13.45933914 C15.58010427 13.47794488 12.26623319 13.48316998 8.95223808 13.48470306 C7.36098952 13.48773406 5.76974244 13.49577764 4.178545 13.50888824 C1.95431538 13.52590861 -0.26914022 13.52407898 -2.4934082 13.51757812 C-3.75978622 13.52122375 -5.02616425 13.52486938 -6.33091736 13.52862549 C-9.41162109 13.16113281 -9.41162109 13.16113281 -11.3205719 11.82635498 C-13.03192808 9.21438453 -12.79096782 7.19590663 -12.41162109 4.16113281 C-9.24257374 -0.21517068 -5.02497134 0.02936275 0 0 Z " fill="#000000" transform="translate(196.41162109375,141.8388671875)"/>
<path d="M0 0 C0.64589584 -0.0049649 1.29179169 -0.00992981 1.95726013 -0.01504517 C4.0921231 -0.02963944 6.22691177 -0.03646404 8.36181641 -0.04199219 C9.84770713 -0.04774572 11.33359783 -0.05350343 12.81948853 -0.05926514 C15.93483831 -0.06976722 19.05016235 -0.07561512 22.16552734 -0.07910156 C26.15250539 -0.08458585 30.13914186 -0.10861551 34.1260128 -0.13707352 C37.19555651 -0.15572002 40.26501824 -0.16090655 43.3346138 -0.16243744 C44.80419406 -0.16545977 46.27377303 -0.17347419 47.74329758 -0.18662262 C49.80178394 -0.20372662 51.85943966 -0.20179294 53.91796875 -0.1953125 C55.08806488 -0.19895813 56.25816101 -0.20260376 57.4637146 -0.20635986 C60.93761819 0.20220695 62.81941398 1.0536435 65.58837891 3.16113281 C66.70540895 6.06541093 66.83373601 7.48168238 65.77587891 10.41113281 C64.58837891 12.16113281 64.58837891 12.16113281 62.58837891 13.16113281 C60.3273565 13.26863869 58.06310438 13.31005347 55.79956055 13.32226562 C55.10183029 13.32723053 54.40410004 13.33219543 53.68522644 13.33731079 C51.37298605 13.35193739 49.06081424 13.35873468 46.74853516 13.36425781 C45.14432269 13.37000821 43.54011024 13.37576595 41.93589783 13.38153076 C38.57078734 13.39204172 35.20570077 13.39788397 31.84057617 13.40136719 C27.5249301 13.40685667 23.20959879 13.43089374 18.89405155 13.45933914 C15.58010427 13.47794488 12.26623319 13.48316998 8.95223808 13.48470306 C7.36098952 13.48773406 5.76974244 13.49577764 4.178545 13.50888824 C1.95431538 13.52590861 -0.26914022 13.52407898 -2.4934082 13.51757812 C-3.75978622 13.52122375 -5.02616425 13.52486938 -6.33091736 13.52862549 C-9.41162109 13.16113281 -9.41162109 13.16113281 -11.3205719 11.82635498 C-13.03192808 9.21438453 -12.79096782 7.19590663 -12.41162109 4.16113281 C-9.24257374 -0.21517068 -5.02497134 0.02936275 0 0 Z " fill="#000000" transform="translate(196.41162109375,117.8388671875)"/>
<path d="M0 0 C0.64589584 -0.0049649 1.29179169 -0.00992981 1.95726013 -0.01504517 C4.0921231 -0.02963944 6.22691177 -0.03646404 8.36181641 -0.04199219 C9.84770713 -0.04774572 11.33359783 -0.05350343 12.81948853 -0.05926514 C15.93483831 -0.06976722 19.05016235 -0.07561512 22.16552734 -0.07910156 C26.15250539 -0.08458585 30.13914186 -0.10861551 34.1260128 -0.13707352 C37.19555651 -0.15572002 40.26501824 -0.16090655 43.3346138 -0.16243744 C44.80419406 -0.16545977 46.27377303 -0.17347419 47.74329758 -0.18662262 C49.80178394 -0.20372662 51.85943966 -0.20179294 53.91796875 -0.1953125 C55.08806488 -0.19895813 56.25816101 -0.20260376 57.4637146 -0.20635986 C60.93761819 0.20220695 62.81941398 1.0536435 65.58837891 3.16113281 C66.70540895 6.06541093 66.83373601 7.48168238 65.77587891 10.41113281 C64.58837891 12.16113281 64.58837891 12.16113281 62.58837891 13.16113281 C60.3273565 13.26863869 58.06310438 13.31005347 55.79956055 13.32226562 C55.10183029 13.32723053 54.40410004 13.33219543 53.68522644 13.33731079 C51.37298605 13.35193739 49.06081424 13.35873468 46.74853516 13.36425781 C45.14432269 13.37000821 43.54011024 13.37576595 41.93589783 13.38153076 C38.57078734 13.39204172 35.20570077 13.39788397 31.84057617 13.40136719 C27.5249301 13.40685667 23.20959879 13.43089374 18.89405155 13.45933914 C15.58010427 13.47794488 12.26623319 13.48316998 8.95223808 13.48470306 C7.36098952 13.48773406 5.76974244 13.49577764 4.178545 13.50888824 C1.95431538 13.52590861 -0.26914022 13.52407898 -2.4934082 13.51757812 C-3.75978622 13.52122375 -5.02616425 13.52486938 -6.33091736 13.52862549 C-9.41162109 13.16113281 -9.41162109 13.16113281 -11.3205719 11.82635498 C-13.03192808 9.21438453 -12.79096782 7.19590663 -12.41162109 4.16113281 C-9.24257374 -0.21517068 -5.02497134 0.02936275 0 0 Z " fill="#000000" transform="translate(196.41162109375,93.8388671875)"/>
</svg>
