<?xml version="1.0" encoding="UTF-8"?>
<svg version="1.1" xmlns="http://www.w3.org/2000/svg" width="512" height="512">
<path d="M0 0 C10.77002043 7.75501471 16.7589896 17.22104554 19.6875 30 C20.65720348 39.3091534 19.92477287 48.54138924 15.421875 56.9453125 C12.39029355 63.81790107 13.56418973 72.32323205 13.56054688 79.7109375 C13.38743024 91.62613788 10.82160065 101.73951998 3 111 C1.74633073 111.9197 0.47549421 112.81652031 -0.8125 113.6875 C-3.62793028 115.85178451 -3.97960065 116.89308338 -4.6640625 120.48046875 C-4.91120675 124.00050901 -5.03382823 127.47219844 -5 131 C-4.34515625 131.01417969 -3.6903125 131.02835938 -3.015625 131.04296875 C10.57695806 131.75331561 22.33276504 137.88048442 31.6875 147.625 C40.19401071 157.48481923 44.30441056 168.42161535 44.29052734 181.28417969 C44.29724457 182.18746506 44.30396179 183.09075043 44.31088257 184.02140808 C44.3297846 186.98828721 44.33378169 189.95493953 44.3359375 192.921875 C44.34236685 194.98976738 44.34909531 197.05765884 44.35610962 199.12554932 C44.36805993 203.44944369 44.37179235 207.77325826 44.37060547 212.09716797 C44.37040149 217.6447242 44.39779517 223.1917727 44.43214989 228.73920822 C44.45434395 233.00450001 44.45844545 237.26966766 44.45738602 241.53501129 C44.45974977 243.58120741 44.46861658 245.62740656 44.48405075 247.67354584 C44.50357515 250.52719822 44.4979282 253.37972927 44.48583984 256.23339844 C44.49707886 257.08123398 44.50831787 257.92906952 44.51989746 258.80259705 C44.4582618 264.50789155 44.4582618 264.50789155 42.11276245 267.02662659 C39.63829278 268.16664258 37.95381785 268.34526573 35.234375 268.29296875 C34.34492188 268.28330078 33.45546875 268.27363281 32.5390625 268.26367188 C31.61867187 268.23853516 30.69828125 268.21339844 29.75 268.1875 C28.81414062 268.17396484 27.87828125 268.16042969 26.9140625 268.14648438 C24.60878673 268.11119954 22.3046894 268.06190281 20 268 C20.061875 269.2375 20.12375 270.475 20.1875 271.75 C20.32226407 274.44528141 20.14446897 275.74373077 18.8059082 278.11816406 C17 280 17 280 14.51953125 280.390625 C13.62621094 280.34421875 12.73289062 280.2978125 11.8125 280.25 C10.91144531 280.21390625 10.01039063 280.1778125 9.08203125 280.140625 C8.39496094 280.09421875 7.70789063 280.0478125 7 280 C7.00444122 281.19603348 7.00888245 282.39206696 7.01345825 283.62434387 C7.05395503 294.88124894 7.08396067 306.13813928 7.10362434 317.39510059 C7.11407337 323.18278343 7.12825299 328.97040758 7.15087891 334.75805664 C7.17256737 340.34067552 7.1845602 345.92323786 7.18975449 351.50589561 C7.19345743 353.63860655 7.2006881 355.77131429 7.21146011 357.90400124 C7.22592186 360.88504412 7.22798017 363.86585166 7.22705078 366.84692383 C7.23424133 367.7338089 7.24143188 368.62069397 7.24884033 369.53445435 C7.246091 370.34633713 7.24334167 371.15821991 7.24050903 371.9947052 C7.24235262 372.69987683 7.24419621 373.40504847 7.24609566 374.13158894 C7 376 7 376 5 379 C2.12220764 379.38768005 2.12220764 379.38768005 -1.60522461 379.40405273 C-2.62255928 379.41434761 -2.62255928 379.41434761 -3.66044617 379.42485046 C-5.90795686 379.44318894 -8.15477412 379.43927113 -10.40234375 379.43359375 C-11.96171802 379.43815244 -13.52109028 379.44345708 -15.08045959 379.44947815 C-18.35149284 379.45842324 -21.62228213 379.45597071 -24.89331055 379.44604492 C-29.08806801 379.43455745 -33.28198342 379.45475532 -37.47663021 379.48396206 C-40.6979763 379.5022976 -43.91911967 379.50203689 -47.14050484 379.49632454 C-48.68709049 379.49617097 -50.23368958 379.50224425 -51.78022575 379.51461601 C-53.94248302 379.52947423 -56.10317308 379.51888957 -58.26538086 379.50170898 C-59.4962291 379.50154282 -60.72707733 379.50137665 -61.995224 379.50120544 C-65 379 -65 379 -66.89962769 377.54206848 C-68.57922156 373.66188847 -68.39221637 370.00942536 -68.34057617 365.82519531 C-68.34123329 364.43443535 -68.34123329 364.43443535 -68.34190369 363.01557922 C-68.33981472 359.95287981 -68.31647828 356.89072871 -68.29296875 353.828125 C-68.28737319 351.7039215 -68.2831029 349.57971413 -68.28010559 347.45550537 C-68.26865373 341.86587832 -68.23918341 336.2764853 -68.20599365 330.68695068 C-68.17530025 324.98273891 -68.1616018 319.27848931 -68.14648438 313.57421875 C-68.1143142 302.3827097 -68.06311356 291.19137432 -68 280 C-68.61488281 280.03480469 -69.22976562 280.06960938 -69.86328125 280.10546875 C-70.67152344 280.13253906 -71.47976562 280.15960938 -72.3125 280.1875 C-73.51326172 280.23970703 -73.51326172 280.23970703 -74.73828125 280.29296875 C-77 280 -77 280 -78.7746582 278.62963867 C-80.4243748 276.43560434 -80.30537121 275.02353778 -80.1875 272.3125 C-80.16042969 271.50425781 -80.13335937 270.69601562 -80.10546875 269.86328125 C-80.07066406 269.24839844 -80.03585938 268.63351562 -80 268 C-80.92280762 268.0314209 -80.92280762 268.0314209 -81.86425781 268.06347656 C-84.65933809 268.14677017 -87.45415715 268.19870013 -90.25 268.25 C-91.21808594 268.28351563 -92.18617187 268.31703125 -93.18359375 268.3515625 C-94.11816406 268.36445313 -95.05273438 268.37734375 -96.015625 268.390625 C-97.30388184 268.4220459 -97.30388184 268.4220459 -98.61816406 268.45410156 C-101.97149769 267.81478211 -102.94376325 266.72307073 -105 264 C-105.3895979 261.09197018 -105.53729191 258.56443876 -105.50170898 255.65820312 C-105.50711197 254.81858032 -105.51251495 253.97895752 -105.51808167 253.1138916 C-105.5305939 250.33598626 -105.51405034 247.55911316 -105.49609375 244.78125 C-105.4962488 242.8427322 -105.49773871 240.90421408 -105.50050354 238.96569824 C-105.50188905 234.89691506 -105.48931324 230.82848367 -105.46655273 226.75976562 C-105.43831913 221.57287878 -105.44086215 216.38658315 -105.45364285 211.19965363 C-105.46064201 207.19131532 -105.45276016 203.18311066 -105.44038582 199.17478943 C-105.43590163 197.26444514 -105.43550769 195.35408633 -105.43945122 193.44374084 C-105.45943742 175.22445274 -103.44681039 160.03711354 -90.375 146.3203125 C-80.1578965 136.33847125 -69.35322834 131.57412913 -55 131 C-55 126.38 -55 121.76 -55 117 C-56.32 116.34 -57.64 115.68 -59 115 C-67.38586754 108.60529735 -72.34436407 98.28140169 -74 88 C-74.33641895 82.9537157 -74.36559443 77.89992497 -74.390625 72.84375 C-74.52263528 67.03529765 -75.08017695 62.92791191 -77.98876953 57.88183594 C-79.72663931 54.6477702 -80.45738323 51.1883116 -81.25 47.625 C-81.41765869 46.88185547 -81.58531738 46.13871094 -81.75805664 45.37304688 C-83.68671978 36.37588728 -84.04222243 28.49192697 -80 20 C-76.60722264 14.86236571 -72.79438053 11.9174894 -67 10 C-65.56541126 9.87628317 -64.12674804 9.79376962 -62.6875 9.75 C-57.23671305 9.37601805 -54.03140481 6.35178267 -49.84765625 3.07421875 C-35.7746379 -7.17649832 -15.16887648 -8.86573298 0 0 Z M-39 12 C-39.78117187 12.47050781 -40.56234375 12.94101563 -41.3671875 13.42578125 C-44.91780142 15.67838385 -47.65826441 17.57513953 -50.3125 20.875 C-54.18851521 23.93975621 -57.45364659 23.0731297 -62.2421875 22.85546875 C-65.241214 22.73072105 -65.241214 22.73072105 -67.6875 25.3125 C-71.8785773 33.89422971 -69.42735934 41.20082238 -67 50 C-63.58046512 48.4572331 -60.83760193 46.4138907 -57.875 44.125 C-47.26234858 36.29692646 -37.0438666 34.04818651 -24 35 C-14.57169836 36.86435343 -6.40167987 40.77472954 1.15234375 46.68359375 C2.89336915 48.19342017 2.89336915 48.19342017 5 48 C7.77741838 40.81138773 7.64375617 33.4283282 4.953125 26.1796875 C1.00627942 18.01800065 -3.24458891 13.08515476 -11.5078125 9.17578125 C-20.84340689 6.03258896 -30.63230722 6.82984761 -39 12 Z M-54 57 C-54.67675781 57.47050781 -55.35351562 57.94101563 -56.05078125 58.42578125 C-59.09797944 60.98445067 -60.71529645 63.23553144 -61.36083984 67.23632812 C-62.3897889 79.58371682 -61.78413434 91.47303503 -53.6875 101.375 C-47.99188804 107.31401418 -42.31619073 111.4198066 -33.921875 112.3359375 C-22.8648882 112.47210729 -15.08322555 110.041048 -6.98046875 102.33984375 C-1.64079086 96.03123023 0.26752869 89.08886892 1 81 C1.10078857 79.95875977 1.10078857 79.95875977 1.20361328 78.89648438 C2.07342371 69.83415928 2.07342371 69.83415928 -0.43359375 61.33203125 C-2.48801874 59.19493322 -4.51746032 57.61747318 -7 56 C-7.80566406 55.44054687 -8.61132812 54.88109375 -9.44140625 54.3046875 C-25.05312611 44.1900521 -39.8013606 44.67499549 -54 57 Z M-42 124 C-43.0425833 134.1971905 -43.0425833 134.1971905 -39.59375 138.48046875 C-38.58960877 139.41288561 -37.55735743 140.31589455 -36.5 141.1875 C-35.97535156 141.66251953 -35.45070313 142.13753906 -34.91015625 142.62695312 C-33.63070235 143.77846163 -32.31849383 144.89340696 -31 146 C-27.59137511 144.49113623 -25.01320861 142.55932085 -22.25 140.0625 C-21.45078125 139.37285156 -20.6515625 138.68320313 -19.828125 137.97265625 C-17.03961274 134.01997851 -17.03961274 134.01997851 -18 124 C-25.92 124 -33.84 124 -42 124 Z M-82 157 C-82.49628906 157.54140625 -82.99257812 158.0828125 -83.50390625 158.640625 C-94.52462998 171.78815506 -92.48004319 188.7452855 -92.25 204.8125 C-92.22990475 207.25844892 -92.21165933 209.70441378 -92.1953125 212.15039062 C-92.15155656 218.10065855 -92.08269422 224.05015104 -92 230 C-88.04 230 -84.08 230 -80 230 C-79.98018066 228.79875488 -79.96036133 227.59750977 -79.93994141 226.35986328 C-79.8640038 221.91303146 -79.77526868 217.46653195 -79.68261719 213.02001953 C-79.64427832 211.09365386 -79.60943418 209.1672154 -79.578125 207.24072266 C-79.53258055 204.47532082 -79.47456963 201.71042231 -79.4140625 198.9453125 C-79.40251129 198.0806839 -79.39096008 197.2160553 -79.37905884 196.32522583 C-79.22774341 190.22774341 -79.22774341 190.22774341 -77 188 C-73.5 187.6875 -73.5 187.6875 -70 188 C-67.61130949 191.58303576 -67.69393034 194.17724734 -67.68115234 198.31713867 C-67.67110672 199.05884811 -67.6610611 199.80055756 -67.65071106 200.56474304 C-67.61982576 203.01581041 -67.60282927 205.46676829 -67.5859375 207.91796875 C-67.56723013 209.61762945 -67.54765704 211.31728083 -67.5272522 213.016922 C-67.47587936 217.49012762 -67.43628128 221.96336338 -67.39910889 226.43670654 C-67.35206728 231.80409436 -67.29044742 237.1713321 -67.23126221 242.53859711 C-67.14298714 250.69233766 -67.07326795 258.84604854 -67 267 C-42.58 267 -18.16 267 7 267 C7.33 240.93 7.66 214.86 8 188 C10.97 188 13.94 188 17 188 C19.60368313 191.9055247 19.35148497 195.28663889 19.4140625 199.82421875 C19.43342865 200.68561966 19.4527948 201.54702057 19.4727478 202.43452454 C19.5325203 205.18541568 19.57891948 207.93634873 19.625 210.6875 C19.66318194 212.55275261 19.7022338 214.41798763 19.7421875 216.28320312 C19.8382199 220.85532586 19.9222595 225.42753114 20 230 C23.96 230 27.92 230 32 230 C32.04982193 223.52621554 32.08591768 217.05254527 32.10986328 210.57861328 C32.11985682 208.38100233 32.13345618 206.18340445 32.15087891 203.98583984 C32.86878571 177.6288666 32.86878571 177.6288666 20.625 155.0625 C14.16439505 149.25219664 7.4883506 145.86661963 -1 144 C-1.66902344 143.81308594 -2.33804688 143.62617188 -3.02734375 143.43359375 C-5.47634937 143.03794662 -6.65933318 143.0942085 -9 144 C-13.02863467 147.37057084 -16.5272202 151.06758757 -20 155 C-18.02906866 159.89917219 -14.05471925 162.80427775 -10.21484375 166.26953125 C-7.52014336 169.59156929 -7.09949598 171.76147109 -7 176 C-8.63956408 178.204931 -9.86540699 179.35305109 -12 181 C-12.845625 181.68835938 -13.69125 182.37671875 -14.5625 183.0859375 C-17.02491735 185.07965609 -19.5048587 187.04749137 -22 189 C-20.64858969 191.87630313 -19.29348278 194.75084987 -17.9375 197.625 C-17.53281494 198.48496582 -17.12812988 199.34493164 -16.71118164 200.23095703 C-14.810535 204.25185736 -12.89248141 208.25528863 -10.84375 212.203125 C-10.52027588 212.82880371 -10.19680176 213.45448242 -9.86352539 214.09912109 C-8.98901471 215.77620801 -8.10230147 217.4469156 -7.21484375 219.1171875 C-5.94136307 222.13914487 -5.43094138 223.77881499 -6 227 C-7.6171875 229.32421875 -7.6171875 229.32421875 -9.875 231.6875 C-10.68839844 232.54601562 -11.50179687 233.40453125 -12.33984375 234.2890625 C-13.21769531 235.18367188 -14.09554687 236.07828125 -15 237 C-16.36318359 238.40378906 -16.36318359 238.40378906 -17.75390625 239.8359375 C-25.66169881 247.87034683 -25.66169881 247.87034683 -30.30883789 248.32055664 C-34.7401177 247.93572495 -35.9407628 246.95820098 -39.05859375 243.87109375 C-40.37827148 242.56495117 -40.37827148 242.56495117 -41.72460938 241.23242188 C-42.61986328 240.31009766 -43.51511719 239.38777344 -44.4375 238.4375 C-45.35982422 237.54224609 -46.28214844 236.64699219 -47.23242188 235.72460938 C-48.10318359 234.84482422 -48.97394531 233.96503906 -49.87109375 233.05859375 C-50.66443115 232.25736084 -51.45776855 231.45612793 -52.27514648 230.63061523 C-54.58066781 227.11440968 -54.53177751 225.14596736 -54 221 C-52.99030987 218.47356239 -51.97395347 216.26118785 -50.68359375 213.89453125 C-50.3482814 213.24804123 -50.01296906 212.60155121 -49.66749573 211.93547058 C-48.60416086 209.88715998 -47.52298813 207.84914679 -46.4375 205.8125 C-45.34927803 203.76477566 -44.26567428 201.71528636 -43.1967926 199.65739441 C-42.5339343 198.38142138 -41.85995393 197.11114963 -41.1736908 195.84761047 C-39.88799656 193.37486625 -38.96797304 191.54733773 -39.13305664 188.72607422 C-40.61581091 185.77392758 -43.35715031 184.16066793 -46 182.3125 C-47.10441426 181.51727083 -48.20859289 180.72171428 -49.3125 179.92578125 C-50.6428125 178.97251953 -50.6428125 178.97251953 -52 178 C-53 177 -53 177 -53.46875 173.87109375 C-52.82113 168.52283192 -50.37131352 166.56760819 -46.5 163.0625 C-45.87996094 162.47404297 -45.25992188 161.88558594 -44.62109375 161.27929688 C-43.09611259 159.83643008 -41.55004525 158.41590672 -40 157 C-42.37175668 151.58593764 -46.31959614 147.53418251 -51 144 C-61.82061065 140.45696819 -75.15071962 149.46579158 -82 157 Z M-32.5078125 167.3125 C-33.04148437 167.869375 -33.57515625 168.42625 -34.125 169 C-34.66382813 169.556875 -35.20265625 170.11375 -35.7578125 170.6875 C-36.16773438 171.120625 -36.57765625 171.55375 -37 172 C-35.85331791 175.44004627 -35.12056696 176.26635169 -32 178 C-29.43810155 178.15474612 -29.43810155 178.15474612 -27 177 C-24.68392126 174.54366927 -24.68392126 174.54366927 -23 172 C-23.9520721 170.99403703 -24.91187346 169.99538437 -25.875 169 C-26.67550781 168.1646875 -26.67550781 168.1646875 -27.4921875 167.3125 C-29.58429649 165.49138958 -30.41570351 165.49138958 -32.5078125 167.3125 Z M-31 202 C-34.3 208.6 -37.6 215.2 -41 222 C-36.15325943 227.6937359 -36.15325943 227.6937359 -31 233 C-27.92303338 231.61502389 -25.63354218 230.00995268 -23.1875 227.6875 C-22.56230469 227.11386719 -21.93710938 226.54023438 -21.29296875 225.94921875 C-19.79638871 224.08709212 -19.79638871 224.08709212 -20.015625 221.8203125 C-21.44955636 217.71198536 -23.47668706 213.99818122 -25.5625 210.1875 C-25.98724609 209.39923828 -26.41199219 208.61097656 -26.84960938 207.79882812 C-27.89396554 205.8626622 -28.9442077 203.92994633 -30 202 C-30.33 202 -30.66 202 -31 202 Z M-92 243 C-92 246.96 -92 250.92 -92 255 C-88.04 255 -84.08 255 -80 255 C-80 251.04 -80 247.08 -80 243 C-83.96 243 -87.92 243 -92 243 Z M20 243 C20 246.96 20 250.92 20 255 C23.96 255 27.92 255 32 255 C32 251.04 32 247.08 32 243 C28.04 243 24.08 243 20 243 Z M-55 280 C-55 300.46 -55 320.92 -55 342 C-49.06 342 -43.12 342 -37 342 C-37 321.54 -37 301.08 -37 280 C-42.94 280 -48.88 280 -55 280 Z M-24 280 C-24 300.46 -24 320.92 -24 342 C-18.06 342 -12.12 342 -6 342 C-6 321.54 -6 301.08 -6 280 C-11.94 280 -17.88 280 -24 280 Z M-55 355 C-55 358.96 -55 362.92 -55 367 C-49.06 367 -43.12 367 -37 367 C-37 363.04 -37 359.08 -37 355 C-42.94 355 -48.88 355 -55 355 Z M-24 355 C-24 358.96 -24 362.92 -24 367 C-18.06 367 -12.12 367 -6 367 C-6 363.04 -6 359.08 -6 355 C-11.94 355 -17.88 355 -24 355 Z " fill="#000000" transform="translate(195,65)"/>
<path d="M0 0 C0.65396381 -0.00623996 1.30792763 -0.01247993 1.98170853 -0.01890898 C4.17144147 -0.03485478 6.36006364 -0.02222988 8.54980469 -0.00964355 C10.12024586 -0.01506402 11.69068195 -0.02218626 13.2611084 -0.03088379 C17.52559358 -0.04912925 21.78969196 -0.0420447 26.05418396 -0.02936745 C30.51529998 -0.01924606 34.9763827 -0.02863072 39.4375 -0.03491211 C46.92942252 -0.04219104 54.42118735 -0.03259441 61.91308594 -0.0135498 C70.57692221 0.00821946 79.24038198 0.00116826 87.90420914 -0.02085543 C95.34041697 -0.03900247 102.7765114 -0.04157117 110.21273422 -0.03110075 C114.65510989 -0.02486197 119.09730853 -0.02404068 123.53967285 -0.0372467 C127.71602519 -0.04879453 131.89189172 -0.04079938 136.06819153 -0.01766968 C137.6016611 -0.01237682 139.1351715 -0.01390626 140.66862488 -0.02272034 C142.76075646 -0.03363768 144.8513275 -0.01996166 146.94335938 0 C148.11437195 0.0015081 149.28538452 0.0030162 150.49188232 0.00457001 C154.10920407 0.61562887 155.29228044 1.60338942 157.47167969 4.50793457 C157.98925781 7.65246582 157.98925781 7.65246582 158.00292969 11.32043457 C158.00675659 11.97116943 158.0105835 12.6219043 158.01452637 13.2923584 C158.01724045 14.66403761 158.00991421 16.03576901 157.99316406 17.40734863 C157.97174088 19.50195142 157.99297605 21.59312541 158.01855469 23.68762207 C158.01591131 25.02356711 158.01078612 26.35951002 158.00292969 27.69543457 C157.99841797 28.90586426 157.99390625 30.11629395 157.98925781 31.36340332 C157.35682905 35.20570635 156.52234553 36.15128678 153.47167969 38.50793457 C150.49188232 39.01129913 150.49188232 39.01129913 146.94335938 39.01586914 C146.28939556 39.0221091 145.63543175 39.02834907 144.96165085 39.03477812 C142.7719179 39.05072392 140.58329574 39.03809902 138.39355469 39.0255127 C136.82311351 39.03093316 135.25267742 39.0380554 133.68225098 39.04675293 C129.4177658 39.0649984 125.15366741 39.05791384 120.88917542 39.04523659 C116.4280594 39.0351152 111.96697668 39.04449987 107.50585938 39.05078125 C100.01393686 39.05806018 92.52217202 39.04846355 85.03027344 39.02941895 C76.36643716 39.00764968 67.70297739 39.01470089 59.03915024 39.03672457 C51.60294241 39.05487161 44.16684797 39.05744031 36.73062515 39.04696989 C32.28824949 39.04073111 27.84605084 39.03990982 23.40368652 39.05311584 C19.22733419 39.06466367 15.05146765 39.05666852 10.87516785 39.03353882 C9.34169827 39.02824596 7.80818787 39.0297754 6.2747345 39.03858948 C4.18260291 39.04950682 2.09203188 39.0358308 0 39.01586914 C-1.17101257 39.01436104 -2.34202515 39.01285294 -3.54852295 39.01129913 C-7.16584469 38.40024027 -8.34892107 37.41247972 -10.52832031 34.50793457 C-11.04589844 31.36340332 -11.04589844 31.36340332 -11.05957031 27.69543457 C-11.06339722 27.04469971 -11.06722412 26.39396484 -11.07116699 25.72351074 C-11.07388107 24.35183153 -11.06655484 22.98010013 -11.04980469 21.60852051 C-11.02838151 19.51391772 -11.04961668 17.42274373 -11.07519531 15.32824707 C-11.07255194 13.99230203 -11.06742675 12.65635912 -11.05957031 11.32043457 C-11.05505859 10.11000488 -11.05054688 8.8995752 -11.04589844 7.65246582 C-9.96816918 1.10475221 -6.11729628 0.00787823 0 0 Z M2.47167969 13.50793457 C2.47167969 17.46793457 2.47167969 21.42793457 2.47167969 25.50793457 C26.89167969 25.50793457 51.31167969 25.50793457 76.47167969 25.50793457 C76.47167969 21.54793457 76.47167969 17.58793457 76.47167969 13.50793457 C52.05167969 13.50793457 27.63167969 13.50793457 2.47167969 13.50793457 Z M89.47167969 13.50793457 C89.47167969 17.46793457 89.47167969 21.42793457 89.47167969 25.50793457 C107.62167969 25.50793457 125.77167969 25.50793457 144.47167969 25.50793457 C144.47167969 21.54793457 144.47167969 17.58793457 144.47167969 13.50793457 C126.32167969 13.50793457 108.17167969 13.50793457 89.47167969 13.50793457 Z " fill="#000000" transform="translate(280.5283203125,108.4920654296875)"/>
<path d="M0 0 C0.64423672 -0.00367669 1.28847344 -0.00735338 1.95223248 -0.01114148 C4.11473897 -0.02217 6.27719739 -0.02602069 8.43972778 -0.02983093 C9.9886897 -0.0360961 11.53765012 -0.04274294 13.08660889 -0.04974365 C18.17582148 -0.07077589 23.26503435 -0.08114356 28.35427856 -0.09111023 C30.10594829 -0.09515775 31.85761786 -0.09927467 33.60928726 -0.10346031 C41.83670381 -0.1225082 50.06411139 -0.13674146 58.29154575 -0.14507228 C67.79221582 -0.15485107 77.2926533 -0.18118892 86.79324138 -0.22157317 C94.13514718 -0.25171213 101.47698621 -0.26653894 108.81895268 -0.26985329 C113.204967 -0.27220586 117.59073272 -0.28119327 121.97668076 -0.30631447 C126.10207688 -0.32956223 130.22706012 -0.3338419 134.35250473 -0.32355309 C135.86622489 -0.32305684 137.37996516 -0.32940332 138.89362335 -0.34310913 C140.96131664 -0.36078365 143.02752086 -0.35374611 145.09521484 -0.34057617 C146.25185575 -0.34296453 147.40849667 -0.34535288 148.6001873 -0.34781361 C152.3578372 0.2571749 154.02679574 1.45232767 156.67459106 4.14717102 C157.30569458 7.29170227 157.30569458 7.29170227 157.30349731 10.95967102 C157.30590927 11.61040588 157.30832123 12.26114075 157.31080627 12.93159485 C157.30982958 14.30332044 157.29647759 15.6750863 157.27151489 17.04658508 C157.23718602 19.14137693 157.25086045 21.23195063 157.27029419 23.32685852 C157.26339533 24.6628139 157.25372256 25.99875843 157.24099731 27.33467102 C157.23012085 28.54510071 157.21924438 29.7555304 157.20803833 31.00263977 C156.55733276 34.83837789 155.7244745 35.79345241 152.67459106 38.14717102 C149.67638302 38.64774227 149.67638302 38.64774227 146.10157776 38.64837646 C145.11344836 38.65667806 145.11344836 38.65667806 144.10535675 38.66514736 C141.8994533 38.67875368 139.69468141 38.66378638 137.48880005 38.64888 C135.90688598 38.65266319 134.32497522 38.65816322 132.74307251 38.66525269 C128.44764973 38.67922368 124.15262675 38.66802665 119.85722613 38.65154147 C115.3649531 38.63770167 110.87270352 38.64414973 106.38041687 38.64767456 C98.83721463 38.65037725 91.29417147 38.63689507 83.75100708 38.61372375 C75.02471564 38.58710398 66.29869003 38.58536973 57.5723719 38.59711212 C49.1831372 38.60788287 40.79399885 38.601709 32.4047718 38.58755684 C28.83184601 38.58179188 25.25899061 38.58188368 21.68606377 38.58662224 C17.481051 38.59138682 13.27633019 38.58131214 9.07137299 38.55966759 C7.52619728 38.55409278 5.98099355 38.55364078 4.43581581 38.55862045 C2.33042444 38.56455575 0.22593105 38.55210358 -1.87937927 38.53485107 C-3.05868798 38.53242118 -4.23799669 38.52999128 -5.45304203 38.52748775 C-8.32540894 38.14717102 -8.32540894 38.14717102 -10.20501614 36.81910801 C-12.04782951 34.06911904 -11.69637229 31.435634 -11.68869019 28.17842102 C-11.68918869 27.50170349 -11.68968719 26.82498596 -11.69020081 26.12776184 C-11.68786317 24.69881754 -11.67815276 23.2698689 -11.66159058 21.84101868 C-11.63799274 19.65493415 -11.64103188 17.47006935 -11.64767456 15.28388977 C-11.60465175 4.56603524 -11.60465175 4.56603524 -9.32540894 1.14717102 C-5.99781266 0.03797226 -3.50651687 0.0129641 0 0 Z M1.67459106 13.14717102 C1.67459106 17.10717102 1.67459106 21.06717102 1.67459106 25.14717102 C36.32459106 25.14717102 70.97459106 25.14717102 106.67459106 25.14717102 C106.67459106 21.18717102 106.67459106 17.22717102 106.67459106 13.14717102 C72.02459106 13.14717102 37.37459106 13.14717102 1.67459106 13.14717102 Z M119.67459106 13.14717102 C119.67459106 17.10717102 119.67459106 21.06717102 119.67459106 25.14717102 C127.59459106 25.14717102 135.51459106 25.14717102 143.67459106 25.14717102 C143.67459106 21.18717102 143.67459106 17.22717102 143.67459106 13.14717102 C135.75459106 13.14717102 127.83459106 13.14717102 119.67459106 13.14717102 Z " fill="#000000" transform="translate(281.3254089355469,207.8528289794922)"/>
<path d="M0 0 C0.99297309 -0.00807831 0.99297309 -0.00807831 2.00600624 -0.01631981 C4.22863877 -0.03065038 6.45068001 -0.02348354 8.67333984 -0.01637268 C10.2649585 -0.02207357 11.85657307 -0.02903674 13.44818115 -0.03717041 C17.77457196 -0.05514703 22.10076046 -0.05392516 26.42717743 -0.04822803 C30.03575675 -0.04514301 33.64429682 -0.05122086 37.25287056 -0.05726677 C45.76350275 -0.07132484 54.27403459 -0.06973975 62.78466797 -0.05836487 C71.57288995 -0.04687875 80.36080694 -0.06096462 89.14898872 -0.08776134 C96.68790911 -0.10989053 104.22673356 -0.11656213 111.76568413 -0.11068493 C116.27121151 -0.10730789 120.7765433 -0.10977984 125.28204346 -0.12693596 C129.517453 -0.14235915 133.75240926 -0.13850151 137.9878006 -0.11963081 C139.54427247 -0.1159322 141.10077759 -0.1190903 142.65721893 -0.1295166 C144.77819284 -0.14264247 146.89764731 -0.1312569 149.01855469 -0.11352539 C150.20653656 -0.11331611 151.39451843 -0.11310682 152.61849976 -0.1128912 C155.50927734 0.38768005 155.50927734 0.38768005 157.39068604 2.2282095 C158.94262716 5.22427351 158.89797153 7.61673935 158.90771484 10.98143005 C158.91158203 12.25889099 158.91544922 13.53635193 158.91943359 14.8525238 C158.91314941 15.5149408 158.90686523 16.17735779 158.90039062 16.85984802 C158.8843262 18.88153094 158.90025499 20.90121518 158.91943359 22.9228363 C158.91556641 24.20029724 158.91169922 25.47775818 158.90771484 26.79393005 C158.90433105 27.96246521 158.90094727 29.13100037 158.89746094 30.33494568 C158.45745624 33.79520906 157.98288226 34.96782163 155.50927734 37.38768005 C152.61849976 37.8882513 152.61849976 37.8882513 149.01855469 37.8888855 C148.35657263 37.89441989 147.69459057 37.89995429 147.01254845 37.9056564 C144.78972438 37.91929254 142.56801749 37.90427917 140.34521484 37.88938904 C138.75359621 37.89317117 137.16198086 37.89867034 135.57037354 37.90576172 C131.24390204 37.91974753 126.91782683 37.90852483 122.59137726 37.8920505 C118.06840181 37.87822194 113.54544988 37.88465757 109.02246094 37.88818359 C101.4262044 37.89088746 93.8301057 37.877395 86.23388672 37.85423279 C77.44570063 37.82762191 68.65777853 37.82587528 59.86956596 37.83762115 C51.42320241 37.84839224 42.97693456 37.84221714 34.53057861 37.82806587 C30.9325332 37.82230024 27.33455769 37.82239327 23.73651123 37.82713127 C19.50114384 37.83189599 15.26606631 37.82182055 11.03075409 37.80017662 C9.47429126 37.79460165 7.91780061 37.79414995 6.36133575 37.79912949 C4.2405665 37.80506456 2.12068879 37.79261292 0 37.77536011 C-1.78197281 37.77171526 -1.78197281 37.77171526 -3.59994507 37.76799679 C-6.49072266 37.38768005 -6.49072266 37.38768005 -8.37213135 36.05961704 C-10.21121562 33.31077304 -9.88044448 30.67444232 -9.88916016 27.41893005 C-9.89203033 26.74221252 -9.89490051 26.065495 -9.89785767 25.36827087 C-9.89989663 23.93934796 -9.89437834 22.51039703 -9.88183594 21.08152771 C-9.86577776 18.89518281 -9.881688 16.71068626 -9.90087891 14.5243988 C-9.89889644 13.13507181 -9.8950527 11.74574597 -9.88916016 10.35643005 C-9.88577637 9.09250427 -9.88239258 7.82857849 -9.87890625 6.52635193 C-9.49072266 3.38768005 -9.49072266 3.38768005 -8.37213135 1.71574306 C-5.59106584 -0.24737651 -3.38217903 0.0069179 0 0 Z M3.50927734 13.38768005 C3.50927734 17.34768005 3.50927734 21.30768005 3.50927734 25.38768005 C31.88927734 25.38768005 60.26927734 25.38768005 89.50927734 25.38768005 C89.50927734 21.42768005 89.50927734 17.46768005 89.50927734 13.38768005 C61.12927734 13.38768005 32.74927734 13.38768005 3.50927734 13.38768005 Z M102.50927734 13.38768005 C102.50927734 17.34768005 102.50927734 21.30768005 102.50927734 25.38768005 C116.69927734 25.38768005 130.88927734 25.38768005 145.50927734 25.38768005 C145.50927734 21.42768005 145.50927734 17.46768005 145.50927734 13.38768005 C131.31927734 13.38768005 117.12927734 13.38768005 102.50927734 13.38768005 Z " fill="#000000" transform="translate(279.49072265625,406.61231994628906)"/>
<path d="M0 0 C0.99297309 -0.00807831 0.99297309 -0.00807831 2.00600624 -0.01631981 C4.22863877 -0.03065038 6.45068001 -0.02348354 8.67333984 -0.01637268 C10.2649585 -0.02207357 11.85657307 -0.02903674 13.44818115 -0.03717041 C17.77457196 -0.05514703 22.10076046 -0.05392516 26.42717743 -0.04822803 C30.03575675 -0.04514301 33.64429682 -0.05122086 37.25287056 -0.05726677 C45.76350275 -0.07132484 54.27403459 -0.06973975 62.78466797 -0.05836487 C71.57288995 -0.04687875 80.36080694 -0.06096462 89.14898872 -0.08776134 C96.68790911 -0.10989053 104.22673356 -0.11656213 111.76568413 -0.11068493 C116.27121151 -0.10730789 120.7765433 -0.10977984 125.28204346 -0.12693596 C129.517453 -0.14235915 133.75240926 -0.13850151 137.9878006 -0.11963081 C139.54427247 -0.1159322 141.10077759 -0.1190903 142.65721893 -0.1295166 C144.77819284 -0.14264247 146.89764731 -0.1312569 149.01855469 -0.11352539 C150.20653656 -0.11331611 151.39451843 -0.11310682 152.61849976 -0.1128912 C155.50927734 0.38768005 155.50927734 0.38768005 157.39068604 2.2282095 C158.94262716 5.22427351 158.89797153 7.61673935 158.90771484 10.98143005 C158.91158203 12.25889099 158.91544922 13.53635193 158.91943359 14.8525238 C158.91314941 15.5149408 158.90686523 16.17735779 158.90039062 16.85984802 C158.8843262 18.88153094 158.90025499 20.90121518 158.91943359 22.9228363 C158.91556641 24.20029724 158.91169922 25.47775818 158.90771484 26.79393005 C158.90433105 27.96246521 158.90094727 29.13100037 158.89746094 30.33494568 C158.45745624 33.79520906 157.98288226 34.96782163 155.50927734 37.38768005 C152.61849976 37.8882513 152.61849976 37.8882513 149.01855469 37.8888855 C148.35657263 37.89441989 147.69459057 37.89995429 147.01254845 37.9056564 C144.78972438 37.91929254 142.56801749 37.90427917 140.34521484 37.88938904 C138.75359621 37.89317117 137.16198086 37.89867034 135.57037354 37.90576172 C131.24390204 37.91974753 126.91782683 37.90852483 122.59137726 37.8920505 C118.06840181 37.87822194 113.54544988 37.88465757 109.02246094 37.88818359 C101.4262044 37.89088746 93.8301057 37.877395 86.23388672 37.85423279 C77.44570063 37.82762191 68.65777853 37.82587528 59.86956596 37.83762115 C51.42320241 37.84839224 42.97693456 37.84221714 34.53057861 37.82806587 C30.9325332 37.82230024 27.33455769 37.82239327 23.73651123 37.82713127 C19.50114384 37.83189599 15.26606631 37.82182055 11.03075409 37.80017662 C9.47429126 37.79460165 7.91780061 37.79414995 6.36133575 37.79912949 C4.2405665 37.80506456 2.12068879 37.79261292 0 37.77536011 C-1.78197281 37.77171526 -1.78197281 37.77171526 -3.59994507 37.76799679 C-6.49072266 37.38768005 -6.49072266 37.38768005 -8.37213135 36.05961704 C-10.21121562 33.31077304 -9.88044448 30.67444232 -9.88916016 27.41893005 C-9.89203033 26.74221252 -9.89490051 26.065495 -9.89785767 25.36827087 C-9.89989663 23.93934796 -9.89437834 22.51039703 -9.88183594 21.08152771 C-9.86577776 18.89518281 -9.881688 16.71068626 -9.90087891 14.5243988 C-9.89889644 13.13507181 -9.8950527 11.74574597 -9.88916016 10.35643005 C-9.88577637 9.09250427 -9.88239258 7.82857849 -9.87890625 6.52635193 C-9.49072266 3.38768005 -9.49072266 3.38768005 -8.37213135 1.71574306 C-5.59106584 -0.24737651 -3.38217903 0.0069179 0 0 Z M3.50927734 12.38768005 C3.50927734 16.34768005 3.50927734 20.30768005 3.50927734 24.38768005 C11.42927734 24.38768005 19.34927734 24.38768005 27.50927734 24.38768005 C27.50927734 20.42768005 27.50927734 16.46768005 27.50927734 12.38768005 C19.58927734 12.38768005 11.66927734 12.38768005 3.50927734 12.38768005 Z M40.50927734 12.38768005 C40.50927734 16.34768005 40.50927734 20.30768005 40.50927734 24.38768005 C75.15927734 24.38768005 109.80927734 24.38768005 145.50927734 24.38768005 C145.50927734 20.42768005 145.50927734 16.46768005 145.50927734 12.38768005 C110.85927734 12.38768005 76.20927734 12.38768005 40.50927734 12.38768005 Z " fill="#000000" transform="translate(279.49072265625,307.61231994628906)"/>
<path d="M0 0 C0.90270126 -0.00365067 1.80540253 -0.00730133 2.73545837 -0.01106262 C5.72421995 -0.01917939 8.71244127 -0.00554858 11.70117188 0.0090332 C13.77478027 0.00955167 15.84838916 0.00903448 17.92199707 0.00752258 C22.26984994 0.00761236 26.61751758 0.01805243 30.96533203 0.03613281 C36.54426094 0.05882007 42.12291907 0.05936461 47.70188141 0.05261517 C51.98433853 0.04927696 56.2667337 0.05590249 60.54917908 0.0657444 C62.60651831 0.06959925 64.66386443 0.07074344 66.72120667 0.06915855 C69.59421978 0.06878855 72.46688308 0.08139007 75.33984375 0.09765625 C76.19396347 0.09517883 77.04808319 0.09270142 77.92808533 0.09014893 C81.8509186 0.12567539 83.83238965 0.14729297 87.16992188 2.37231445 C88.97400802 7.78457289 88.48255391 13.58316919 88.54492188 19.24731445 C88.60099609 21.16737305 88.60099609 21.16737305 88.65820312 23.1262207 C88.66980469 24.35985352 88.68140625 25.59348633 88.69335938 26.86450195 C88.72308838 28.55615479 88.72308838 28.55615479 88.75341797 30.28198242 C87.95834915 34.4928532 86.53740891 35.75079179 83.16992188 38.37231445 C80.24152695 39.07880022 77.40475884 39.02614319 74.40405273 38.97167969 C73.09586327 38.97759377 73.09586327 38.97759377 71.76124573 38.98362732 C68.88516367 38.99032757 66.0106772 38.96119769 63.13476562 38.9309082 C61.13367521 38.92665703 59.13257986 38.92432941 57.13148499 38.92384338 C52.94086304 38.91768069 48.75077617 38.89499242 44.56030273 38.859375 C39.18776992 38.81407368 33.81572127 38.79934731 28.4430151 38.79563808 C24.31233441 38.79121028 20.18175541 38.77590825 16.05111885 38.75676155 C14.06997069 38.74788063 12.08881169 38.74115 10.10764885 38.73660088 C7.34037908 38.72756134 4.57354756 38.70517362 1.80639648 38.67871094 C0.98706635 38.67804626 0.16773621 38.67738159 -0.67642212 38.67669678 C-7.78627068 38.58282879 -7.78627068 38.58282879 -10.83007812 36.37231445 C-13.03003791 31.97239489 -12.05717738 26.03279024 -12.0703125 21.14160156 C-12.08002581 18.94663712 -12.11105222 16.75260624 -12.14257812 14.55786133 C-12.14910761 13.16398668 -12.1543583 11.77010534 -12.15820312 10.3762207 C-12.16754883 9.10593018 -12.17689453 7.83563965 -12.18652344 6.52685547 C-11.83007812 3.37231445 -11.83007812 3.37231445 -10.54975128 1.6985445 C-7.51494658 -0.64192884 -3.68193676 -0.0329506 0 0 Z M1.16992188 13.37231445 C1.16992188 17.33231445 1.16992188 21.29231445 1.16992188 25.37231445 C17.33992188 25.37231445 33.50992188 25.37231445 50.16992188 25.37231445 C50.16992188 21.41231445 50.16992188 17.45231445 50.16992188 13.37231445 C33.99992187 13.37231445 17.82992187 13.37231445 1.16992188 13.37231445 Z M63.16992188 13.37231445 C63.16992188 17.33231445 63.16992188 21.29231445 63.16992188 25.37231445 C67.12992187 25.37231445 71.08992188 25.37231445 75.16992188 25.37231445 C75.16992188 21.41231445 75.16992188 17.45231445 75.16992188 13.37231445 C71.20992187 13.37231445 67.24992187 13.37231445 63.16992188 13.37231445 Z " fill="#000000" transform="translate(281.830078125,257.627685546875)"/>
<path d="M0 0 C0.89148743 -0.00861557 1.78297485 -0.01723114 2.70147705 -0.02610779 C5.64763438 -0.04880658 8.5928436 -0.04202212 11.5390625 -0.03295898 C13.58642867 -0.0381926 15.63379241 -0.04446811 17.68115234 -0.05174255 C21.97179512 -0.06215382 26.26210638 -0.05757442 30.55273438 -0.04296875 C36.05449439 -0.02577448 41.55521071 -0.04928066 47.05685425 -0.08445835 C51.28449439 -0.10640469 55.5118837 -0.10499765 59.73956299 -0.09669304 C61.76817978 -0.09587211 63.79681473 -0.10276246 65.82537842 -0.11746407 C68.66028268 -0.13486012 71.49329725 -0.1204093 74.328125 -0.09765625 C75.58752899 -0.11519455 75.58752899 -0.11519455 76.87237549 -0.13308716 C80.84235389 -0.06816775 82.72885336 0.1278777 85.68395996 2.88172913 C87.49253674 6.12193426 87.68033713 8.26989065 87.6953125 11.97094727 C87.70304687 13.80786133 87.70304687 13.80786133 87.7109375 15.68188477 C87.69546875 16.95290039 87.68 18.22391602 87.6640625 19.53344727 C87.68726563 21.4399707 87.68726563 21.4399707 87.7109375 23.38500977 C87.70578125 24.60961914 87.700625 25.83422852 87.6953125 27.09594727 C87.69080078 28.21098633 87.68628906 29.32602539 87.68164062 30.47485352 C87.0194025 34.38830599 86.07268431 35.82291481 83.1640625 38.53344727 C80.03726334 39.03112447 77.45474427 39.20809168 74.328125 39.16455078 C73.43663757 39.17170609 72.54515015 39.17886139 71.62664795 39.18623352 C68.68026461 39.20314019 65.7353986 39.18370649 62.7890625 39.16235352 C60.74169794 39.16318203 58.69433344 39.16564076 56.64697266 39.16966248 C52.35624162 39.17252183 48.0660322 39.1578056 43.77539062 39.13037109 C38.27372126 39.09628834 32.77298476 39.10230536 27.27127075 39.12103367 C23.043622 39.13159907 18.81619055 39.12266997 14.58856201 39.10764885 C12.55996343 39.10246321 10.53134219 39.10295346 8.50274658 39.1091938 C5.66800083 39.11464038 2.8345933 39.09428879 0 39.06689453 C-0.83960266 39.07342041 -1.67920532 39.07994629 -2.54425049 39.08666992 C-6.17278815 39.02700339 -8.38186669 38.86442921 -11.35583496 36.69664001 C-13.44101866 33.64911179 -13.35350462 31.39186951 -13.3671875 27.72094727 C-13.3710144 27.0702124 -13.37484131 26.41947754 -13.37878418 25.74902344 C-13.38149826 24.37734423 -13.37417203 23.00561282 -13.35742188 21.6340332 C-13.33599869 19.53943041 -13.35723387 17.44825643 -13.3828125 15.35375977 C-13.38016913 14.01781473 -13.37504393 12.68187182 -13.3671875 11.34594727 C-13.36267578 10.13551758 -13.35816406 8.92508789 -13.35351562 7.67797852 C-12.09495177 0.03160944 -6.69734274 -0.05205563 0 0 Z M0.1640625 13.53344727 C0.1640625 17.49344727 0.1640625 21.45344727 0.1640625 25.53344727 C14.3540625 25.53344727 28.5440625 25.53344727 43.1640625 25.53344727 C43.1640625 21.57344727 43.1640625 17.61344727 43.1640625 13.53344727 C28.9740625 13.53344727 14.7840625 13.53344727 0.1640625 13.53344727 Z M56.1640625 13.53344727 C56.1640625 17.49344727 56.1640625 21.45344727 56.1640625 25.53344727 C62.1040625 25.53344727 68.0440625 25.53344727 74.1640625 25.53344727 C74.1640625 21.57344727 74.1640625 17.61344727 74.1640625 13.53344727 C68.2240625 13.53344727 62.2840625 13.53344727 56.1640625 13.53344727 Z " fill="#000000" transform="translate(282.8359375,356.466552734375)"/>
<path d="M0 0 C0.91245483 -0.00686325 1.82490967 -0.0137265 2.76501465 -0.02079773 C5.78620896 -0.03912452 8.80688695 -0.03522019 11.828125 -0.02954102 C13.92415538 -0.03409969 16.02018425 -0.03940431 18.11621094 -0.04542542 C22.51112944 -0.05436786 26.90586635 -0.05192011 31.30078125 -0.04199219 C36.94040109 -0.03049563 42.57939546 -0.05071902 48.21893311 -0.07990932 C52.54772948 -0.09823005 56.87637479 -0.09798721 61.2052002 -0.0922718 C63.28488035 -0.09211811 65.36457044 -0.09820172 67.44421387 -0.11056328 C70.34862861 -0.12539515 73.25187261 -0.11485415 76.15625 -0.09765625 C77.01972046 -0.10732422 77.88319092 -0.11699219 78.77282715 -0.12695312 C84.57116484 -0.05483946 84.57116484 -0.05483946 87.11148071 2.24461365 C88.45341386 5.24243086 88.46706458 7.71785368 88.4765625 10.99780273 C88.48042969 12.27526367 88.48429687 13.55272461 88.48828125 14.86889648 C88.48199707 15.53131348 88.47571289 16.19373047 88.46923828 16.8762207 C88.45317386 18.89790363 88.46910265 20.91758786 88.48828125 22.93920898 C88.48441406 24.21666992 88.48054688 25.49413086 88.4765625 26.81030273 C88.47317871 27.97883789 88.46979492 29.14737305 88.46630859 30.35131836 C88.01641105 33.88938055 87.71581756 35.01645582 85.078125 37.40405273 C81.98653079 37.80043355 79.24980909 37.94039919 76.15625 37.90576172 C75.24379517 37.9111647 74.33134033 37.91656769 73.39123535 37.9221344 C70.36987036 37.93465947 67.34945125 37.91810547 64.328125 37.90014648 C62.23209584 37.90030138 60.1360664 37.90178886 58.04003906 37.90455627 C53.64505365 37.90594196 49.25039391 37.89335364 44.85546875 37.87060547 C39.2159177 37.84222052 33.576908 37.84495598 27.93731689 37.85769558 C23.60851399 37.86464355 19.27983668 37.85687355 14.9510498 37.84443855 C12.87138348 37.83991547 10.79170371 37.8395947 8.71203613 37.84350395 C5.80774195 37.8464075 2.90419933 37.82995011 0 37.80810547 C-0.86347046 37.81260712 -1.72694092 37.81710876 -2.61657715 37.82174683 C-8.47595067 37.74835167 -8.47595067 37.74835167 -10.64193726 36.07598972 C-12.71211559 33.37178966 -12.3113614 30.7787518 -12.3203125 27.43530273 C-12.32318268 26.75858521 -12.32605286 26.08186768 -12.32901001 25.38464355 C-12.33104897 23.95572064 -12.32553069 22.52676971 -12.31298828 21.09790039 C-12.29693011 18.91155549 -12.31284034 16.72705894 -12.33203125 14.54077148 C-12.33004879 13.15144449 -12.32620504 11.76211865 -12.3203125 10.37280273 C-12.31692871 9.10887695 -12.31354492 7.84495117 -12.31005859 6.54272461 C-11.921875 3.40405273 -11.921875 3.40405273 -10.64193726 1.73211575 C-7.59054012 -0.62387321 -3.7057147 -0.01931951 0 0 Z M1.078125 13.40405273 C1.078125 17.36405273 1.078125 21.32405273 1.078125 25.40405273 C5.038125 25.40405273 8.998125 25.40405273 13.078125 25.40405273 C13.078125 21.44405273 13.078125 17.48405273 13.078125 13.40405273 C9.118125 13.40405273 5.158125 13.40405273 1.078125 13.40405273 Z M26.078125 13.40405273 C26.078125 17.36405273 26.078125 21.32405273 26.078125 25.40405273 C42.248125 25.40405273 58.418125 25.40405273 75.078125 25.40405273 C75.078125 21.44405273 75.078125 17.48405273 75.078125 13.40405273 C58.908125 13.40405273 42.738125 13.40405273 26.078125 13.40405273 Z " fill="#000000" transform="translate(281.921875,158.595947265625)"/>
<path d="M0 0 C0.91245483 -0.00686325 1.82490967 -0.0137265 2.76501465 -0.02079773 C5.78620896 -0.03912452 8.80688695 -0.03522019 11.828125 -0.02954102 C13.92415538 -0.03409969 16.02018425 -0.03940431 18.11621094 -0.04542542 C22.51112944 -0.05436786 26.90586635 -0.05192011 31.30078125 -0.04199219 C36.94040109 -0.03049563 42.57939546 -0.05071902 48.21893311 -0.07990932 C52.54772948 -0.09823005 56.87637479 -0.09798721 61.2052002 -0.0922718 C63.28488035 -0.09211811 65.36457044 -0.09820172 67.44421387 -0.11056328 C70.34862861 -0.12539515 73.25187261 -0.11485415 76.15625 -0.09765625 C77.01972046 -0.10732422 77.88319092 -0.11699219 78.77282715 -0.12695312 C84.57116484 -0.05483946 84.57116484 -0.05483946 87.11148071 2.24461365 C88.45341386 5.24243086 88.46706458 7.71785368 88.4765625 10.99780273 C88.48042969 12.27526367 88.48429687 13.55272461 88.48828125 14.86889648 C88.48199707 15.53131348 88.47571289 16.19373047 88.46923828 16.8762207 C88.45317386 18.89790363 88.46910265 20.91758786 88.48828125 22.93920898 C88.48441406 24.21666992 88.48054688 25.49413086 88.4765625 26.81030273 C88.47317871 27.97883789 88.46979492 29.14737305 88.46630859 30.35131836 C88.01641105 33.88938055 87.71581756 35.01645582 85.078125 37.40405273 C81.98653079 37.80043355 79.24980909 37.94039919 76.15625 37.90576172 C75.24379517 37.9111647 74.33134033 37.91656769 73.39123535 37.9221344 C70.36987036 37.93465947 67.34945125 37.91810547 64.328125 37.90014648 C62.23209584 37.90030138 60.1360664 37.90178886 58.04003906 37.90455627 C53.64505365 37.90594196 49.25039391 37.89335364 44.85546875 37.87060547 C39.2159177 37.84222052 33.576908 37.84495598 27.93731689 37.85769558 C23.60851399 37.86464355 19.27983668 37.85687355 14.9510498 37.84443855 C12.87138348 37.83991547 10.79170371 37.8395947 8.71203613 37.84350395 C5.80774195 37.8464075 2.90419933 37.82995011 0 37.80810547 C-0.86347046 37.81260712 -1.72694092 37.81710876 -2.61657715 37.82174683 C-8.47595067 37.74835167 -8.47595067 37.74835167 -10.64193726 36.07598972 C-12.71211559 33.37178966 -12.3113614 30.7787518 -12.3203125 27.43530273 C-12.32318268 26.75858521 -12.32605286 26.08186768 -12.32901001 25.38464355 C-12.33104897 23.95572064 -12.32553069 22.52676971 -12.31298828 21.09790039 C-12.29693011 18.91155549 -12.31284034 16.72705894 -12.33203125 14.54077148 C-12.33004879 13.15144449 -12.32620504 11.76211865 -12.3203125 10.37280273 C-12.31692871 9.10887695 -12.31354492 7.84495117 -12.31005859 6.54272461 C-11.921875 3.40405273 -11.921875 3.40405273 -10.64193726 1.73211575 C-7.59054012 -0.62387321 -3.7057147 -0.01931951 0 0 Z M1.078125 12.40405273 C1.078125 16.36405273 1.078125 20.32405273 1.078125 24.40405273 C8.998125 24.40405273 16.918125 24.40405273 25.078125 24.40405273 C25.078125 20.44405273 25.078125 16.48405273 25.078125 12.40405273 C17.158125 12.40405273 9.238125 12.40405273 1.078125 12.40405273 Z M38.078125 12.40405273 C38.078125 16.36405273 38.078125 20.32405273 38.078125 24.40405273 C50.288125 24.40405273 62.498125 24.40405273 75.078125 24.40405273 C75.078125 20.44405273 75.078125 16.48405273 75.078125 12.40405273 C62.868125 12.40405273 50.658125 12.40405273 38.078125 12.40405273 Z " fill="#000000" transform="translate(281.921875,59.595947265625)"/>
</svg>
