<?xml version="1.0" encoding="UTF-8"?>
<svg version="1.1" xmlns="http://www.w3.org/2000/svg" width="512" height="512">
<path d="M0 0 C2.27760474 -0.02681809 4.55047862 -0.10168346 6.8269043 -0.17749023 C19.04059452 -0.40627027 19.04059452 -0.40627027 23.55151367 3.41040039 C24.77879602 4.75001201 25.96383248 6.12903469 27.11401367 7.53540039 C28.69774398 9.25070058 30.28802053 10.95997148 31.88354492 12.66430664 C34.4292508 15.40049402 36.96064664 18.13672298 39.4284668 20.94360352 C43.75972445 25.79853843 43.75972445 25.79853843 49.67407227 27.71069336 C52.35741493 27.22653877 52.35741493 27.22653877 55.07495117 26.33398438 C58.67768115 25.38728372 61.81451662 25.54956507 65.53198242 25.62915039 C73.41994621 25.17332585 77.38669641 21.83563966 82.51049805 16.32055664 C83.4836267 15.2265028 84.45562099 14.13143898 85.42651367 13.03540039 C86.44580938 11.93709831 87.46858347 10.84201377 88.49487305 9.75024414 C90.3580811 7.76659942 92.19156751 5.76692917 94.01367188 3.74438477 C96.68676232 0.93302567 97.40927519 0.57096603 101.30688477 0.37426758 C102.66699593 0.35409021 104.02721549 0.34054597 105.38745117 0.33227539 C106.10760406 0.32657532 106.82775696 0.32087524 107.56973267 0.31500244 C109.0945692 0.30555204 110.61942616 0.2990183 112.14428711 0.29516602 C114.47310179 0.28546666 116.80103143 0.25444799 119.12963867 0.22290039 C120.61140427 0.21636952 122.09317617 0.21111938 123.57495117 0.20727539 C124.26986664 0.19492859 124.9647821 0.18258179 125.68075562 0.16986084 C128.72625932 0.18383771 130.84972436 0.39462211 133.55786133 1.8371582 C135.11401367 3.53540039 135.11401367 3.53540039 135.55151367 7.03540039 C135.11401367 10.53540039 135.11401367 10.53540039 133.97070312 12.25292969 C131.24993783 14.13224331 129.24048472 13.74033354 125.96948242 13.55493164 C111.262896 12.47907294 111.262896 12.47907294 98.08276367 17.70727539 C94.61338901 20.9877258 91.78081006 24.58364666 89.11401367 28.53540039 C89.73107178 29.22375977 89.73107178 29.22375977 90.3605957 29.92602539 C90.90055176 30.53961914 91.44050781 31.15321289 91.99682617 31.78540039 C92.79950928 32.69032227 92.79950928 32.69032227 93.6184082 33.61352539 C95.10750172 35.52703243 96.04734397 37.31023574 96.98901367 39.53540039 C98.5116243 42.85456414 100.21719298 44.67895486 103.05151367 46.97290039 C109.14491462 51.95428404 112.75440061 58.78560595 114.11401367 66.53540039 C114.52315329 73.01149605 112.789695 77.37796285 109.61401367 82.97290039 C104.8579327 91.39254574 105.04337201 100.0694173 105.11401367 109.53540039 C125.70981476 111.65650222 125.70981476 111.65650222 144.13745117 104.49633789 C147.9851914 100.75721844 151.3491196 96.68494361 154.41772461 92.28540039 C156.57461813 90.06021145 158.06406231 89.78477517 161.11401367 89.53540039 C163.82038896 90.51270258 164.8165759 90.94052484 166.11401367 93.53540039 C166.64778891 98.65765907 165.57682685 101.09281534 162.48901367 105.15258789 C160.73460465 107.30052189 158.98088876 109.36713631 157.11401367 111.41040039 C156.63390839 111.93997345 156.1538031 112.46954651 155.65914917 113.01516724 C147.99782586 121.08626168 141.0184221 123.77139664 129.94125366 124.12731934 C120.96944948 124.1667309 112.02674926 123.51912425 103.11401367 122.53540039 C102.96706055 123.47544922 102.82010742 124.41549805 102.66870117 125.3840332 C101.16933356 133.90244743 96.13482978 140.09069719 90.29760742 146.21118164 C88.09393461 148.55677256 86.09347855 150.99935129 84.11401367 153.53540039 C84.79246338 153.63554443 85.47091309 153.73568848 86.16992188 153.83886719 C94.28121871 155.10644725 102.23434328 156.85547103 110.19677734 158.82958984 C112.30629692 159.34907831 114.41980886 159.84949309 116.53393555 160.34985352 C127.16357908 162.9332201 136.8834078 165.92988301 143.11401367 175.53540039 C145.39636486 179.76293724 146.26391829 183.49115497 146.18432617 188.29321289 C146.1741748 189.09130371 146.16402344 189.88939453 146.15356445 190.71166992 C146.1405127 191.31350098 146.12746094 191.91533203 146.11401367 192.53540039 C147.01120117 192.49874268 147.90838867 192.46208496 148.83276367 192.42431641 C152.19523131 192.30425929 155.55539054 192.21691714 158.91918945 192.15087891 C160.36845051 192.11589674 161.81746848 192.06829048 163.26586914 192.00732422 C176.84081317 191.45066731 176.84081317 191.45066731 181.58666992 195.55883789 C182.78748302 196.86172505 183.9630241 198.18829608 185.11401367 199.53540039 C186.51864299 200.87100089 187.93435294 202.19503099 189.36010742 203.50805664 C190.75984852 204.86866239 192.15697933 206.23195855 193.55151367 207.59790039 C194.27016602 208.27916992 194.98881836 208.96043945 195.72924805 209.66235352 C200.8564315 214.70238938 200.8564315 214.70238938 202.14916992 218.88305664 C202.11401367 221.53540039 202.11401367 221.53540039 201.11401367 223.91040039 C199.11401367 225.53540039 199.11401367 225.53540039 196.00463867 226.22680664 C189.29776644 225.03492272 185.75451871 218.71566731 181.89916992 213.37719727 C177.08706774 207.81346655 173.67320336 206.34674914 166.4206543 205.71459961 C159.65009958 205.36980853 152.88991444 205.3593861 146.11401367 205.53540039 C146.12400642 206.82206352 146.12400642 206.82206352 146.13420105 208.13471985 C146.19427729 216.21291836 146.23997028 224.291042 146.26945019 232.36941242 C146.28511556 236.52273896 146.30636949 240.67588114 146.34033203 244.82910156 C146.37289477 248.83615624 146.39086012 252.84303343 146.3986454 256.85021019 C146.4041945 258.38006574 146.41503043 259.90991142 146.43120384 261.43969154 C146.45293783 263.58028894 146.4559824 265.72015012 146.45458984 267.86083984 C146.4645826 269.68951347 146.4645826 269.68951347 146.47477722 271.55513 C146.11401367 274.53540039 146.11401367 274.53540039 145.02086353 276.19785786 C142.13692028 278.22077368 139.73880302 277.91321808 136.24365234 277.91635132 C135.54083476 277.92103129 134.83801718 277.92571126 134.11390209 277.93053305 C131.75307164 277.9425227 129.39281743 277.93301071 127.03198242 277.92358398 C125.34184428 277.92764794 123.6517088 277.93298882 121.96157837 277.93951416 C117.3665938 277.9532146 112.77181085 277.9478779 108.17682266 277.9383769 C103.37357276 277.93079441 98.5703404 277.93782198 93.76708984 277.9425354 C85.70008233 277.94799707 77.63315714 277.94079055 69.56616211 277.92651367 C60.23267233 277.91018637 50.89937914 277.91547459 41.56589413 277.93199289 C33.55989108 277.94559604 25.5539473 277.94753316 17.54793644 277.93967688 C12.76299376 277.93499391 7.97814356 277.9343926 3.19320679 277.94428635 C-1.30478771 277.95293673 -5.80252816 277.94696955 -10.30049515 277.92960358 C-11.95371707 277.92562839 -13.60696028 277.92679035 -15.2601738 277.93339157 C-17.51228193 277.94155673 -19.76356954 277.93134747 -22.015625 277.91635132 C-23.90821297 277.9146547 -23.90821297 277.9146547 -25.83903503 277.91292381 C-28.88598633 277.53540039 -28.88598633 277.53540039 -30.75288391 276.13659096 C-33.16099063 272.73368783 -33.00727074 270.30127557 -32.99951172 266.15795898 C-32.99965775 265.5041777 -32.99980377 264.85039642 -32.99995422 264.17680359 C-32.99925668 262.01244812 -32.99147173 259.84817835 -32.98364258 257.68383789 C-32.98177783 256.18454027 -32.9803542 254.68524205 -32.97935486 253.1859436 C-32.97553412 249.23708417 -32.9657076 245.28826143 -32.95465088 241.3394165 C-32.94442724 237.31099952 -32.93985519 233.28257661 -32.93481445 229.25415039 C-32.92408495 221.34788354 -32.90701383 213.44164653 -32.88598633 205.53540039 C-50.2304082 204.20924949 -50.2304082 204.20924949 -65.33520508 210.78930664 C-67.61437878 213.34021875 -67.61437878 213.34021875 -69.57348633 216.09790039 C-77.11018521 225.40402726 -77.11018521 225.40402726 -81.78442383 226.19555664 C-84.88598633 225.53540039 -84.88598633 225.53540039 -86.82348633 224.41040039 C-88.51860898 221.41900747 -88.53005822 219.9489814 -87.88598633 216.53540039 C-85.95642842 213.50014076 -83.41122516 211.0800343 -80.88598633 208.53540039 C-79.65272659 207.26474835 -78.41967181 205.99389737 -77.18676758 204.72290039 C-75.83806653 203.34637082 -74.48778666 201.97138649 -73.13598633 200.59790039 C-72.47397217 199.92251221 -71.81195801 199.24712402 -71.12988281 198.55126953 C-70.49767822 197.91825928 -69.86547363 197.28524902 -69.21411133 196.63305664 C-68.36187988 195.77466187 -68.36187988 195.77466187 -67.49243164 194.89892578 C-64.04233473 191.97053805 -60.33799818 192.41956912 -56.03051758 192.43774414 C-55.36888107 192.43915909 -54.70724457 192.44057404 -54.02555847 192.44203186 C-51.91648805 192.44762043 -49.80752456 192.46017074 -47.69848633 192.47290039 C-46.26684724 192.47791687 -44.83520648 192.48247952 -43.40356445 192.48657227 C-39.89767045 192.49758609 -36.39183883 192.51484284 -32.88598633 192.53540039 C-32.83265137 191.79064453 -32.77931641 191.04588867 -32.72436523 190.27856445 C-32.60714111 188.80468262 -32.60714111 188.80468262 -32.48754883 187.30102539 C-32.41358887 186.32939453 -32.33962891 185.35776367 -32.26342773 184.35668945 C-31.38472872 177.78861326 -27.89417112 172.57616784 -23.03979492 168.16430664 C-15.16056867 162.20531803 -3.2971999 160.70992628 6.15991211 158.38842773 C8.63866868 157.77934211 11.11469904 157.15998242 13.59057617 156.53930664 C15.17115668 156.14678049 16.75188075 155.75483181 18.33276367 155.36352539 C19.43896057 155.0870517 19.43896057 155.0870517 20.56750488 154.80499268 C23.4945319 154.09023351 26.08838613 153.53540039 29.11401367 153.53540039 C29.11401367 152.21540039 29.11401367 150.89540039 29.11401367 149.53540039 C28.43338867 148.99915039 27.75276367 148.46290039 27.05151367 147.91040039 C17.69173328 140.34291837 12.62583006 128.32269745 10.97729492 116.64868164 C10.81140869 115.49795166 10.64552246 114.34722168 10.47460938 113.16162109 C10.35561279 112.29496826 10.23661621 111.42831543 10.11401367 110.53540039 C9.08332764 110.65584717 8.0526416 110.77629395 6.99072266 110.90039062 C-23.82978358 114.18654742 -23.82978358 114.18654742 -33.78703308 107.0539093 C-36.66602135 104.6947772 -39.25327814 102.15804765 -41.76098633 99.41040039 C-42.24375031 98.88590302 -42.72651428 98.36140564 -43.22390747 97.8210144 C-50.68647613 89.47743796 -50.68647613 89.47743796 -51.21459961 84.33666992 C-50.88598633 81.53540039 -50.88598633 81.53540039 -49.32348633 79.09790039 C-46.88598633 77.53540039 -46.88598633 77.53540039 -43.69848633 77.37524414 C-38.8340568 78.855506 -37.53282415 81.06532856 -34.49291992 84.9753418 C-29.2579895 91.53056993 -24.34384076 96.64050892 -15.78581238 97.76177979 C-7.17020085 98.49919704 1.50131059 98.16497931 10.11401367 97.53540039 C9.97326416 96.57947998 9.83251465 95.62355957 9.6875 94.63867188 C8.59760415 86.92678211 7.77157059 79.40106858 7.80151367 71.59790039 C7.78540039 70.73100586 7.76928711 69.86411133 7.75268555 68.97094727 C7.74498069 58.76201132 11.3406535 52.0359205 18.11401367 44.53540039 C28.30743727 34.53540039 28.30743727 34.53540039 33.11401367 34.53540039 C31.56820076 32.6847793 29.99420914 30.88387774 28.36010742 29.10961914 C26.11401367 26.53540039 26.11401367 26.53540039 23.96166992 23.36743164 C20.3350774 18.46670992 17.10302424 15.06143363 10.89282227 13.96850586 C3.56941598 13.40395852 -3.72067479 13.51310153 -11.05200195 13.89086914 C-13.88598633 13.53540039 -13.88598633 13.53540039 -16.27075195 11.75024414 C-17.88598633 9.53540039 -17.88598633 9.53540039 -17.82348633 5.91040039 C-15.63792791 -1.9576099 -6.74114322 0.05263702 0 0 Z M26.48120117 54.82055664 C25.80444336 55.6694043 25.80444336 55.6694043 25.11401367 56.53540039 C23.90745117 57.98946289 23.90745117 57.98946289 22.67651367 59.47290039 C19.53747141 65.2433951 20.83987762 73.19219679 21.11401367 79.53540039 C22.50620117 78.60727539 22.50620117 78.60727539 23.92651367 77.66040039 C30.11401367 73.53540039 30.11401367 73.53540039 32.80151367 73.66040039 C36.17991672 74.55280874 38.85787948 75.80639128 41.89135742 77.50024414 C53.40361273 82.86183932 67.37299108 81.55111824 79.11401367 77.53540039 C80.39351941 76.97134347 81.66594066 76.39058699 82.92651367 75.78540039 C86.85044672 74.24660312 89.06816567 74.46668582 93.11401367 75.53540039 C95.55151367 77.09790039 95.55151367 77.09790039 97.11401367 78.53540039 C99.67877616 74.63250096 101.69559632 71.46187479 100.74682617 66.68774414 C98.65515023 59.98663419 94.11199391 56.18067707 88.98901367 51.66040039 C86.56599797 48.91431593 85.1834635 45.8728421 83.65307617 42.55883789 C81.46398922 39.68079972 79.6163691 39.32281519 76.11401367 38.53540039 C58.50895349 36.98413484 38.6727851 40.96096994 26.48120117 54.82055664 Z M24.91870117 90.98071289 C20.27010478 97.56119349 22.51631551 107.53746379 23.64135742 115.06274414 C26.01452285 125.97368815 31.62564738 136.14883441 41.11401367 142.34790039 C48.66216081 146.95541521 56.46315535 147.56614096 65.11401367 146.53540039 C76.02489911 143.01909608 83.36934227 136.35571929 88.55151367 126.28540039 C92.16810671 118.67774418 92.35595376 112.33189785 92.42651367 103.97290039 C92.45551758 102.82370117 92.48452148 101.67450195 92.5144043 100.49047852 C92.52697266 98.84015625 92.52697266 98.84015625 92.53979492 97.15649414 C92.55437744 96.15030029 92.56895996 95.14410645 92.58398438 94.10742188 C92.34196111 91.4149479 92.34196111 91.4149479 90.26831055 89.6706543 C85.89390401 87.36546499 80.93317369 89.85240156 76.42651367 91.09790039 C62.98708594 94.21941507 47.4869344 94.12996938 34.92651367 87.97290039 C30.72158684 87.31880066 28.3136702 88.50021363 24.91870117 90.98071289 Z M42.11401367 157.53540039 C41.78401367 159.18540039 41.45401367 160.83540039 41.11401367 162.53540039 C48.53901367 168.47540039 48.53901367 168.47540039 56.11401367 174.53540039 C60.81115929 171.85131718 64.48527089 169.62751775 68.55151367 166.28540039 C69.41647461 165.57899414 70.28143555 164.87258789 71.17260742 164.14477539 C71.81327148 163.61368164 72.45393555 163.08258789 73.11401367 162.53540039 C72.78401367 160.88540039 72.45401367 159.23540039 72.11401367 157.53540039 C71.29803711 157.69782227 70.48206055 157.86024414 69.64135742 158.02758789 C65.61237353 158.60761879 61.73892572 158.68195165 57.67651367 158.66040039 C56.58886719 158.66620117 56.58886719 158.66620117 55.47924805 158.67211914 C50.92447741 158.66393447 46.60767553 158.28138378 42.11401367 157.53540039 Z M16.37573242 169.36352539 C15.61734573 169.5538031 14.85895905 169.74408081 14.07759094 169.94012451 C12.47242625 170.34496999 10.86779778 170.75194659 9.26367188 171.16088867 C6.82380588 171.7797461 4.38027579 172.38231422 1.9362793 172.98461914 C0.37417504 173.38074916 -1.18768246 173.77785377 -2.74926758 174.17602539 C-3.83707268 174.4403537 -3.83707268 174.4403537 -4.94685364 174.71002197 C-9.56055045 175.91179602 -13.23506141 177.32932069 -16.88598633 180.53540039 C-19.59473151 185.62623234 -20.31704326 190.69985562 -20.2265625 196.42016602 C-20.22700058 197.16260559 -20.22743866 197.90504517 -20.22789001 198.66998291 C-20.22582038 201.09415118 -20.20257744 203.5176048 -20.17895508 205.94165039 C-20.1733526 207.63415143 -20.16908558 209.32665737 -20.16609192 211.01916504 C-20.15469445 215.45139239 -20.12527179 219.88331994 -20.09197998 224.31542969 C-20.06116857 228.84704535 -20.04756303 233.37870994 -20.0324707 237.91040039 C-20.0003966 246.7855526 -19.94767097 255.66040454 -19.88598633 264.53540039 C-13.28598633 264.53540039 -6.68598633 264.53540039 0.11401367 264.53540039 C0.13906982 262.48595215 0.16412598 260.43650391 0.18994141 258.32495117 C0.2733126 251.56348308 0.36201164 244.80209251 0.45335293 238.04072762 C0.50858384 233.94018389 0.56200411 229.83963304 0.61132812 225.73901367 C0.65896921 221.78378867 0.71131191 217.82865159 0.76695442 213.87353134 C0.78737914 212.3624375 0.80609204 210.85131955 0.82308769 209.34018326 C0.84712918 207.22824615 0.87718389 205.11647571 0.90869141 203.00463867 C0.92423569 201.8010672 0.93977997 200.59749573 0.95579529 199.35745239 C1.11401367 196.53540039 1.11401367 196.53540039 2.11401367 194.53540039 C5.32157162 193.60877254 7.23148711 193.09645706 10.27911377 194.61225891 C12.92120784 197.38141307 12.63191291 199.33127273 12.65991211 203.11816406 C12.67030643 203.79255429 12.68070076 204.46694452 12.69141006 205.16177082 C12.72053019 207.34255911 12.72247798 209.52240566 12.72338867 211.70336914 C12.73738374 213.05059761 12.75316048 214.3978088 12.77075195 215.74499512 C12.82343977 220.73744898 12.84163367 225.73021868 12.86401367 230.72290039 C12.94651367 241.88102539 13.02901367 253.03915039 13.11401367 264.53540039 C42.15401367 264.53540039 71.19401367 264.53540039 101.11401367 264.53540039 C101.32415351 241.91761013 101.32415351 241.91761013 101.50195312 219.29956055 C101.55187988 214.92871094 101.55187988 214.92871094 101.57902527 212.88363647 C101.5951928 211.45294236 101.60546908 210.02217441 101.61112976 208.59140015 C101.62083404 206.42600939 101.64912834 204.26158764 101.68164062 202.09643555 C101.69274368 200.87509918 101.70384674 199.65376282 101.71528625 198.39541626 C101.8468663 197.45161102 101.97844635 196.50780579 102.11401367 195.53540039 C105.11401367 193.53540039 105.11401367 193.53540039 108.17651367 193.66040039 C111.11401367 194.53540039 111.11401367 194.53540039 112.27767944 196.18304443 C113.35868101 199.22357584 113.39589323 201.81954818 113.43286133 205.0480957 C113.44792976 206.01457535 113.44792976 206.01457535 113.46330261 207.00057983 C113.4940919 209.12155295 113.51115745 211.24240009 113.52807617 213.36352539 C113.54679129 214.83755575 113.56636497 216.31157544 113.58676147 217.7855835 C113.63805253 221.65870873 113.6776943 225.53186868 113.71490479 229.40515137 C113.7549635 233.3601132 113.8060473 237.31493097 113.85620117 241.26977539 C113.95292467 249.02489231 114.03632136 256.78006518 114.11401367 264.53540039 C120.38401367 264.53540039 126.65401367 264.53540039 133.11401367 264.53540039 C133.20445296 254.33871826 133.2778093 244.14230336 133.32126236 233.94531059 C133.34211972 229.21021474 133.37040346 224.47540799 133.41577148 219.74047852 C133.4592954 215.16930431 133.48316471 210.59840784 133.49352264 206.02704239 C133.50090228 204.28473668 133.51531314 202.54244583 133.5369339 200.80025864 C133.56605557 198.35600929 133.56996612 195.91290132 133.56811523 193.46850586 C133.58968689 192.39280083 133.58968689 192.39280083 133.61169434 191.29536438 C133.56369829 185.42125439 131.47610359 181.87699352 127.36962891 177.80615234 C124.09863073 175.9633614 120.63877317 175.1064081 117.02416992 174.20336914 C116.24263046 174.00310623 115.461091 173.80284332 114.65586853 173.59651184 C113.00715086 173.17751123 111.35717292 172.76344259 109.70605469 172.35400391 C107.18408077 171.72478833 104.66984582 171.06951497 102.1550293 170.41235352 C100.54931322 170.00775315 98.94320488 169.60470566 97.33666992 169.20336914 C96.58756851 169.00559372 95.8384671 168.8078183 95.06666565 168.60404968 C90.71715357 167.55485067 88.03437491 167.2687188 84.11401367 169.53540039 C82.1967306 170.8344555 82.1967306 170.8344555 80.44213867 172.36352539 C79.78205811 172.91379395 79.12197754 173.4640625 78.44189453 174.03100586 C77.41334351 174.89943115 77.41334351 174.89943115 76.36401367 175.78540039 C66.62367032 183.80685962 66.62367032 183.80685962 63.05151367 186.41040039 C62.13692383 187.0871582 62.13692383 187.0871582 61.20385742 187.77758789 C57.87084386 188.98619468 55.51112309 188.39295889 52.11401367 187.53540039 C49.26245117 185.60180664 49.26245117 185.60180664 46.48901367 183.09790039 C45.45833177 182.19342105 44.42570735 181.29115147 43.39135742 180.39086914 C42.86010254 179.92342285 42.32884766 179.45597656 41.78149414 178.97436523 C38.94447161 176.52613525 36.00802516 174.21180898 33.05151367 171.91040039 C32.50350098 171.47284424 31.95548828 171.03528809 31.39086914 170.58447266 C26.07889688 166.45893496 22.52242089 167.81427226 16.37573242 169.36352539 Z " fill="#202020" transform="translate(197.885986328125,124.464599609375)"/>
<path d="M0 0 C1.93243057 -0.01925285 1.93243057 -0.01925285 3.90390015 -0.03889465 C5.31695167 -0.04706135 6.73000752 -0.05450522 8.14306641 -0.0612793 C8.85335621 -0.06535482 9.56364601 -0.06943035 10.29545975 -0.07362938 C14.05422932 -0.09448774 17.81296241 -0.10879098 21.57177734 -0.11816406 C25.45473806 -0.12923415 29.33712657 -0.16364071 33.21988487 -0.20333576 C36.20532297 -0.22947422 39.19062407 -0.23785332 42.17616653 -0.24144554 C43.60751845 -0.24631798 45.03886399 -0.25795083 46.47010422 -0.27648354 C48.47341886 -0.30081339 50.47701149 -0.29749624 52.48046875 -0.29296875 C53.62027191 -0.29883499 54.76007507 -0.30470123 55.93441772 -0.31074524 C59.52626105 0.28611522 60.70226348 1.29871287 62.86962891 4.17700195 C63.31252847 7.2772989 63.53482018 9.19496396 61.74499512 11.83732605 C58.9811676 13.8116781 56.79865738 13.55112364 53.42626953 13.54931641 C52.45260689 13.5547924 52.45260689 13.5547924 51.45927429 13.56037903 C49.31454265 13.56848221 47.17056715 13.55487734 45.02587891 13.5402832 C43.53519695 13.53976456 42.04451429 13.54028241 40.55383301 13.54179382 C37.42999051 13.54170411 34.30640614 13.53127698 31.18261719 13.51318359 C27.17754533 13.49049629 23.17285067 13.48995237 19.16773224 13.49670124 C16.08966721 13.50004204 13.01168824 13.49340907 9.93363953 13.48357201 C8.45684764 13.47972162 6.98004618 13.47857112 5.50325012 13.48015785 C3.43964382 13.48052854 1.37652185 13.46790795 -0.68701172 13.45166016 C-1.86154907 13.44705276 -3.03608643 13.44244537 -4.24621582 13.43769836 C-7.13037109 13.17700195 -7.13037109 13.17700195 -10.13037109 11.17700195 C-11.00537109 8.86450195 -11.00537109 8.86450195 -11.13037109 6.17700195 C-8.34129476 0.33322298 -6.21181452 0.05372496 0 0 Z " fill="#202020" transform="translate(367.13037109375,363.822998046875)"/>
<path d="M0 0 C0.6489624 -0.00350464 1.2979248 -0.00700928 1.96655273 -0.01062012 C4.1165632 -0.01943846 6.26624582 -0.01358745 8.41625977 -0.00683594 C9.90837162 -0.00818273 11.40048304 -0.01012338 12.89259338 -0.01263428 C16.02235078 -0.01558581 19.15199413 -0.01128765 22.28173828 -0.00195312 C26.29466825 0.00943165 30.30733041 0.00288844 34.32025051 -0.00909805 C37.40259316 -0.01632434 40.48487231 -0.01402503 43.56721687 -0.00884247 C45.04680475 -0.00750758 46.52639838 -0.00914806 48.00597954 -0.01380157 C50.07445417 -0.01887842 52.14249517 -0.01114028 54.2109375 0 C55.97726784 0.00238678 55.97726784 0.00238678 57.77928162 0.00482178 C60.67016602 0.25878906 60.67016602 0.25878906 63.67016602 2.25878906 C64.67016602 5.07128906 64.67016602 5.07128906 64.67016602 8.25878906 C62.16798388 11.43465734 60.63774309 13.05897977 56.62815857 13.88697815 C54.93083336 13.88842079 54.93083336 13.88842079 53.19921875 13.88989258 C51.26712807 13.90869225 51.26712807 13.90869225 49.29600525 13.9278717 C47.89857976 13.91560431 46.50116398 13.90218443 45.10375977 13.88769531 C43.66317058 13.88852447 42.2225815 13.89098563 40.78199768 13.89500427 C37.76827391 13.89785807 34.75529509 13.88320189 31.74169922 13.85571289 C27.88220238 13.8215986 24.02403437 13.8276616 20.16447353 13.84637547 C17.1918076 13.85695148 14.21945009 13.84800301 11.24681282 13.83299065 C9.82388284 13.82781475 8.40092058 13.82828348 6.97799492 13.8345356 C4.98919371 13.83999514 3.00037642 13.81674629 1.01171875 13.79223633 C-0.1190358 13.78603775 -1.24979034 13.77983917 -2.41481018 13.77345276 C-5.98549803 13.14302792 -7.21284419 12.16824576 -9.32983398 9.25878906 C-9.06621452 1.61382451 -7.41882547 0.01003157 0 0 Z " fill="#212121" transform="translate(355.329833984375,134.7412109375)"/>
<path d="M0 0 C1.28813599 -0.01268417 2.57627197 -0.02536835 3.90344238 -0.03843689 C5.3060726 -0.03638553 6.70870171 -0.03339757 8.11132812 -0.02954102 C9.55334723 -0.03410322 10.99536416 -0.0394089 12.43737793 -0.04542542 C15.45687708 -0.0543531 18.47611168 -0.05193705 21.49560547 -0.04199219 C25.36290044 -0.0304954 29.22928329 -0.05072527 33.09645844 -0.07990932 C36.07336209 -0.09826387 39.05004676 -0.09798059 42.0269928 -0.0922718 C43.45273621 -0.09211853 44.87849442 -0.0981677 46.30418396 -0.11056328 C48.2977904 -0.12545643 50.29154704 -0.11217486 52.28515625 -0.09765625 C53.98581238 -0.097407 53.98581238 -0.097407 55.7208252 -0.09715271 C59.2961726 0.51617211 60.47996185 1.53819747 62.64257812 4.40405273 C63.08540613 7.50384876 63.30831024 9.4218034 61.51794434 12.06338501 C58.7558707 14.03794494 56.57065949 13.78538522 53.19921875 13.79223633 C52.55011032 13.79749329 51.90100189 13.80275024 51.23222351 13.8081665 C49.08751328 13.82136569 46.94354584 13.81262946 44.79882812 13.80249023 C43.30814471 13.80451101 41.81746226 13.80742248 40.32678223 13.81118774 C37.20294785 13.81561096 34.07937086 13.80918038 30.95556641 13.79516602 C26.95039636 13.77807382 22.94582938 13.78791506 18.94068146 13.80588341 C15.86260429 13.8167215 12.78467021 13.81327486 9.70658875 13.80550003 C8.22979155 13.80349808 6.75298139 13.80595715 5.27619934 13.81293869 C3.21242843 13.82055396 1.14963552 13.80894967 -0.9140625 13.79223633 C-2.08859985 13.78984955 -3.26313721 13.78746277 -4.4732666 13.78500366 C-7.35742188 13.40405273 -7.35742188 13.40405273 -9.23278809 12.09854126 C-11.15316877 9.20509891 -10.77555139 6.74908884 -10.35742188 3.40405273 C-7.18107711 0.10398324 -4.4499828 0.02120639 0 0 Z " fill="#212121" transform="translate(90.357421875,363.595947265625)"/>
<path d="M0 0 C1.31138443 -0.00938095 2.62276886 -0.0187619 3.97389221 -0.02842712 C5.40179091 -0.01794992 6.82968331 -0.00658105 8.25756836 0.00561523 C9.72440157 0.00546023 11.19123519 0.00397108 12.6580658 0.00120544 C15.72893425 -0.00017791 18.79933527 0.01236961 21.87011719 0.03515625 C25.80690807 0.0635664 29.74292391 0.06079625 33.67977238 0.04806614 C36.70725633 0.04111322 39.73456096 0.04889326 42.76202202 0.06132317 C44.21369171 0.06583972 45.66538064 0.06617268 47.11705208 0.06225777 C49.14447322 0.05934906 51.17189081 0.07799997 53.19921875 0.09765625 C54.92985313 0.10576073 54.92985313 0.10576073 56.69544983 0.11402893 C59.53491211 0.50170898 59.53491211 0.50170898 61.40745544 1.80821228 C63.30923421 4.66477979 62.88966539 7.1906784 62.53491211 10.50170898 C61.41418457 12.19619751 61.41418457 12.19619751 59.53491211 13.50170898 C56.65075684 13.88265991 56.65075684 13.88265991 53.09155273 13.88989258 C52.44244431 13.89514954 51.79333588 13.90040649 51.1245575 13.90582275 C48.97984727 13.91902194 46.83587983 13.91028571 44.69116211 13.90014648 C43.20047869 13.90216726 41.70979624 13.90507873 40.21911621 13.90884399 C37.09528184 13.91326721 33.97170485 13.90683663 30.84790039 13.89282227 C26.84273034 13.87573007 22.83816336 13.88557131 18.83301544 13.90353966 C15.75493827 13.91437775 12.6770042 13.91093111 9.59892273 13.90315628 C8.12212554 13.90115433 6.64531537 13.9036134 5.16853333 13.91059494 C3.10476242 13.91821021 1.0419695 13.90660592 -1.02172852 13.88989258 C-2.19626587 13.8875058 -3.37080322 13.88511902 -4.58093262 13.88265991 C-7.46508789 13.50170898 -7.46508789 13.50170898 -9.3404541 12.16104126 C-11.13082001 9.51945965 -10.90791589 7.60150501 -10.46508789 4.50170898 C-7.36124099 0.3715033 -5.04627712 0.00072628 0 0 Z " fill="#202020" transform="translate(385.465087890625,221.498291015625)"/>
<path d="M0 0 C0.64910843 -0.00525696 1.29821686 -0.01051392 1.96699524 -0.01593018 C4.11170547 -0.02912937 6.25567291 -0.02039313 8.40039062 -0.01025391 C9.89107404 -0.01227468 11.38175649 -0.01518615 12.87243652 -0.01895142 C15.9962709 -0.02337463 19.11984789 -0.01694405 22.24365234 -0.00292969 C26.24882239 0.01416251 30.25338937 0.00432127 34.25853729 -0.01364708 C37.33661446 -0.02448517 40.41454854 -0.02103853 43.49263 -0.0132637 C44.9694272 -0.01126175 46.44623736 -0.01372083 47.92301941 -0.02070236 C49.98679032 -0.02831763 52.04958323 -0.01671335 54.11328125 0 C55.2878186 0.00238678 56.46235596 0.00477356 57.67248535 0.00723267 C60.55664062 0.38818359 60.55664062 0.38818359 62.43200684 1.72885132 C64.22237274 4.37043293 63.99946863 6.28838757 63.55664062 9.38818359 C61.38151834 12.28256039 60.19715651 13.27996316 56.5901947 13.88938904 C54.85836693 13.88963829 54.85836693 13.88963829 53.09155273 13.88989258 C51.7801683 13.89927353 50.46878387 13.90865448 49.11766052 13.9183197 C47.68976182 13.9078425 46.26186943 13.89647363 44.83398438 13.88427734 C43.36715117 13.88443234 41.90031755 13.8859215 40.43348694 13.88868713 C37.36261849 13.89007049 34.29221746 13.87752297 31.22143555 13.85473633 C27.28464467 13.82632618 23.34862883 13.82909633 19.41178036 13.84182644 C16.38429641 13.84877936 13.35699177 13.84099932 10.32953072 13.82856941 C8.87786102 13.82405286 7.4261721 13.8237199 5.97450066 13.82763481 C3.94707952 13.83054351 1.91966192 13.81189261 -0.10766602 13.79223633 C-1.26142227 13.78683334 -2.41517853 13.78143036 -3.60389709 13.77586365 C-6.44335938 13.38818359 -6.44335938 13.38818359 -8.31590271 12.0816803 C-10.21768148 9.22511279 -9.79811265 6.69921418 -9.44335938 3.38818359 C-6.99349307 -0.31590165 -4.19559476 0.00852588 0 0 Z " fill="#202020" transform="translate(73.443359375,208.61181640625)"/>
<path d="M0 0 C0.64910843 -0.00525696 1.29821686 -0.01051392 1.96699524 -0.01593018 C4.11170547 -0.02912937 6.25567291 -0.02039313 8.40039062 -0.01025391 C9.89107404 -0.01227468 11.38175649 -0.01518615 12.87243652 -0.01895142 C15.9962709 -0.02337463 19.11984789 -0.01694405 22.24365234 -0.00292969 C26.24882239 0.01416251 30.25338937 0.00432127 34.25853729 -0.01364708 C37.33661446 -0.02448517 40.41454854 -0.02103853 43.49263 -0.0132637 C44.9694272 -0.01126175 46.44623736 -0.01372083 47.92301941 -0.02070236 C49.98679032 -0.02831763 52.04958323 -0.01671335 54.11328125 0 C55.2878186 0.00238678 56.46235596 0.00477356 57.67248535 0.00723267 C60.55664062 0.38818359 60.55664062 0.38818359 62.43200684 1.69369507 C64.35238752 4.58713741 63.97477014 7.04314748 63.55664062 10.38818359 C61.29295049 12.74004881 59.88529631 13.3445751 56.6348877 13.77586365 C55.50111694 13.78126663 54.36734619 13.78666962 53.19921875 13.79223633 C51.91108276 13.8049205 50.62294678 13.81760468 49.29577637 13.83067322 C47.89314615 13.82862186 46.49051704 13.8256339 45.08789062 13.82177734 C43.64587152 13.82633954 42.20385459 13.83164523 40.76184082 13.83766174 C37.74234167 13.84658943 34.72310707 13.84417338 31.70361328 13.83422852 C27.83631831 13.82273173 23.96993546 13.8429616 20.10276031 13.87214565 C17.12585666 13.8905002 14.14917199 13.89021691 11.17222595 13.88450813 C9.74648254 13.88435486 8.32072433 13.89040403 6.89503479 13.90279961 C4.90142835 13.91769276 2.90767171 13.90441119 0.9140625 13.88989258 C-0.21970825 13.88972641 -1.353479 13.88956024 -2.52160645 13.88938904 C-6.09695385 13.27606422 -7.2807431 12.25403885 -9.44335938 9.38818359 C-9.88618738 6.28838757 -10.10909149 4.37043293 -8.31872559 1.72885132 C-5.55665195 -0.24570861 -3.37144074 0.00685111 0 0 Z " fill="#212121" transform="translate(384.443359375,195.61181640625)"/>
<path d="M0 0 C1.28813599 -0.01268417 2.57627197 -0.02536835 3.90344238 -0.03843689 C5.3060726 -0.03638553 6.70870171 -0.03339757 8.11132812 -0.02954102 C9.55334723 -0.03410322 10.99536416 -0.0394089 12.43737793 -0.04542542 C15.45687708 -0.0543531 18.47611168 -0.05193705 21.49560547 -0.04199219 C25.36290044 -0.0304954 29.22928329 -0.05072527 33.09645844 -0.07990932 C36.07336209 -0.09826387 39.05004676 -0.09798059 42.0269928 -0.0922718 C43.45273621 -0.09211853 44.87849442 -0.0981677 46.30418396 -0.11056328 C48.2977904 -0.12545643 50.29154704 -0.11217486 52.28515625 -0.09765625 C53.98581238 -0.097407 53.98581238 -0.097407 55.7208252 -0.09715271 C59.2961726 0.51617211 60.47996185 1.53819747 62.64257812 4.40405273 C63.08540613 7.50384876 63.30831024 9.4218034 61.51794434 12.06338501 C58.7558707 14.03794494 56.57065949 13.78538522 53.19921875 13.79223633 C52.55011032 13.79749329 51.90100189 13.80275024 51.23222351 13.8081665 C49.08751328 13.82136569 46.94354584 13.81262946 44.79882812 13.80249023 C43.30814471 13.80451101 41.81746226 13.80742248 40.32678223 13.81118774 C37.20294785 13.81561096 34.07937086 13.80918038 30.95556641 13.79516602 C26.95039636 13.77807382 22.94582938 13.78791506 18.94068146 13.80588341 C15.86260429 13.8167215 12.78467021 13.81327486 9.70658875 13.80550003 C8.22979155 13.80349808 6.75298139 13.80595715 5.27619934 13.81293869 C3.21242843 13.82055396 1.14963552 13.80894967 -0.9140625 13.79223633 C-2.08859985 13.78984955 -3.26313721 13.78746277 -4.4732666 13.78500366 C-7.35742188 13.40405273 -7.35742188 13.40405273 -9.23278809 12.09854126 C-11.15316877 9.20509891 -10.77555139 6.74908884 -10.35742188 3.40405273 C-7.18107711 0.10398324 -4.4499828 0.02120639 0 0 Z " fill="#212121" transform="translate(106.357421875,108.595947265625)"/>
<path d="M0 0 C0.98807396 -0.0076664 0.98807396 -0.0076664 1.99610901 -0.01548767 C4.17856881 -0.02941374 6.36071388 -0.02842466 8.54321289 -0.02612305 C10.05774555 -0.03000846 11.57227711 -0.03434281 13.08680725 -0.03910828 C16.26363657 -0.04657705 19.44035478 -0.04627459 22.6171875 -0.04101562 C26.69073572 -0.03522139 30.76382919 -0.05214727 34.83730221 -0.0753603 C37.96597458 -0.09008419 41.09453711 -0.09097118 44.22323799 -0.08785057 C45.7251634 -0.08836451 47.22709484 -0.09361584 48.72898674 -0.10366249 C50.8287405 -0.11598353 52.9276045 -0.10926233 55.02734375 -0.09765625 C56.2226622 -0.09828568 57.41798065 -0.0989151 58.64952087 -0.0995636 C61.57836914 0.2746582 61.57836914 0.2746582 63.46437073 1.61042786 C65.20858593 4.21615498 64.95904016 6.22929008 64.57836914 9.2746582 C63.03330448 11.31133435 61.85690758 12.13538898 59.57836914 13.2746582 C57.60355229 13.38138814 55.6251217 13.4235114 53.64746094 13.43579102 C52.40244308 13.44539856 51.15742523 13.4550061 49.87467957 13.46490479 C48.5089842 13.4697531 47.14328671 13.47403185 45.77758789 13.4777832 C44.37994891 13.48353544 42.98230996 13.48929317 41.58467102 13.49505615 C38.65165845 13.50556722 35.71867329 13.51140888 32.78564453 13.51489258 C29.03291761 13.52037131 25.28055463 13.54438513 21.5279417 13.57286453 C18.63939875 13.59151945 15.75094285 13.59669806 12.86234474 13.59822845 C11.47928698 13.60125014 10.09623058 13.60926239 8.71323204 13.62241364 C6.77471506 13.63952838 4.83604792 13.63574123 2.89746094 13.63110352 C1.24438179 13.63657196 1.24438179 13.63657196 -0.4420929 13.64215088 C-3.81762215 13.22581711 -5.7125439 12.30145588 -8.42163086 10.2746582 C-9.23395936 7.40594565 -8.75873189 5.30856751 -8.42163086 2.2746582 C-5.62966501 -0.51730765 -3.91121882 0.01508595 0 0 Z " fill="#202020" transform="translate(72.421630859375,182.725341796875)"/>
<path d="M0 0 C0.64910843 -0.00525696 1.29821686 -0.01051392 1.96699524 -0.01593018 C4.11170547 -0.02912937 6.25567291 -0.02039313 8.40039062 -0.01025391 C9.89107404 -0.01227468 11.38175649 -0.01518615 12.87243652 -0.01895142 C15.9962709 -0.02337463 19.11984789 -0.01694405 22.24365234 -0.00292969 C26.24882239 0.01416251 30.25338937 0.00432127 34.25853729 -0.01364708 C37.33661446 -0.02448517 40.41454854 -0.02103853 43.49263 -0.0132637 C44.9694272 -0.01126175 46.44623736 -0.01372083 47.92301941 -0.02070236 C49.98679032 -0.02831763 52.04958323 -0.01671335 54.11328125 0 C55.2878186 0.00238678 56.46235596 0.00477356 57.67248535 0.00723267 C60.55664062 0.38818359 60.55664062 0.38818359 62.43981934 1.72494507 C64.16865407 4.29963143 63.87085992 6.37167834 63.55664062 9.38818359 C61.55664062 12.38818359 61.55664062 12.38818359 59.80503845 13.06660461 C57.04146576 13.46186691 54.37513425 13.52340115 51.58227539 13.53344727 C50.3774501 13.53982712 49.17262482 13.54620697 47.93128967 13.55278015 C46.63331955 13.55389297 45.33534943 13.5550058 43.99804688 13.55615234 C42.64810654 13.55936745 41.29816654 13.56273171 39.94822693 13.5662384 C37.1213195 13.5722192 34.2944426 13.57407935 31.4675293 13.57348633 C27.85170059 13.57338469 24.23606818 13.58704303 20.62028599 13.60425854 C17.83297329 13.61539577 15.04570783 13.61740502 12.25837517 13.6168766 C10.27921469 13.61862481 8.30006894 13.62945312 6.32093811 13.64042664 C5.11296066 13.63735001 3.90498322 13.63427338 2.66040039 13.63110352 C1.06966454 13.63324104 1.06966454 13.63324104 -0.5532074 13.63542175 C-3.80997346 13.35682158 -7.04941174 12.78213123 -9.44335938 10.38818359 C-9.90910735 4.10058592 -9.90910735 4.10058592 -8.33044434 1.68588257 C-5.55322528 -0.22393835 -3.34948916 0.0068065 0 0 Z " fill="#202020" transform="translate(105.443359375,135.61181640625)"/>
<path d="M0 0 C0.658862 -0.00686325 1.317724 -0.0137265 1.99655151 -0.02079773 C4.17370166 -0.03909444 6.35013325 -0.03522495 8.52734375 -0.02954102 C10.04044836 -0.03410114 11.55355089 -0.0394062 13.06665039 -0.04542542 C16.23755306 -0.05436185 19.40820393 -0.05192712 22.57910156 -0.04199219 C26.64492456 -0.03049532 30.70987999 -0.05072122 34.77558899 -0.07990932 C37.89999928 -0.098244 41.02420055 -0.09798453 44.14865112 -0.0922718 C45.64778868 -0.09211829 47.14694013 -0.09818788 48.64602661 -0.11056328 C50.74113626 -0.12542311 52.83462889 -0.11483674 54.9296875 -0.09765625 C56.71814087 -0.097407 56.71814087 -0.097407 58.54272461 -0.09715271 C61.46484375 0.40405273 61.46484375 0.40405273 63.38500977 2.24009705 C64.90951836 5.29516762 64.37636829 7.17865822 63.46484375 10.40405273 C60.6728779 13.19601859 58.95443171 12.66362498 55.04321289 12.67871094 C54.38449692 12.68382187 53.72578094 12.6889328 53.04710388 12.69419861 C50.86464408 12.70812468 48.68249901 12.7071356 46.5 12.70483398 C44.98546735 12.7087194 43.47093578 12.71305375 41.95640564 12.71781921 C38.77957632 12.72528799 35.60285811 12.72498553 32.42602539 12.71972656 C28.35247717 12.71393233 24.2793837 12.73085821 20.20591068 12.75407124 C17.07723831 12.76879513 13.94867578 12.76968211 10.8199749 12.76656151 C9.31804949 12.76707545 7.81611805 12.77232678 6.31422615 12.78237343 C4.21447239 12.79469447 2.11560839 12.78797326 0.01586914 12.77636719 C-1.17944931 12.77699661 -2.37476776 12.77762604 -3.60630798 12.77827454 C-6.53515625 12.40405273 -6.53515625 12.40405273 -8.42115784 11.06828308 C-10.16537304 8.46255596 -9.91582727 6.44942086 -9.53515625 3.40405273 C-7.04425111 -0.30943168 -4.22831518 0.01916085 0 0 Z " fill="#212121" transform="translate(355.53515625,108.595947265625)"/>
<path d="M0 0 C0.98785492 -0.00744736 0.98785492 -0.00744736 1.9956665 -0.01504517 C4.18348215 -0.02970033 6.37122528 -0.03647454 8.55908203 -0.04199219 C10.07504276 -0.0477412 11.59100345 -0.05349896 13.10696411 -0.05926514 C16.28973735 -0.06978489 19.47248525 -0.07562106 22.65527344 -0.07910156 C26.73666687 -0.08458621 30.81772666 -0.10860919 34.89901543 -0.13707352 C38.03196189 -0.15568462 41.16482778 -0.16090468 44.29782486 -0.16243744 C45.80255074 -0.16546834 47.30727506 -0.1735116 48.81194687 -0.18662262 C50.91655687 -0.20365086 53.02034933 -0.2018113 55.125 -0.1953125 C56.92250198 -0.20078094 56.92250198 -0.20078094 58.75631714 -0.20635986 C61.69189453 0.16113281 61.69189453 0.16113281 63.57888794 1.49591064 C65.32118276 4.10264091 65.07256658 6.11575643 64.69189453 9.16113281 C63.5769043 10.8223877 63.5769043 10.8223877 61.69189453 12.16113281 C58.76977539 12.55554199 58.76977539 12.55554199 55.15673828 12.58105469 C54.49787628 12.58952423 53.83901428 12.59799377 53.16018677 12.60671997 C50.98305953 12.63011292 48.80663791 12.63111179 46.62939453 12.62988281 C45.11628943 12.63698231 43.60318703 12.644681 42.09008789 12.6529541 C38.91919468 12.66640358 35.74855048 12.66796536 32.57763672 12.66210938 C28.51166668 12.65620811 24.44688861 12.6868183 20.38114929 12.72722626 C17.25672963 12.753058 14.13259889 12.75598497 11.00808716 12.75233459 C9.50893148 12.75402967 8.009763 12.76370949 6.51071167 12.78147888 C4.41534261 12.803586 2.32241056 12.79401455 0.22705078 12.77636719 C-0.96525146 12.77842163 -2.15755371 12.78047607 -3.38598633 12.78259277 C-6.30810547 12.16113281 -6.30810547 12.16113281 -8.26342773 9.82580566 C-9.30810547 7.16113281 -9.30810547 7.16113281 -8.55810547 3.91113281 C-6.43569506 -0.75817009 -5.02605811 0.0286761 0 0 Z " fill="#212121" transform="translate(365.30810546875,390.8388671875)"/>
<path d="M0 0 C0.98807396 -0.0076664 0.98807396 -0.0076664 1.99610901 -0.01548767 C4.17856881 -0.02941374 6.36071388 -0.02842466 8.54321289 -0.02612305 C10.05774555 -0.03000846 11.57227711 -0.03434281 13.08680725 -0.03910828 C16.26363657 -0.04657705 19.44035478 -0.04627459 22.6171875 -0.04101562 C26.69073572 -0.03522139 30.76382919 -0.05214727 34.83730221 -0.0753603 C37.96597458 -0.09008419 41.09453711 -0.09097118 44.22323799 -0.08785057 C45.7251634 -0.08836451 47.22709484 -0.09361584 48.72898674 -0.10366249 C50.8287405 -0.11598353 52.9276045 -0.10926233 55.02734375 -0.09765625 C56.2226622 -0.09828568 57.41798065 -0.0989151 58.64952087 -0.0995636 C61.57836914 0.2746582 61.57836914 0.2746582 63.46437073 1.61042786 C65.20858593 4.21615498 64.95904016 6.22929008 64.57836914 9.2746582 C63.46437073 10.93888855 63.46437073 10.93888855 61.57836914 12.2746582 C58.64952087 12.64888 58.64952087 12.64888 55.02734375 12.64697266 C54.36687546 12.65062332 53.70640717 12.65427399 53.02592468 12.65803528 C50.84392546 12.66613809 48.66266943 12.65253528 46.48071289 12.63793945 C44.96521505 12.63742087 43.44971653 12.6379385 41.93421936 12.63945007 C38.75910391 12.63936037 35.58424245 12.62893321 32.40917969 12.61083984 C28.33450907 12.58813321 24.26020901 12.58761215 20.18549252 12.59435749 C17.0568562 12.59769469 13.92830476 12.59107245 10.79968452 12.58122826 C9.29694627 12.5773731 7.79419859 12.57622935 6.29145622 12.5778141 C4.19412022 12.57818394 2.09726409 12.56558893 0 12.54931641 C-1.19452286 12.54470901 -2.38904572 12.54010162 -3.61976624 12.53535461 C-6.42163086 12.2746582 -6.42163086 12.2746582 -8.42163086 10.2746582 C-8.68725586 8.3996582 -8.68725586 8.3996582 -8.67163086 6.2746582 C-8.67678711 5.5734082 -8.68194336 4.8721582 -8.68725586 4.1496582 C-7.9912712 -0.76317469 -3.99463135 0.01540768 0 0 Z " fill="#212121" transform="translate(88.421630859375,390.725341796875)"/>
</svg>
