<?xml version="1.0" encoding="UTF-8"?>
<svg version="1.1" xmlns="http://www.w3.org/2000/svg" width="512" height="512">
<path d="M0 0 C2.31992674 1.54363208 4.07558832 2.92403463 6.0625 4.8125 C7.19832863 5.83317398 8.33642468 6.85132934 9.4765625 7.8671875 C10.05696289 8.39022461 10.63736328 8.91326172 11.23535156 9.45214844 C14.03687379 11.90948807 16.98382308 14.16747941 19.9375 16.4375 C25.44402597 20.70730308 30.75690674 25.16348475 36.02441406 29.72363281 C40.13306356 33.27549186 44.31774192 36.70880243 48.578125 40.078125 C53.09661741 43.66376736 57.54068708 47.34123694 62 51 C63.83310162 52.50028317 65.66643427 54.00028408 67.5 55.5 C89.5 73.5 89.5 73.5 92.2265625 75.734375 C94.13342871 77.2920967 96.04517299 78.84385999 97.9609375 80.390625 C98.92257813 81.16921875 99.88421875 81.9478125 100.875 82.75 C101.73867187 83.44609375 102.60234375 84.1421875 103.4921875 84.859375 C109.16074633 89.69795793 113.5693937 95.15904432 118.0625 101.0625 C119.27988132 102.65959141 120.49985548 104.25471039 121.72265625 105.84765625 C122.25640869 106.54898682 122.79016113 107.25031738 123.34008789 107.97290039 C127.80084545 113.42041768 132.63296884 116.29148346 138.8125 119.5 C139.68970703 119.99242187 140.56691406 120.48484375 141.47070312 120.9921875 C146.02152826 123.51906222 146.02152826 123.51906222 151.01000977 123.51635742 C152.84730097 122.48786425 154.38491211 121.34766202 156 120 C157.38638672 119.06607422 157.38638672 119.06607422 158.80078125 118.11328125 C159.62964844 117.51902344 160.45851562 116.92476563 161.3125 116.3125 C165.82497901 113.08535192 167.84519497 111.86377313 173.43334961 112.09619141 C179.17197651 112.30454054 184.90727815 112.43698425 190.6489172 112.51114845 C194.11689189 112.56063594 197.57708479 112.64330163 201.04174805 112.80566406 C218.54865228 113.8834165 218.54865228 113.8834165 233.97363281 106.83276367 C238.1301615 102.91522685 241.7471861 98.66306988 245.24432373 94.15483093 C247.53988485 91.33737182 249.99175189 89.26372145 252.875 87.0625 C256.95016918 83.88941935 260.7375935 80.53074741 264.5 77 C269.23816732 72.56118039 274.1212436 68.40853711 279.1875 64.34375 C282.39849805 61.66791829 285.45029137 58.85641724 288.5 56 C293.23866464 51.56167326 298.12119326 47.4085775 303.1875 43.34375 C306.39849934 40.66791722 309.45027636 37.85640293 312.5 35 C317.26088994 30.54125556 322.1646782 26.3620217 327.25390625 22.27734375 C330.263285 19.78165696 333.13789515 17.16082002 336 14.5 C337.9953584 12.66155813 339.99618978 10.82922342 342 9 C342.73597412 8.32445068 342.73597412 8.32445068 343.48681641 7.63525391 C344.91165938 6.34196402 346.36176812 5.07668086 347.8125 3.8125 C348.64394531 3.07644531 349.47539062 2.34039062 350.33203125 1.58203125 C353.84201344 -0.49929055 355.9913227 -0.65647329 360 0 C362.81827855 3.61945612 363.37496376 6.36612898 363.3742218 10.88929749 C363.38123611 12.06837173 363.38825043 13.24744598 363.39547729 14.46224976 C363.38783356 15.74709259 363.38018982 17.03193542 363.37231445 18.35571289 C363.37474373 19.72925593 363.37846438 21.10279721 363.38337708 22.47633362 C363.39277027 26.19942261 363.38337447 29.92224799 363.37004495 33.64531636 C363.35871694 37.54320257 363.36283894 41.44107606 363.36479187 45.338974 C363.36567431 51.88333435 363.35460398 58.42759101 363.33618164 64.97192383 C363.31500592 72.53767917 363.31150631 80.10328274 363.3177436 87.66906172 C363.32343812 94.94929576 363.31779113 102.22947635 363.30657005 109.50970268 C363.30192614 112.60730414 363.30104931 115.70487289 363.3031559 118.80247688 C363.30503952 122.44932586 363.29692932 126.09602034 363.2810955 129.74283409 C363.27482951 131.7196391 363.27835986 133.69646753 363.28216553 135.67327881 C363.27508072 136.84953323 363.26799591 138.02578766 363.26069641 139.23768616 C363.25864354 140.25991303 363.25659067 141.28213991 363.25447559 142.33534336 C362.99292963 145.07403499 362.47719866 146.69749385 361 149 C359.13031006 150.20941162 359.13031006 150.20941162 356.82714844 151.21777344 C355.53179169 151.79594818 355.53179169 151.79594818 354.21026611 152.38580322 C353.26947205 152.78958191 352.32867798 153.1933606 351.359375 153.609375 C349.88945099 154.25782379 349.88945099 154.25782379 348.38983154 154.91937256 C345.26555392 156.29298325 342.13341932 157.64739073 339 159 C337.02513244 159.86203896 335.0505181 160.72465829 333.07617188 161.58789062 C328.1430342 163.7374538 323.19868584 165.85966723 318.24853516 167.96972656 C315.23427133 169.25671561 312.22460149 170.55407665 309.21484375 171.8515625 C298.80761595 176.30840677 288.41593641 180.40409317 277.61450195 183.80444336 C274.58773132 184.80559809 271.79643747 185.9157869 268.9375 187.3125 C264.6692092 189.35348826 260.7013433 189.70150201 256 190 C256.04640625 190.58007812 256.0928125 191.16015625 256.140625 191.7578125 C256.464505 198.76750103 254.55858067 201.94621017 250.0625 207.3125 C247.69374255 209.25057427 246.01004814 209.66555021 243 210 C242.9175 211.19625 242.835 212.3925 242.75 213.625 C242.17238458 217.98407103 240.96999187 220.64923994 238 224 C233.91743914 226.69935236 230.9431178 228 226 228 C225.938125 228.86625 225.87625 229.7325 225.8125 230.625 C224.82778631 234.71534918 223.26511893 237.40028446 220 240 C217.78135484 240.99714389 215.59798924 241.69512185 213.2578125 242.35546875 C210.74942435 243.02005747 210.74942435 243.02005747 207.5 244.5 C199.79408626 247.80253446 193.42253671 249.45732398 185 249.25 C184.16210938 249.24484375 183.32421875 249.2396875 182.4609375 249.234375 C177.53845653 249.17341548 172.8042071 248.79074043 167.94677734 247.97802734 C164.27903075 248.01942403 162.49054516 250.50945484 160 253 C155.01920617 254.66026461 150.69726371 254.59903425 145.8125 252.875 C143 251 143 251 140.75 247.9375 C137.9576783 244.25343685 134.89077253 244.2533844 130.51171875 243.625 C126.43441157 242.61042901 123.74733049 240.091797 121 237 C120.67 236.34 120.34 235.68 120 235 C117.87978313 234.53378911 117.87978313 234.53378911 115.375 234.25 C109.9478516 233.25476362 106.47384845 231.31445901 103 227 C101.5625 223.625 101.5625 223.625 101 221 C99.783125 220.9175 98.56625 220.835 97.3125 220.75 C93.16040797 220.21448283 90.93729911 219.10514477 88 216 C84.30322418 210.77352383 83.95166265 205.17625108 85 199 C86.66520076 195.10005155 88.69134455 191.55230615 91 188 C86.87888905 181.38604922 82.49899578 178.38049009 74.98046875 176.6171875 C73.3603433 176.20182056 71.74123556 175.78246847 70.12304688 175.35961914 C69.28128906 175.14121368 68.43953125 174.92280823 67.57226562 174.69778442 C63.28919379 173.53590566 59.07454063 172.17448262 54.85546875 170.80078125 C53.9936499 170.52088348 53.13183105 170.24098572 52.24389648 169.9526062 C49.557117 169.07652957 46.8721368 168.19511908 44.1875 167.3125 C43.2601001 167.00863373 42.3327002 166.70476746 41.37719727 166.39169312 C34.91395161 164.27368879 28.4557804 162.14063844 22 160 C21.19661194 159.73413086 20.39322388 159.46826172 19.56549072 159.19433594 C15.32775026 157.79100581 11.09371966 156.37754568 6.86611938 154.94393921 C5.04293214 154.32702696 3.21717004 153.71774088 1.39135742 153.10864258 C0.31345947 152.73892334 -0.76443848 152.3692041 -1.875 151.98828125 C-2.80054687 151.67415283 -3.72609375 151.36002441 -4.6796875 151.03637695 C-7.18689914 149.91652074 -8.33529433 149.17107227 -10 147 C-10.37752342 144.39033508 -10.37752342 144.39033508 -10.38095093 141.19262695 C-10.3894104 139.98120026 -10.39786987 138.76977356 -10.40658569 137.52163696 C-10.40075264 136.17718372 -10.39460812 134.8327318 -10.38818359 133.48828125 C-10.39224817 132.074001 -10.39758941 130.65972392 -10.40411377 129.24545288 C-10.41780687 125.40249747 -10.41248061 121.55978329 -10.40297651 117.71682358 C-10.39539019 113.69833467 -10.40242266 109.67986665 -10.40713501 105.66137695 C-10.41259557 98.91255987 -10.40539311 92.16384121 -10.39111328 85.41503906 C-10.37478614 77.60842024 -10.38007444 69.80203645 -10.3965925 61.99542332 C-10.41019885 55.29726173 -10.41213121 48.59917096 -10.40427649 41.90100002 C-10.39959527 37.89852991 -10.39898739 33.89617033 -10.40888596 29.89370728 C-10.41754103 26.13110964 -10.41156076 22.36881554 -10.39420319 18.60625076 C-10.39023048 17.22393931 -10.39138578 15.84160238 -10.39799118 14.45930099 C-10.40616497 12.57533418 -10.3941066 10.69131166 -10.38095093 8.80737305 C-10.37981985 7.75212936 -10.37868877 6.69688568 -10.37752342 5.60966492 C-10 3 -10 3 -8.68297768 1.16755676 C-5.75812663 -0.86154301 -3.43960977 -0.45497484 0 0 Z M3 20 C3 59.6 3 99.2 3 140 C23.79 146.93 23.79 146.93 45 154 C48.63 155.32 52.26 156.64 56 158 C60.83701063 157.57441666 60.83701063 157.57441666 62.50708008 155.20361328 C62.92368896 154.41712402 63.34029785 153.63063477 63.76953125 152.8203125 C64.25800537 151.92401123 64.74647949 151.02770996 65.24975586 150.10424805 C65.76546143 149.12109619 66.28116699 148.13794434 66.8125 147.125 C67.95275914 145.02832996 69.09612693 142.93334831 70.2421875 140.83984375 C71.14855957 139.17477783 71.14855957 139.17477783 72.07324219 137.47607422 C75.40135393 131.47180977 78.92071548 125.5825572 82.4375 119.6875 C83.09919189 118.57455566 83.76088379 117.46161133 84.44262695 116.31494141 C89.52146697 107.78012404 89.52146697 107.78012404 91.80517578 104.05712891 C92.35544434 103.15784668 92.90571289 102.25856445 93.47265625 101.33203125 C94.20560913 100.14637573 94.20560913 100.14637573 94.95336914 98.93676758 C96.15847398 97.07366034 96.15847398 97.07366034 96 95 C94.12810942 93.2635671 94.12810942 93.2635671 91.6875 91.4375 C90.31464844 90.36628906 90.31464844 90.36628906 88.9140625 89.2734375 C87.95242187 88.52320313 86.99078125 87.77296875 86 87 C84.18287699 85.5265163 82.37035626 84.04733872 80.5625 82.5625 C79.64597656 81.81097656 78.72945313 81.05945313 77.78515625 80.28515625 C76.86605469 79.53105469 75.94695312 78.77695313 75 78 C73.16689838 76.49971683 71.33356573 74.99971592 69.5 73.5 C54.83333333 61.5 40.16666667 49.5 25.5 37.5 C24.59894531 36.76394531 23.69789062 36.02789062 22.76953125 35.26953125 C20.86647565 33.71004563 18.96829024 32.14460379 17.07421875 30.57421875 C15.64529297 29.39279297 15.64529297 29.39279297 14.1875 28.1875 C13.33542969 27.47980469 12.48335937 26.77210938 11.60546875 26.04296875 C8.84719287 23.88018271 5.91641988 21.94427992 3 20 Z M342.625 25.9375 C337.50370598 30.75168555 332.26714917 35.29794963 326.77734375 39.69140625 C323.57557071 42.35279565 320.53766575 45.15463665 317.5 48 C312.73913345 52.45876691 307.83531923 56.63798036 302.74609375 60.72265625 C299.73681042 63.2182639 296.86059714 65.83763481 294 68.5 C290.29138312 71.95161936 286.51494105 75.26522148 282.5625 78.4375 C277.70646502 82.34481613 273.13689722 86.4930344 268.58349609 90.74291992 C264.80585365 94.26807065 260.96268654 97.68240197 257 101 C258.28067108 105.23381674 259.88308321 108.7957506 262.16796875 112.578125 C262.80710205 113.64474365 263.44623535 114.7113623 264.10473633 115.81030273 C264.79898746 116.95687056 265.4932421 118.10343627 266.1875 119.25 C267.63583574 121.66095345 269.07979607 124.07451469 270.5234375 126.48828125 C271.07693626 127.41212364 271.07693626 127.41212364 271.64161682 128.35462952 C276.27201654 136.09901535 280.7451403 143.93382291 285.21362305 151.77246094 C285.79926025 152.79500977 286.38489746 153.81755859 286.98828125 154.87109375 C287.49915283 155.76755615 288.01002441 156.66401855 288.53637695 157.58764648 C289.9049769 159.84338228 291.37701199 161.92210412 293 164 C312.55760722 157.48079759 331.07059091 148.16562745 350 140 C350 100.4 350 60.8 350 20 C347.53719729 20 344.4510294 24.20497857 342.625 25.9375 Z M104 107 C102.42918386 109.16364499 102.42918386 109.16364499 100.83203125 111.9921875 C100.19265625 113.07822266 99.55328125 114.16425781 98.89453125 115.28320312 C98.20018178 116.48027215 97.50617949 117.67754261 96.8125 118.875 C96.10205279 120.09078143 95.3911096 121.30627315 94.6796875 122.52148438 C93.1981153 125.05566412 91.721615 127.59271095 90.24853516 130.13183594 C88.40460359 133.30849032 86.54707066 136.47690167 84.68400574 139.6423645 C82.94994204 142.59137432 81.2254619 145.545949 79.5 148.5 C78.84749268 149.60843262 78.19498535 150.71686523 77.52270508 151.85888672 C76.9273999 152.8851416 76.33209473 153.91139648 75.71875 154.96875 C75.19216797 155.87044922 74.66558594 156.77214844 74.12304688 157.70117188 C72.78052501 160.0228416 72.78052501 160.0228416 73 163 C76.63 163.66 80.26 164.32 84 165 C88.11902296 158.81177508 92.23055847 152.61866857 96.33520508 146.42089844 C97.73289077 144.31276444 99.13262037 142.20598407 100.53442383 140.10058594 C102.5478619 137.07579614 104.55392276 134.04622999 106.55859375 131.015625 C107.18777206 130.07382385 107.81695038 129.13202271 108.4651947 128.16168213 C109.33598412 126.84076569 109.33598412 126.84076569 110.22436523 125.49316406 C110.73732651 124.72039124 111.25028778 123.94761841 111.77879333 123.15142822 C112.982558 121.03072797 113.70720528 119.41842666 114 117 C112.43764992 114.31446668 112.43764992 114.31446668 110.1875 111.75 C109.45917969 110.85796875 108.73085937 109.9659375 107.98046875 109.046875 C107.32691406 108.37140625 106.67335937 107.6959375 106 107 C105.34 107 104.68 107 104 107 Z M246 111 C243.69 113.31 241.38 115.62 239 118 C240.2526782 121.39236201 241.67107535 124.21621196 243.765625 127.16015625 C244.31935791 127.94430908 244.87309082 128.72846191 245.44360352 129.53637695 C246.03971436 130.36999756 246.6358252 131.20361816 247.25 132.0625 C248.51448119 133.84884631 249.77879922 135.63530812 251.04296875 137.421875 C251.69442871 138.33904297 252.34588867 139.25621094 253.01708984 140.20117188 C256.22072131 144.72301762 259.39002152 149.26877177 262.5625 153.8125 C266.34736733 159.22853615 270.14997825 164.63004416 274 170 C276.31 169.67 278.62 169.34 281 169 C280.35998047 167.88431641 280.35998047 167.88431641 279.70703125 166.74609375 C279.08183594 165.65425781 278.45664062 164.56242187 277.8125 163.4375 C277.46155273 162.82471191 277.11060547 162.21192383 276.74902344 161.58056641 C274.48142235 157.613707 272.23168218 153.6373385 269.99609375 149.65234375 C264.53171654 139.91892185 259.01949285 130.21868186 253.3125 120.625 C252.80750977 119.76890137 252.30251953 118.91280273 251.78222656 118.03076172 C251.31397461 117.24975098 250.84572266 116.46874023 250.36328125 115.6640625 C249.74900269 114.63466553 249.74900269 114.63466553 249.12231445 113.58447266 C248.07403767 111.8406085 248.07403767 111.8406085 246 111 Z M154.8762207 136.32530212 C151.75352627 139.11259134 148.3153251 141.43845384 144.875 143.8125 C143.725223 144.62962888 142.57664571 145.44845049 141.4296875 146.26953125 C140.62789062 146.84058594 139.82609375 147.41164063 139 148 C142.46692466 151.46692466 147.25708151 151.56306892 152 152 C159.18226498 151.76512386 164.80789836 148.04797372 170.7890625 144.36328125 C174.74473892 142.68380306 176.87668076 142.93295837 181 144 C183.109375 145.15625 183.109375 145.15625 184.75 146.5 C188.32476992 149.37317956 191.11174516 150.13936658 195.6875 150.125 C196.49574219 150.12757813 197.30398438 150.13015625 198.13671875 150.1328125 C201.1798434 150.0809723 201.1798434 150.0809723 204.765625 149.1015625 C209.51345445 148.48875931 212.02972147 150.51952654 215.69824219 153.33276367 C216.47844727 153.96545166 217.25865234 154.59813965 218.0625 155.25 C219.73555438 156.54312752 221.40873307 157.83609422 223.08203125 159.12890625 C223.90783691 159.78004395 224.73364258 160.43118164 225.58447266 161.10205078 C229.09411617 163.8596785 232.66310571 166.53162893 236.25 169.1875 C236.83273682 169.6319043 237.41547363 170.07630859 238.01586914 170.53417969 C243.3601507 174.52131841 248.47311983 177.46273344 255.3125 177.25 C256.15425781 177.23453125 256.99601562 177.2190625 257.86328125 177.203125 C260.05104609 177.12471038 260.05104609 177.12471038 262 176 C260.36882165 170.86330793 257.23556347 166.95824726 254.0625 162.6875 C252.88127412 161.07664779 251.70161516 159.46464552 250.5234375 157.8515625 C249.93143555 157.04106445 249.33943359 156.23056641 248.72949219 155.39550781 C246.15298354 151.82680329 243.66492015 148.20039822 241.1875 144.5625 C234.65560129 134.31341082 234.65560129 134.31341082 227 125 C219.38040877 124.25517075 211.6371567 124.34175239 203.98754883 124.21044922 C201.40059816 124.15413071 198.8140547 124.07268662 196.22875977 123.96435547 C179.01127075 123.25662027 167.75488959 124.33956772 154.8762207 136.32530212 Z M124 127 C122.55320632 128.6692315 122.55320632 128.6692315 121.0949707 130.88378906 C120.51129227 131.73177063 119.92761383 132.5797522 119.32624817 133.45343018 C118.69909409 134.38145447 118.07194 135.30947876 117.42578125 136.265625 C116.78255417 137.21056824 116.13932709 138.15551147 115.47660828 139.12908936 C114.11548165 141.13423354 112.75806989 143.14190362 111.40405273 145.15185547 C109.32451488 148.23220277 107.22455436 151.29789482 105.12304688 154.36328125 C103.80601483 156.30903219 102.490218 158.25561989 101.17578125 160.203125 C100.54255447 161.12305237 99.9093277 162.04297974 99.25691223 162.99078369 C98.68269028 163.8513739 98.10846832 164.71196411 97.5168457 165.59863281 C97.00547562 166.35364075 96.49410553 167.10864868 95.96723938 167.88653564 C94.82008258 169.93400971 94.82008258 169.93400971 95.18254089 172.10321045 C96.44979239 175.04367485 98.6772494 176.85592252 101 179 C102.485 178.505 102.485 178.505 104 178 C109.69734689 177.43569136 114.12785716 177.71413622 119 181 C121.09932012 183.27426347 122.67399456 185.19412673 123.8359375 188.06640625 C125.3690447 190.61301049 126.53822191 190.78373709 129.375 191.5 C134.72725213 193.08076146 136.92211483 195.38317225 140 200 C142.48547196 200.61685388 142.48547196 200.61685388 145.3125 200.875 C150.38329653 201.66482302 152.81404609 202.78631902 156 207 C156.99 208.485 156.99 208.485 158 210 C160.22065253 210.61576982 160.22065253 210.61576982 162.75 210.875 C167.96215709 211.78637429 170.3965051 213.12624298 174 217 C177.40868224 222.73278377 176.25338079 229.73309606 175 236 C179.85753045 237.29534145 185.0084132 237.49915868 190 237 C190.99 236.34 191.98 235.68 193 235 C191.71802734 234.34644531 191.71802734 234.34644531 190.41015625 233.6796875 C189.30542969 233.08414063 188.20070313 232.48859375 187.0625 231.875 C185.96035156 231.29492188 184.85820312 230.71484375 183.72265625 230.1171875 C181 228 181 228 179.99609375 224.9453125 C180 222 180 222 182 219 C185.01305051 217.89730037 186.44586899 217.7712492 189.43188477 219.00390625 C190.26002686 219.51824219 191.08816895 220.03257812 191.94140625 220.5625 C192.85470703 221.11164063 193.76800781 221.66078125 194.70898438 222.2265625 C195.65064453 222.81179688 196.59230469 223.39703125 197.5625 224 C199.43189738 225.15706395 201.30796398 226.30344147 203.19140625 227.4375 C204.01842041 227.95183594 204.84543457 228.46617187 205.69750977 228.99609375 C207.92429283 230.18826113 207.92429283 230.18826113 210.22241211 229.7890625 C212.62676473 228.72178223 213.07315979 227.39433721 214 225 C211.09306487 221.83648226 208.24457394 219.82612111 204.46484375 217.80078125 C203.40845703 217.23166016 202.35207031 216.66253906 201.26367188 216.07617188 C200.16603516 215.49416016 199.06839844 214.91214844 197.9375 214.3125 C196.83599609 213.71888672 195.73449219 213.12527344 194.59960938 212.51367188 C188.94863391 209.41910547 188.94863391 209.41910547 183 207 C182.64192578 200.67402207 182.64192578 200.67402207 184.0625 198 C187.18717423 196.38726492 189.62165814 197.30287152 193 198 C196.36157227 199.56640625 196.36157227 199.56640625 199.81640625 201.5625 C200.43595688 201.9138501 201.05550751 202.2652002 201.6938324 202.62719727 C203.65627085 203.74098486 205.61002736 204.86884579 207.5625 206 C209.51893364 207.13037316 211.47705077 208.25707859 213.44187927 209.37280273 C215.22233423 210.3840688 216.99530639 211.40847599 218.76782227 212.43359375 C221.97437508 213.98758143 224.44841419 214.80014523 228 215 C230.25408803 213.19632349 230.25408803 213.19632349 230.1015625 210.671875 C228.39643412 206.53603169 225.20481538 205.30834413 221.375 203.25 C219.8288508 202.3838404 218.28329 201.51662973 216.73828125 200.6484375 C215.95146973 200.21241211 215.1646582 199.77638672 214.35400391 199.32714844 C210.04860244 196.89983436 205.85243688 194.28949302 201.64794922 191.69238281 C198.54923037 189.6543951 198.54923037 189.6543951 195 189 C194.64192578 182.67402207 194.64192578 182.67402207 196.0625 180 C199.18573341 178.38800856 201.62390874 179.30399044 205 180 C208.31738281 181.55053711 208.31738281 181.55053711 211.703125 183.52734375 C212.3075946 183.87632217 212.91206421 184.2253006 213.53485107 184.58485413 C215.44626657 185.69186089 217.348003 186.81440456 219.25 187.9375 C220.54107299 188.68787136 221.83273512 189.43723003 223.125 190.18554688 C232.09285482 195.39523654 232.09285482 195.39523654 236 198 C238.5 198.5 238.5 198.5 241 198 C242.99033641 196.34626504 242.99033641 196.34626504 244 194 C243.77015204 191.20734724 243.14266283 190.14509114 241.1640625 188.1328125 C232.65349419 181.40291694 223.96172887 174.91236932 215.15112305 168.57983398 C213.78735452 167.57825118 212.446329 166.54428786 211.13989258 165.46899414 C206.69729671 161.90676589 203.78952708 161.53617716 198.1875 161.9375 C190.13988857 162.29987945 184.58413242 160.50519472 177.60546875 156.69140625 C173.88618567 155.70443008 172.29390342 156.95127651 169 158.8125 C160.26754636 163.67995184 150.78346711 164.52388542 140.95703125 162.31640625 C134.87891337 160.25036054 128.66891837 157.49758192 124 153 C122.625 149.4375 122.625 149.4375 123 146 C126.7553024 140.82027255 132.7464661 137.53975973 138 134 C135.39593854 131.96229271 132.83642657 130.28195311 129.875 128.8125 C128.85019531 128.29623047 128.85019531 128.29623047 127.8046875 127.76953125 C126.02036288 126.86925448 126.02036288 126.86925448 124 127 Z M103.47265625 192.921875 C102.65069101 194.18602832 101.84785551 195.46278316 101.0625 196.75 C100.63904297 197.38421875 100.21558594 198.0184375 99.77929688 198.671875 C98.41466274 200.74812312 98.41466274 200.74812312 97 204 C97.36754023 206.43646815 97.36754023 206.43646815 99 208 C99.99 208.33 100.98 208.66 102 209 C106.44697682 205.06613589 111.7094544 199.3751714 112.234375 193.27734375 C112.24567506 191.03534128 112.24567506 191.03534128 111 190 C106.95732414 189.13121004 106.22469921 189.7402241 103.47265625 192.921875 Z M124 202 C118.79300147 206.44126345 116.07881795 211.95874554 113 218 C113.66 218.99 114.32 219.98 115 221 C118.49754724 220.73048673 119.76550456 220.243908 122.23828125 217.671875 C122.92277344 216.70765625 123.60726562 215.7434375 124.3125 214.75 C125.00988281 213.79609375 125.70726562 212.8421875 126.42578125 211.859375 C128.06696468 208.87836689 128.35900399 207.33447778 128 204 C126.68 203.34 125.36 202.68 124 202 Z M140.125 213.375 C133.69979456 220.7883961 133.69979456 220.7883961 132 230 C133.65 230.33 135.3 230.66 137 231 C142.57922462 224.36876458 142.57922462 224.36876458 147 217 C146.79356801 214.74671588 146.79356801 214.74671588 146 213 C143.36394881 211.87026378 142.49528224 211.63679302 140.125 213.375 Z M159 222 C156.91763228 224.34961406 156.91763228 224.34961406 154.9375 227.3125 C154.24527344 228.29863281 153.55304688 229.28476562 152.83984375 230.30078125 C149.87986588 233.91276903 149.87986588 233.91276903 149.375 238.1875 C149.58125 238.785625 149.7875 239.38375 150 240 C151.65 240.33 153.3 240.66 155 241 C156.32617193 239.30225825 157.63541303 237.59128335 158.9375 235.875 C159.66839844 234.92367187 160.39929688 233.97234375 161.15234375 232.9921875 C163.10217264 229.83453648 163.83782306 227.69344895 164 224 C163.34 223.34 162.68 222.68 162 222 C161.01 222 160.02 222 159 222 Z " fill="#000000" transform="translate(80,130)"/>
<path d="M0 0 C2 3 2 3 2.02734375 6.2578125 C0.67325452 11.19019837 -1.75528716 13.47239904 -5.4375 16.875 C-6.03626953 17.45507812 -6.63503906 18.03515625 -7.25195312 18.6328125 C-12.73919271 23.89269725 -12.73919271 23.89269725 -16.9375 24.25 C-20 24 -20 24 -21.875 22.875 C-23.65952249 19.90079585 -23.64846 18.43683798 -23 15 C-20.96089055 12.04058451 -18.5266711 9.5462577 -16 7 C-15.35546875 6.3296875 -14.7109375 5.659375 -14.046875 4.96875 C-9.12175107 -0.08053671 -7.33207662 -1.57115928 0 0 Z " fill="#000000" transform="translate(303,197)"/>
<path d="M0 0 C2.85554333 1.53760026 3.27843707 2.35263309 4.4375 5.3125 C4.69628906 7.5390625 4.69628906 7.5390625 4.703125 9.9375 C4.70570313 10.80890625 4.70828125 11.6803125 4.7109375 12.578125 C4.70320313 13.48046875 4.69546875 14.3828125 4.6875 15.3125 C4.69523437 16.21484375 4.70296875 17.1171875 4.7109375 18.046875 C4.70835937 18.91828125 4.70578125 19.7896875 4.703125 20.6875 C4.70086914 21.47898438 4.69861328 22.27046875 4.69628906 23.0859375 C4.40627242 25.58117499 3.76509603 27.18834636 2.4375 29.3125 C-0.36120027 30.71185013 -2.46748792 30.56515405 -5.5625 30.3125 C-7.22900391 29.13671875 -7.22900391 29.13671875 -8.5625 27.3125 C-8.95068359 24.81640625 -8.95068359 24.81640625 -8.9609375 21.875 C-8.96480469 20.81539062 -8.96867188 19.75578125 -8.97265625 18.6640625 C-8.96105469 17.55804688 -8.94945312 16.45203125 -8.9375 15.3125 C-8.94910156 14.20648438 -8.96070313 13.10046875 -8.97265625 11.9609375 C-8.96878906 10.90132812 -8.96492187 9.84171875 -8.9609375 8.75 C-8.95755371 7.77933594 -8.95416992 6.80867187 -8.95068359 5.80859375 C-8.49798805 2.89767599 -7.90825913 2.03754577 -5.5625 0.3125 C-2.5625 -0.6875 -2.5625 -0.6875 0 0 Z " fill="#000000" transform="translate(258.5625,172.6875)"/>
<path d="M0 0 C2.93435989 2.0779327 5.3370567 4.59130337 7.8125 7.1875 C8.8324707 8.19780273 8.8324707 8.19780273 9.87304688 9.22851562 C15.47258678 14.95087694 15.47258678 14.95087694 16 20 C15.02269781 22.70637529 14.59487555 23.70256222 12 25 C9.3671875 25.50390625 9.3671875 25.50390625 6 25 C3.03947292 22.9716038 0.62106606 20.50370745 -1.875 17.9375 C-2.90753906 16.95233398 -2.90753906 16.95233398 -3.9609375 15.94726562 C-7.29246543 12.59260209 -8.87703121 10.92412912 -9.515625 6.125 C-9 3 -9 3 -7.875 1.0625 C-4.94132721 -0.59991458 -3.35944636 -0.51384348 0 0 Z " fill="#000000" transform="translate(217,196)"/>
</svg>
